<svg width="245" height="178" viewBox="0 0 245 178" fill="none" xmlns="http://www.w3.org/2000/svg">
<path d="M59.9323 24.6094C59.6458 27.0104 59.3594 29.4427 59.6875 31.8333C59.7917 32.6042 59.9635 33.375 60.3594 34.0469C60.75 34.7135 61.3854 35.2708 62.1458 35.4115C62.8489 34.7448 63.8229 33.9479 64.25 33.0729C64.7917 31.9531 64.7917 30.6458 64.6614 29.401C64.5208 28.1198 64.2396 26.8073 63.4948 25.75C62.7552 24.6979 61.2031 24.3958 59.9323 24.6094Z" fill="black"/>
<path d="M97.1562 166.63C97.0937 157.188 96.1562 146.682 95.9583 140.813C95 112.26 93.4635 109.25 93.4635 109.25L64.9166 111.979L42.0104 114.776L37.5052 177.448L67.8177 177.542L69.8229 159.911L70.1354 177.547L97.1302 177.625L97.1562 166.63Z" fill="#007785"/>
<path d="M69.8229 160.12C69.7448 160.12 69.6667 160.073 69.6354 159.99C69.5885 159.885 69.6354 159.766 69.7448 159.719L81.901 154.479C82.0104 154.432 82.1302 154.479 82.1771 154.589C82.224 154.693 82.1719 154.812 82.0677 154.859L69.9062 160.099C69.8802 160.115 69.8542 160.12 69.8229 160.12Z" fill="black"/>
<path d="M125.396 159.5H244.375V165.943H125.396V159.5Z" fill="white"/>
<path d="M125.396 159.5H244.375V165.943H125.396V159.5Z" fill="black" fill-opacity="0.2667"/>
<path d="M187.896 69.3542L180.698 109.948L214.76 113.224L213.536 76.1563L187.896 69.3542Z" fill="black"/>
<path d="M199.979 83.6406L201.667 108.828L189.37 109.078L189.641 92.474L199.979 83.6406Z" fill="#F8B498"/>
<path d="M185.427 106.365L183.979 106.542C180.469 106.969 176.245 110.276 174.99 113.583L165.526 135.818L169.479 119.307L157.698 116.932L152.964 139.568C152.005 142.953 151.839 146.51 152.474 149.974C153.156 153.698 156.37 156.427 160.151 156.495C164.437 156.573 168.443 154.38 170.682 150.719L178.271 138.333L186.802 159.057L230.672 162.271C235.547 162.63 239.953 159.37 241.047 154.599C242 150.443 241.411 146.083 239.391 142.333L226.078 115.625C225.474 114.417 224.667 113.25 223.719 112.172C220.234 108.208 215.115 106.073 209.839 106.052L203.062 106.026L185.427 106.365Z" fill="#ADCF9F"/>
<path d="M182.953 72.6667C182.953 72.6667 174.302 65.8958 183.156 60.3386C189.198 56.5469 199.51 61.5729 199.51 61.5729L182.953 72.6667Z" fill="black"/>
<path d="M199.995 61.6771C201.068 61.8958 202.109 62.2031 203.125 62.599C204.141 62.9896 205.104 63.4583 206.026 64.0104C206.943 64.5573 207.797 65.1771 208.583 65.8594C209.375 66.5469 210.078 67.2865 210.708 68.0781C211.333 68.8698 211.87 69.7031 212.307 70.5781C212.75 71.4479 213.089 72.3438 213.328 73.2604C213.568 74.1771 213.698 75.099 213.729 76.026C213.755 76.9531 213.677 77.8698 213.49 78.7708C213.302 79.6719 213.016 80.5417 212.625 81.3802C212.234 82.224 211.75 83.0156 211.167 83.7656C210.583 84.5156 209.922 85.2031 209.172 85.8281C208.422 86.4531 207.604 87.0052 206.714 87.4896C205.823 87.9687 204.885 88.3698 203.891 88.6875C202.896 89 201.87 89.2292 200.807 89.3698C199.745 89.5104 198.672 89.5625 197.583 89.5208C196.495 89.4792 195.417 89.349 194.344 89.125C193.276 88.9063 192.229 88.599 191.219 88.2083C190.203 87.8125 189.234 87.3438 188.318 86.7917C187.396 86.2448 186.542 85.6302 185.755 84.9427C184.969 84.2604 184.26 83.5208 183.635 82.724C183.005 81.9323 182.474 81.099 182.031 80.2292C181.589 79.3542 181.25 78.4583 181.01 77.5417C180.776 76.625 180.641 75.7031 180.615 74.776C180.589 73.849 180.667 72.9375 180.849 72.0365C181.036 71.1354 181.323 70.2604 181.714 69.4219C182.104 68.5781 182.594 67.7865 183.172 67.0365C183.755 66.2917 184.422 65.6042 185.172 64.974C185.922 64.349 186.74 63.7969 187.63 63.3177C188.516 62.8333 189.458 62.4375 190.453 62.1198C191.448 61.8021 192.474 61.5729 193.536 61.4323C194.594 61.2917 195.672 61.2448 196.755 61.2813C197.844 61.3229 198.922 61.4531 199.995 61.6771Z" fill="black"/>
<path d="M189.641 92.474L198.698 91.375L189.5 101.229L189.641 92.474Z" fill="black"/>
<path d="M202.823 84.8594C198.693 95.7031 189.667 94.7708 189.667 94.7708C182 94.651 178.25 89.7188 177.536 83.6979C176.984 79.0677 180.063 72.2135 181.719 68.3021C182.276 66.9792 183.224 65.8438 184.484 65.1563C195.281 59.2708 209.396 67.5833 202.823 84.8594Z" fill="#F8B498"/>
<path d="M182.958 82.974L181.932 82.5521C181.589 82.3802 181.443 81.974 181.615 81.5886L182.677 79.875C182.755 79.7552 182.911 79.7188 183.036 79.7917C183.156 79.8698 183.198 80.0313 183.12 80.1511L182.078 81.8333C182.036 81.9271 182.073 82.0417 182.146 82.0781L183.156 82.4896C183.292 82.5417 183.354 82.6979 183.302 82.8281C183.26 82.9323 183.161 82.9896 183.057 82.9896C183.026 82.9948 182.99 82.9844 182.958 82.974Z" fill="black"/>
<path d="M189.995 79.099C189.995 79.3906 189.891 79.6406 189.682 79.849C189.474 80.0573 189.224 80.1615 188.932 80.1615C188.641 80.1615 188.391 80.0573 188.182 79.849C187.974 79.6406 187.875 79.3906 187.875 79.099C187.875 78.8073 187.974 78.5573 188.182 78.349C188.391 78.1406 188.641 78.0365 188.932 78.0365C189.224 78.0365 189.474 78.1406 189.682 78.349C189.891 78.5573 189.995 78.8073 189.995 79.099Z" fill="black"/>
<path d="M180.854 76.3698C180.318 76.276 179.807 76.6406 179.719 77.1771C179.63 77.7135 179.99 78.2187 180.526 78.3125C181.063 78.401 181.568 78.0417 181.661 77.5C181.75 76.9635 181.385 76.4583 180.854 76.3698Z" fill="black"/>
<path d="M181.458 85.2448C181.339 85.1615 181.302 85 181.385 84.8802C181.464 84.7604 181.625 84.7292 181.745 84.8073C181.771 84.8229 184.594 86.6354 187.411 84.9896C187.536 84.9219 187.693 84.9636 187.766 85.0886C187.839 85.2136 187.797 85.3698 187.672 85.4427C186.688 86.0156 185.714 86.2136 184.844 86.2136C182.964 86.2136 181.542 85.2969 181.458 85.2448Z" fill="black"/>
<path d="M181.177 70.7396C179.786 70.75 178.911 71.4427 178.479 71.9115C178.266 72.1458 178.214 72.4792 178.339 72.7656C178.495 73.125 178.885 73.3177 179.266 73.224C179.932 73.0625 180.656 73.0781 181.802 73.0833C183.302 73.0885 183.115 71.849 183.115 71.849C183.115 71.849 182.964 70.7188 181.177 70.7396Z" fill="black"/>
<path d="M190.979 72.3906C192.687 72.8958 194.26 74.4531 194.635 75.0521C194.823 75.3438 194.776 75.6823 194.526 75.9115C194.214 76.1927 193.672 76.2396 193.234 76.0156C192.469 75.625 190.844 74.7969 189.437 74.3958C187.583 73.8698 188.229 72.7604 188.229 72.7604C188.229 72.7604 188.786 71.7448 190.979 72.3906Z" fill="black"/>
<path d="M207.849 74.0886C185.198 71.5573 188.484 62.5365 188.484 62.5365C211.344 61.2969 207.849 74.0886 207.849 74.0886Z" fill="black"/>
<path d="M212.313 77.5365L200.193 84.7708L201.208 71.0104L212.313 77.5365Z" fill="black"/>
<path d="M206.156 81.4323C203.74 80.1146 200.708 81.0156 199.396 83.4375C198.083 85.8594 198.979 88.8906 201.401 90.2031C203.818 91.5208 206.844 90.625 208.161 88.1979C209.474 85.776 208.578 82.7448 206.156 81.4323Z" fill="#F8B498"/>
<path d="M201.776 86.5781C203.193 83.0573 206.276 84.8437 206.276 84.8437Z" fill="#F8B498"/>
<path d="M191.344 112.677C181.792 112.677 185.427 106.365 185.427 106.365L188.813 105.823L205.229 105.984C205.005 106.984 200.896 112.677 191.344 112.677Z" fill="#F8B498"/>
<path d="M198.266 149.13L185.953 150.828L186.177 156.99L198.531 159.536C198.531 159.536 198.318 151.25 198.266 149.13Z" fill="#F8B498"/>
<path d="M178.026 138.422C178.01 138.37 176.224 133.307 177.214 127.646C178.198 122.042 179.031 119.51 179.036 119.49C179.083 119.354 179.229 119.276 179.365 119.323C179.505 119.37 179.578 119.516 179.531 119.651C179.526 119.677 178.703 122.177 177.729 127.74C176.76 133.255 178.5 138.198 178.521 138.245C178.568 138.38 178.495 138.531 178.359 138.578C178.333 138.589 178.302 138.594 178.271 138.594C178.167 138.594 178.068 138.531 178.026 138.422Z" fill="black"/>
<path d="M182.792 137.057L183.781 135.109L185.906 136.146L184.964 138.099L182.792 137.057Z" fill="black"/>
<path d="M172.464 160.969L172.141 162.188C172.073 162.448 172.266 162.526 172.417 162.302L173.146 161.245C173.031 160.943 172.771 160.823 172.464 160.969Z" fill="black"/>
<path d="M182.875 136.87L183.964 137.396L185.052 137.911L175.885 157.469L175.833 157.573L175.818 157.563L173.078 161.385C172.958 161.104 172.693 160.984 172.401 161.104L173.495 156.609L173.464 156.594L173.531 156.458L182.875 136.87Z" fill="#007785"/>
<path d="M183.688 135.297L183.938 134.802C184.286 134.12 185.036 133.797 185.615 134.089C186.177 134.37 186.375 135.12 186.063 135.797L185.823 136.328L183.688 135.297Z" fill="#F8B498"/>
<path d="M167.01 160.339C167.516 160.531 168.073 160.427 168.469 160.073L171.953 156.953C173.563 155.51 176.115 154.5 178.177 155.552C178.813 155.875 179.328 156.411 179.906 156.828C181.37 157.891 183.135 157.781 184.823 157.396C186.01 157.12 187.151 156.63 188.172 155.969C188.484 155.766 188.781 155.547 189.068 155.313C189.115 155.276 189.37 155.104 189.37 155.042L189.557 150.63L176.661 150.432C174.26 150.396 171.99 151.422 170.422 153.245L166.385 157.938C165.708 158.724 166.036 159.969 167.01 160.339Z" fill="#F8B498"/>
<path d="M198.375 149.109C198.349 148.969 198.443 148.828 198.589 148.807L221.51 144.62L214.526 129.813C214.469 129.682 214.521 129.526 214.651 129.464C214.786 129.401 214.937 129.458 215 129.589L222.125 144.703C222.161 144.776 222.161 144.859 222.12 144.932C222.083 145.005 222.016 145.057 221.937 145.073L198.682 149.318C198.667 149.323 198.651 149.323 198.635 149.323C198.51 149.323 198.401 149.234 198.375 149.109Z" fill="black"/>
<path d="M122.823 116.115H180.193L193.708 158.286H136.396L122.823 116.115Z" fill="#007785"/>
<path d="M136.396 157.266H212.313V162.651H136.396V157.266Z" fill="#007785"/>
<path d="M159.234 142.125C159.234 142.625 159.141 143.104 158.948 143.563C158.76 144.026 158.49 144.432 158.135 144.786C157.786 145.135 157.38 145.406 156.917 145.599C156.458 145.792 155.979 145.885 155.484 145.885C154.984 145.885 154.505 145.792 154.047 145.599C153.589 145.406 153.182 145.135 152.828 144.786C152.479 144.432 152.208 144.026 152.016 143.563C151.823 143.104 151.729 142.625 151.729 142.125C151.729 141.63 151.823 141.151 152.016 140.688C152.208 140.229 152.479 139.823 152.828 139.469C153.182 139.115 153.589 138.844 154.047 138.656C154.505 138.464 154.984 138.37 155.484 138.37C155.979 138.37 156.458 138.464 156.917 138.656C157.38 138.844 157.786 139.115 158.135 139.469C158.49 139.823 158.76 140.229 158.948 140.688C159.141 141.151 159.234 141.63 159.234 142.125Z" fill="white"/>
<path d="M45.2292 72.9115L16.6614 111.099C10.3177 119.917 -3.70835 110.438 2.15624 101.245L18.9375 76.125L45.2292 72.9115Z" fill="#F8B498"/>
<path d="M35.8125 97.4844L10.2396 80.625C16.6146 70.75 32.7552 43.3802 43.3489 46.8698C72.151 58.1927 40.5573 89.6823 35.8125 97.4844Z" fill="#ADCF9F"/>
<path d="M91.9844 77.6667L104.568 74.7604C103.828 47.7656 85.5 46.5625 85.5 46.5625L91.9844 77.6667Z" fill="#ADCF9F"/>
<path d="M33.9739 64.0625L41.2552 116.932H86.4791C90.5677 99.0729 105.307 51.9948 87.8958 47.0521C72.5156 42.6823 61.1823 42.6771 40.6927 46.4531C34.2864 46.8437 35.8541 59.8125 33.9739 64.0625Z" fill="#ADCF9F"/>
<path d="M39.6875 94.6042L34.8073 73.9531C34.7812 73.8385 34.8541 73.7188 34.9739 73.6875C35.0937 73.6615 35.2083 73.7344 35.2396 73.8542L40.1146 94.5C40.1458 94.6198 40.0677 94.7396 39.9531 94.7656C39.9375 94.7708 39.9166 94.7708 39.901 94.7708C39.8021 94.7708 39.7135 94.7031 39.6875 94.6042Z" fill="black"/>
<path d="M92.4479 87.7083C92.3281 87.6875 92.2448 87.5781 92.2656 87.4583L95.1979 66.8125C95.2187 66.6927 95.3229 66.6042 95.4479 66.625C95.5677 66.6406 95.651 66.7552 95.6354 66.875L92.6979 87.5208C92.6823 87.6302 92.5885 87.7083 92.4792 87.7083C92.4687 87.7083 92.4635 87.7083 92.4479 87.7083Z" fill="black"/>
<path d="M61.9531 96.625L78.2656 97.1823L85.5 81.7813C66.8437 74.3177 59.7292 86.9375 59.7292 86.9375L61.9531 96.625Z" fill="#F8B498"/>
<path d="M62.7552 96.3385L12.5312 114.266L9.60413 95.5469L60.8645 86.7448L62.7552 96.3385Z" fill="#F8B498"/>
<path d="M15.1927 94.5886C15.1719 94.4688 15.25 94.3542 15.3698 94.3333L27.6198 92.2292C27.75 92.2083 27.8594 92.2917 27.875 92.4115C27.8958 92.5313 27.8177 92.6406 27.6979 92.6667L15.4427 94.7656C15.4323 94.7708 15.4219 94.7708 15.4062 94.7708C15.3021 94.7708 15.2083 94.6979 15.1927 94.5886Z" fill="black"/>
<path d="M132.714 73.6615C117.562 68.5156 80.526 74.7604 80.526 74.7604L59.8854 123.297L63.2864 127.078L132.714 73.6615Z" fill="white"/>
<path d="M110.755 115.995C107.641 122.042 99.0938 122.078 99.0938 122.078L122.771 75.0156L132.714 73.6615L110.755 115.995Z" fill="black"/>
<path d="M100.687 121.859L63.2864 127.078L83.4219 78.4271L124.661 74.7604L100.687 121.859Z" fill="#007785"/>
<path d="M100.687 121.859L63.2864 127.078L83.4219 78.4271L124.661 74.7604L100.687 121.859Z" fill="black" fill-opacity="0.4588"/>
<path d="M113.885 72.5052L123.104 51.2969H127.859L132.714 73.6615L113.885 72.5052Z" fill="white"/>
<path d="M116.37 105.078L106.182 97.625C105.583 97.1875 105.396 96.3698 105.745 95.7135C106.12 95.0052 106.99 94.7188 107.714 95.0625L115.266 98.6719L106.411 92.2188C105.859 91.8177 105.682 91.0729 105.984 90.4635C106.328 89.7656 107.182 89.4844 107.875 89.8438L116.573 94.3594L106.896 86.7708C106.229 86.25 106.057 85.3125 106.49 84.5885C106.979 83.7708 108.052 83.526 108.849 84.0521L119.286 90.9323L112.38 84.2865C111.875 83.7969 111.87 82.9896 112.375 82.5C112.802 82.0885 113.464 82.0365 113.948 82.375L125.589 90.5781C125.589 90.5781 130.094 94.349 125.448 101.448C120.797 108.547 115.312 107.208 115.312 107.208L116.37 105.078Z" fill="#F8B498"/>
<path d="M86.3646 19.7188C96.9167 9.56251 85.526 5.40105 85.526 5.40105L86.3646 19.7188Z" fill="black"/>
<path d="M65.3333 22.0625L58.8438 47.6042L74.0156 48.1042L76.4688 34.0573L65.3333 22.0625Z" fill="#F8B498"/>
<path d="M76.2083 35.625L64.4375 29.5729C64.0937 39.0938 74.9687 42.6198 74.9687 42.6198L76.2083 35.625Z" fill="black"/>
<path d="M61.4323 21.0677C60.9583 34.6667 68.8489 36.4375 68.8489 36.4375C75.7448 39.5781 81.0416 37.1406 84.1875 32.0104C86.6614 27.9792 87.2396 18.026 87.375 13.9531C87.4166 12.7292 86.3229 9.11458 85.6302 8.11458C78.5521 -2.11459 62.1406 0.796871 61.4323 21.0677Z" fill="#F8B498"/>
<path d="M83.3802 23.5052C83.9219 23.4948 84.3698 23.9219 84.3854 24.4635C84.3958 25.0052 83.9688 25.4583 83.4271 25.4687C82.8854 25.4792 82.4375 25.0521 82.4219 24.5104C82.4115 23.9687 82.8385 23.5208 83.3802 23.5052Z" fill="black"/>
<path d="M74.8906 21.6771C75.4323 21.6667 75.8802 22.0937 75.8958 22.6354C75.9062 23.1771 75.4792 23.6302 74.9375 23.6406C74.3958 23.651 73.9479 23.224 73.9323 22.6823C73.9219 22.1406 74.349 21.6927 74.8906 21.6771Z" fill="black"/>
<path d="M78.5 28.3281C78.4948 28.1719 78.6146 28.0417 78.776 28.0365L80.0989 28L79.8489 24.8229C79.8385 24.6667 79.9531 24.5313 80.1094 24.5208C80.2656 24.4948 80.401 24.625 80.4166 24.7813L80.6875 28.2552C80.6927 28.3281 80.6666 28.4063 80.6146 28.4635C80.5677 28.5208 80.4896 28.5573 80.4166 28.5573L78.7864 28.6042H78.7812C78.625 28.6042 78.5 28.4844 78.5 28.3281Z" fill="black"/>
<path d="M76.75 15.849C73.9479 15.2135 72.1875 16.0312 71.0729 16.5937C70.526 16.8698 70.1875 17.4219 70.3541 18.0104C70.526 18.6302 71.1562 18.974 71.776 18.8229C73.4427 18.4219 75.2083 18.4427 76.4114 18.5365C77.2083 18.5937 77.8854 17.9531 77.8646 17.1562C77.8489 16.5052 77.375 15.9896 76.75 15.849Z" fill="black"/>
<path d="M83.1146 17.2917C84.9948 17.5469 85.8437 18.849 86.3698 19.7188C86.625 20.1458 86.6771 20.7708 86.4167 21.2708C86.1406 21.7969 85.6614 21.9323 85.3229 21.599C84.4219 20.7135 83.3385 20.1979 82.5781 19.9167C82.0781 19.7292 81.8437 18.9219 82.0729 18.1771C82.2604 17.5781 82.6927 17.2344 83.1146 17.2917Z" fill="black"/>
<path d="M57.9687 11.9219C58.6406 8.29688 60.7344 5.04168 64.2396 3.02605C68.7396 0.447926 74.5833 -0.166658 79.8073 0.453134C84.1771 0.973967 87.875 3.14063 88.9635 7.10418C90.5885 13.0104 85.4219 14.8646 82.8177 14.7292C81.5156 14.6615 80.2812 14.2396 79.1562 13.6458C75.1146 11.5104 69.2031 10.5469 69.2031 10.5469C68.375 19.8438 61.3542 24.2708 61.3542 24.2708C61.3542 24.2708 57.1614 16.2917 57.9687 11.9219Z" fill="black"/>
<path d="M60.7708 15.7969C63.4114 15.6354 65.6771 17.6511 65.8333 20.2917C65.9948 22.9375 63.9844 25.2083 61.3437 25.3646C58.7031 25.5208 56.4375 23.5104 56.2812 20.8646C56.1198 18.224 58.1302 15.9531 60.7708 15.7969Z" fill="#F8B498"/>
<path d="M62.6562 22.526C62.6562 21.3802 62.3333 20.4896 61.7031 19.8854C60.7239 18.9531 59.3021 19 59.2969 19C59.1562 19.0104 59.0052 18.8854 59 18.7292C58.9948 18.5729 59.1146 18.4375 59.2708 18.4323C59.3333 18.4271 60.9375 18.3698 62.0885 19.4739C62.8385 20.1875 63.2187 21.2135 63.2239 22.526C63.2239 22.6823 63.0989 22.8125 62.9427 22.8125C62.7864 22.8125 62.6614 22.6875 62.6562 22.526Z" fill="black"/>
<path d="M81.6406 46.4844C81.6406 46.4844 77.7604 55.6563 67.6563 55.2031C57.5469 54.75 53.6562 44.4427 53.6562 44.4427C69.2448 41.8802 81.6406 46.4844 81.6406 46.4844Z" fill="#F8B498"/>
<path d="M73.6875 30.7031C73.6094 30.5677 73.6562 30.3958 73.7916 30.3177C73.9271 30.2344 74.0989 30.2813 74.1771 30.4167C75.6458 32.9271 79.4791 31.9479 79.5208 31.9375C79.6614 31.8958 79.8229 31.9896 79.8646 32.1406C79.9062 32.2917 79.8177 32.4479 79.6666 32.4844C79.5885 32.5052 78.7864 32.7135 77.7604 32.7135C76.401 32.7135 74.651 32.349 73.6875 30.7031Z" fill="black"/>
<path d="M59.8854 43.4948L68.0416 52.1615L74.6979 44.1875L82.5156 45.2865L77.8646 63.0677L68.125 56.1458L57.8646 61.224L52.1458 44.6302L59.8854 43.4948Z" fill="white"/>
<path d="M68.125 80.5365C68 80.5365 67.901 80.4375 67.901 80.3125V56.6458C67.901 56.5208 68 56.4219 68.125 56.4219C68.2448 56.4219 68.3489 56.5208 68.3489 56.6458V80.3125C68.3489 80.4375 68.2448 80.5365 68.125 80.5365Z" fill="black"/>
<path d="M182.151 85.8906C182.437 86.3021 182.901 86.474 183.349 86.5729C184.339 86.7917 185.417 86.7188 186.276 86.1146C186.469 85.974 186.667 85.7865 186.698 85.526C186.729 85.2708 186.589 85.0208 186.396 84.8854C186.208 84.75 185.979 84.7083 185.76 84.6823C184.839 84.5833 183.917 84.7552 182.995 84.6979C182.687 84.6771 182.276 84.4635 182.057 84.75C181.839 85.0417 181.969 85.625 182.151 85.8906Z" fill="#FF3E4D" fill-opacity="0.5569"/>
</svg>
