<svg xmlns="http://www.w3.org/2000/svg" xmlns:xlink="http://www.w3.org/1999/xlink" width="800" zoomAndPan="magnify" viewBox="0 0 600 337.499995" height="450" preserveAspectRatio="xMidYMid meet" version="1.0"><defs><clipPath id="5001b59614"><path d="M 0.445312 0 L 599.554688 0 L 599.554688 337 L 0.445312 337 Z M 0.445312 0 " clip-rule="nonzero"/></clipPath><clipPath id="11560c96de"><path d="M 247.5625 0 L 599.554688 0 L 599.554688 151 L 247.5625 151 Z M 247.5625 0 " clip-rule="nonzero"/></clipPath><clipPath id="55abba42e7"><path d="M 587 72 L 599.554688 72 L 599.554688 86 L 587 86 Z M 587 72 " clip-rule="nonzero"/></clipPath><clipPath id="5527c4d81a"><path d="M 587 81 L 599.554688 81 L 599.554688 94 L 587 94 Z M 587 81 " clip-rule="nonzero"/></clipPath><clipPath id="5395ebaba0"><path d="M 467 217.273438 L 474 217.273438 L 474 224.105469 L 467 224.105469 Z M 467 217.273438 " clip-rule="nonzero"/></clipPath><clipPath id="e42576d824"><path d="M 596 179 L 599.554688 179 L 599.554688 181 L 596 181 Z M 596 179 " clip-rule="nonzero"/></clipPath><clipPath id="511f292e65"><path d="M 596 180 L 599.554688 180 L 599.554688 182 L 596 182 Z M 596 180 " clip-rule="nonzero"/></clipPath><clipPath id="c3293e9c55"><path d="M 596 182 L 599.554688 182 L 599.554688 184 L 596 184 Z M 596 182 " clip-rule="nonzero"/></clipPath><clipPath id="547619abea"><path d="M 177.34375 251 L 422.980469 251 L 422.980469 255.175781 L 177.34375 255.175781 Z M 177.34375 251 " clip-rule="nonzero"/></clipPath><clipPath id="85be25811e"><path d="M 177.34375 198 L 257 198 L 257 243 L 177.34375 243 Z M 177.34375 198 " clip-rule="nonzero"/></clipPath><clipPath id="eee8199716"><path d="M 409 156 L 422.980469 156 L 422.980469 201 L 409 201 Z M 409 156 " clip-rule="nonzero"/></clipPath><clipPath id="58f212d1bf"><path d="M 201 82.179688 L 400 82.179688 L 400 85 L 201 85 Z M 201 82.179688 " clip-rule="nonzero"/></clipPath></defs><g clip-path="url(#5001b59614)"><path fill="#ffffff" d="M 0.445312 0 L 599.554688 0 L 599.554688 344.488281 L 0.445312 344.488281 Z M 0.445312 0 " fill-opacity="1" fill-rule="nonzero"/><path fill="#ffffff" d="M 0.445312 0 L 599.554688 0 L 599.554688 337 L 0.445312 337 Z M 0.445312 0 " fill-opacity="1" fill-rule="nonzero"/><path fill="#ced89e" d="M 0.445312 0 L 599.554688 0 L 599.554688 337 L 0.445312 337 Z M 0.445312 0 " fill-opacity="1" fill-rule="nonzero"/></g><g clip-path="url(#11560c96de)"><path fill="#e2e2e2" d="M 357.378906 150.871094 L 247.800781 73.636719 L 248.285156 73.28125 L 324.476562 16.914062 L 292.480469 -28.902344 L 293.199219 -29.402344 L 325.675781 17.109375 L 249.285156 73.621094 L 357.21875 149.691406 L 466.410156 16.386719 L 466.746094 16.683594 L 559.429688 97.421875 L 622.964844 34.339844 L 623.578125 34.960938 L 559.46875 98.613281 L 559.164062 98.347656 L 466.511719 17.636719 L 357.378906 150.871094 " fill-opacity="1" fill-rule="nonzero"/></g><path fill="#e2e2e2" d="M 362.320312 150.117188 C 362.320312 153.238281 359.789062 155.769531 356.667969 155.769531 C 353.542969 155.769531 351.007812 153.238281 351.007812 150.117188 C 351.007812 146.992188 353.542969 144.460938 356.667969 144.460938 C 359.789062 144.460938 362.320312 146.992188 362.320312 150.117188 " fill-opacity="1" fill-rule="nonzero"/><path fill="#e2e2e2" d="M 356.667969 139.914062 C 351.039062 139.914062 346.460938 144.492188 346.460938 150.117188 C 346.460938 155.742188 351.039062 160.316406 356.667969 160.316406 C 362.292969 160.316406 366.867188 155.742188 366.867188 150.117188 C 366.867188 144.492188 362.292969 139.914062 356.667969 139.914062 Z M 356.667969 160.976562 C 350.675781 160.976562 345.800781 156.105469 345.800781 150.117188 C 345.800781 144.125 350.675781 139.253906 356.667969 139.253906 C 362.65625 139.253906 367.53125 144.125 367.53125 150.117188 C 367.53125 156.105469 362.65625 160.976562 356.667969 160.976562 " fill-opacity="1" fill-rule="nonzero"/><path fill="#e2e2e2" d="M 330.085938 17.300781 C 330.085938 20.425781 327.550781 22.953125 324.425781 22.953125 C 321.304688 22.953125 318.773438 20.425781 318.773438 17.300781 C 318.773438 14.179688 321.304688 11.648438 324.425781 11.648438 C 327.550781 11.648438 330.085938 14.179688 330.085938 17.300781 " fill-opacity="1" fill-rule="nonzero"/><path fill="#e2e2e2" d="M 324.425781 7.101562 C 318.804688 7.101562 314.226562 11.675781 314.226562 17.300781 C 314.226562 22.925781 318.804688 27.503906 324.425781 27.503906 C 330.054688 27.503906 334.632812 22.925781 334.632812 17.300781 C 334.632812 11.675781 330.054688 7.101562 324.425781 7.101562 Z M 324.425781 28.164062 C 318.4375 28.164062 313.5625 23.292969 313.5625 17.300781 C 313.5625 11.3125 318.4375 6.441406 324.425781 6.441406 C 330.417969 6.441406 335.292969 11.3125 335.292969 17.300781 C 335.292969 23.292969 330.417969 28.164062 324.425781 28.164062 " fill-opacity="1" fill-rule="nonzero"/><path fill="#e2e2e2" d="M 254.199219 73.917969 C 254.199219 77.042969 251.667969 79.574219 248.542969 79.574219 C 245.421875 79.574219 242.886719 77.042969 242.886719 73.917969 C 242.886719 70.796875 245.421875 68.265625 248.542969 68.265625 C 251.667969 68.265625 254.199219 70.796875 254.199219 73.917969 " fill-opacity="1" fill-rule="nonzero"/><path fill="#e2e2e2" d="M 248.542969 63.71875 C 242.917969 63.71875 238.339844 68.296875 238.339844 73.917969 C 238.339844 79.542969 242.917969 84.121094 248.542969 84.121094 C 254.171875 84.121094 258.746094 79.542969 258.746094 73.917969 C 258.746094 68.296875 254.171875 63.71875 248.542969 63.71875 Z M 248.542969 84.78125 C 242.554688 84.78125 237.679688 79.910156 237.679688 73.917969 C 237.679688 67.929688 242.554688 63.058594 248.542969 63.058594 C 254.535156 63.058594 259.40625 67.929688 259.40625 73.917969 C 259.40625 79.910156 254.535156 84.78125 248.542969 84.78125 " fill-opacity="1" fill-rule="nonzero"/><path fill="#e2e2e2" d="M 472.015625 17.300781 C 472.015625 20.425781 469.484375 22.953125 466.363281 22.953125 C 463.238281 22.953125 460.707031 20.425781 460.707031 17.300781 C 460.707031 14.179688 463.238281 11.648438 466.363281 11.648438 C 469.484375 11.648438 472.015625 14.179688 472.015625 17.300781 " fill-opacity="1" fill-rule="nonzero"/><path fill="#e2e2e2" d="M 466.363281 7.101562 C 460.738281 7.101562 456.15625 11.675781 456.15625 17.300781 C 456.15625 22.925781 460.738281 27.503906 466.363281 27.503906 C 471.988281 27.503906 476.5625 22.925781 476.5625 17.300781 C 476.5625 11.675781 471.988281 7.101562 466.363281 7.101562 Z M 466.363281 28.164062 C 460.371094 28.164062 455.496094 23.292969 455.496094 17.300781 C 455.496094 11.3125 460.371094 6.441406 466.363281 6.441406 C 472.355469 6.441406 477.226562 11.3125 477.226562 17.300781 C 477.226562 23.292969 472.355469 28.164062 466.363281 28.164062 " fill-opacity="1" fill-rule="nonzero"/><path fill="#e2e2e2" d="M 565.242188 97.726562 C 565.242188 100.851562 562.710938 103.382812 559.589844 103.382812 C 556.464844 103.382812 553.933594 100.851562 553.933594 97.726562 C 553.933594 94.605469 556.464844 92.074219 559.589844 92.074219 C 562.710938 92.074219 565.242188 94.605469 565.242188 97.726562 " fill-opacity="1" fill-rule="nonzero"/><path fill="#e2e2e2" d="M 559.589844 87.527344 C 553.964844 87.527344 549.382812 92.105469 549.382812 97.726562 C 549.382812 103.351562 553.964844 107.929688 559.589844 107.929688 C 565.214844 107.929688 569.792969 103.351562 569.792969 97.726562 C 569.792969 92.105469 565.214844 87.527344 559.589844 87.527344 Z M 559.589844 108.589844 C 553.597656 108.589844 548.722656 103.71875 548.722656 97.726562 C 548.722656 91.738281 553.597656 86.867188 559.589844 86.867188 C 565.582031 86.867188 570.453125 91.738281 570.453125 97.726562 C 570.453125 103.71875 565.582031 108.589844 559.589844 108.589844 " fill-opacity="1" fill-rule="nonzero"/><path fill="#e2e2e2" d="M 429.964844 53.535156 L 429.289062 52.984375 L 430.667969 51.296875 L 431.34375 51.851562 L 429.964844 53.535156 " fill-opacity="1" fill-rule="nonzero"/><path fill="#e2e2e2" d="M 424.359375 60.375 L 423.6875 59.824219 L 426.488281 56.402344 L 427.164062 56.953125 Z M 418.757812 67.214844 L 418.085938 66.660156 L 420.886719 63.242188 L 421.558594 63.796875 Z M 413.15625 74.054688 L 412.484375 73.503906 L 415.285156 70.082031 L 415.957031 70.636719 Z M 407.550781 80.894531 L 406.878906 80.34375 L 409.679688 76.925781 L 410.355469 77.476562 Z M 401.949219 87.734375 L 401.277344 87.183594 L 404.078125 83.765625 L 404.75 84.316406 Z M 396.347656 94.578125 L 395.675781 94.023438 L 398.476562 90.605469 L 399.148438 91.15625 Z M 390.742188 101.417969 L 390.070312 100.867188 L 392.871094 97.445312 L 393.546875 98 Z M 385.140625 108.257812 L 384.46875 107.707031 L 387.269531 104.285156 L 387.941406 104.835938 L 385.140625 108.257812 " fill-opacity="1" fill-rule="nonzero"/><path fill="#e2e2e2" d="M 380.960938 113.363281 L 380.285156 112.808594 L 381.667969 111.125 L 382.339844 111.675781 L 380.960938 113.363281 " fill-opacity="1" fill-rule="nonzero"/><path fill="#e2e2e2" d="M 280.328125 43.242188 L 279.808594 42.542969 L 283.308594 39.945312 L 283.828125 40.648438 Z M 273.332031 48.429688 L 272.8125 47.734375 L 276.3125 45.136719 L 276.828125 45.835938 Z M 266.332031 53.621094 L 265.816406 52.921875 L 269.3125 50.328125 L 269.832031 51.023438 Z M 259.335938 58.8125 L 258.816406 58.109375 L 262.316406 55.515625 L 262.835938 56.21875 L 259.335938 58.8125 " fill-opacity="1" fill-rule="nonzero"/><path fill="#e2e2e2" d="M 457.003906 -4.601562 L 456.660156 -5.40625 C 459.386719 -6.574219 462.277344 -7.230469 465.257812 -7.359375 L 465.296875 -6.488281 C 462.421875 -6.363281 459.632812 -5.726562 457.003906 -4.601562 Z M 481.222656 -1.3125 C 478.972656 -3.109375 476.453125 -4.46875 473.730469 -5.351562 L 474 -6.179688 C 476.820312 -5.265625 479.433594 -3.855469 481.765625 -1.992188 Z M 444.898438 6.964844 L 444.113281 6.585938 C 445.402344 3.914062 447.148438 1.515625 449.304688 -0.542969 L 449.90625 0.0820312 C 447.824219 2.074219 446.144531 4.386719 444.898438 6.964844 Z M 489.804688 13.054688 C 489.296875 10.234375 488.292969 7.558594 486.816406 5.09375 L 487.566406 4.644531 C 489.097656 7.199219 490.136719 9.976562 490.664062 12.902344 Z M 442.554688 23.867188 C 441.964844 21.738281 441.671875 19.53125 441.671875 17.300781 C 441.671875 16.5625 441.703125 15.816406 441.769531 15.085938 L 442.636719 15.164062 C 442.574219 15.867188 442.542969 16.585938 442.542969 17.300781 C 442.542969 19.453125 442.828125 21.582031 443.394531 23.632812 Z M 489.484375 25.980469 L 488.671875 25.675781 C 489.675781 23 490.183594 20.183594 490.183594 17.300781 L 491.054688 17.300781 C 491.054688 20.289062 490.527344 23.207031 489.484375 25.980469 Z M 452.753906 37.90625 C 450.277344 36.265625 448.128906 34.214844 446.382812 31.8125 L 447.085938 31.296875 C 448.773438 33.617188 450.84375 35.59375 453.234375 37.179688 Z M 478.0625 39.046875 L 477.648438 38.28125 C 480.171875 36.921875 482.410156 35.136719 484.296875 32.972656 L 484.953125 33.546875 C 482.996094 35.789062 480.675781 37.640625 478.0625 39.046875 Z M 466.363281 41.988281 C 464.507812 41.988281 462.65625 41.78125 460.867188 41.375 L 461.058594 40.523438 C 463.824219 41.152344 466.757812 41.28125 469.558594 40.902344 L 469.671875 41.765625 C 468.585938 41.914062 467.472656 41.988281 466.363281 41.988281 " fill-opacity="1" fill-rule="nonzero"/><path fill="#e2e2e2" d="M 347.308594 128.207031 L 346.960938 127.410156 C 349.6875 126.242188 352.582031 125.582031 355.5625 125.453125 L 355.601562 126.320312 C 352.726562 126.449219 349.933594 127.082031 347.308594 128.207031 Z M 371.523438 131.496094 C 369.277344 129.703125 366.757812 128.347656 364.035156 127.460938 L 364.304688 126.632812 C 367.125 127.550781 369.734375 128.957031 372.066406 130.820312 Z M 335.203125 139.777344 L 334.417969 139.398438 C 335.703125 136.726562 337.449219 134.328125 339.605469 132.269531 L 340.210938 132.898438 C 338.128906 134.882812 336.445312 137.199219 335.203125 139.777344 Z M 380.109375 145.867188 C 379.601562 143.046875 378.597656 140.367188 377.121094 137.90625 L 377.871094 137.457031 C 379.398438 140.015625 380.441406 142.789062 380.96875 145.714844 Z M 332.855469 156.679688 C 332.269531 154.550781 331.972656 152.339844 331.972656 150.117188 C 331.972656 149.375 332.007812 148.628906 332.070312 147.898438 L 332.9375 147.976562 C 332.875 148.679688 332.84375 149.398438 332.84375 150.117188 C 332.84375 152.265625 333.128906 154.394531 333.695312 156.449219 Z M 379.789062 158.792969 L 378.972656 158.488281 C 379.976562 155.816406 380.488281 152.996094 380.488281 150.117188 L 381.359375 150.117188 C 381.359375 153.101562 380.828125 156.023438 379.789062 158.792969 Z M 343.058594 170.71875 C 340.582031 169.078125 338.433594 167.03125 336.6875 164.621094 L 337.390625 164.109375 C 339.078125 166.429688 341.148438 168.410156 343.539062 169.992188 Z M 368.367188 171.859375 L 367.953125 171.09375 C 370.476562 169.734375 372.714844 167.949219 374.601562 165.789062 L 375.257812 166.363281 C 373.300781 168.601562 370.980469 170.449219 368.367188 171.859375 Z M 356.667969 174.800781 C 354.8125 174.800781 352.960938 174.59375 351.167969 174.1875 L 351.359375 173.339844 C 354.125 173.964844 357.058594 174.09375 359.863281 173.71875 L 359.976562 174.582031 C 358.890625 174.726562 357.773438 174.800781 356.667969 174.800781 " fill-opacity="1" fill-rule="nonzero"/><path fill="#e2e2e2" d="M 506.769531 60.1875 L 503.484375 57.332031 L 504.050781 56.675781 L 507.34375 59.53125 Z M 513.347656 65.898438 L 510.0625 63.042969 L 510.628906 62.386719 L 513.921875 65.246094 Z M 519.925781 71.609375 L 516.636719 68.753906 L 517.210938 68.097656 L 520.5 70.953125 Z M 526.507812 77.324219 L 523.214844 74.46875 L 523.785156 73.808594 L 527.078125 76.664062 Z M 533.082031 83.035156 L 529.792969 80.179688 L 530.363281 79.519531 L 533.652344 82.378906 Z M 537.851562 87.175781 L 536.371094 85.890625 L 536.941406 85.234375 L 538.421875 86.519531 L 537.851562 87.175781 " fill-opacity="1" fill-rule="nonzero"/><g clip-path="url(#55abba42e7)"><path fill="#e2e2e2" d="M 589.109375 85.207031 L 587.875 83.976562 L 599.164062 72.6875 L 610.238281 83.757812 L 609.003906 84.988281 L 599.164062 75.152344 L 589.109375 85.207031 " fill-opacity="1" fill-rule="nonzero"/></g><g clip-path="url(#5527c4d81a)"><path fill="#e2e2e2" d="M 589.109375 93.617188 L 587.875 92.386719 L 599.164062 81.097656 L 610.238281 92.167969 L 609.003906 93.402344 L 599.164062 83.5625 L 589.109375 93.617188 " fill-opacity="1" fill-rule="nonzero"/></g><path fill="#e2e2e2" d="M 282.1875 4.210938 L 280.953125 2.980469 L 292.242188 -8.304688 L 303.316406 2.761719 L 302.082031 3.996094 L 292.242188 -5.839844 L 282.1875 4.210938 " fill-opacity="1" fill-rule="nonzero"/><path fill="#e2e2e2" d="M 282.1875 12.625 L 280.953125 11.390625 L 292.242188 0.105469 L 303.316406 11.175781 L 302.082031 12.40625 L 292.242188 2.566406 L 282.1875 12.625 " fill-opacity="1" fill-rule="nonzero"/><path fill="#e2e2e2" d="M 282.1875 21.03125 L 280.953125 19.800781 L 292.242188 8.515625 L 303.316406 19.582031 L 302.082031 20.816406 L 292.242188 10.980469 L 282.1875 21.03125 " fill-opacity="1" fill-rule="nonzero"/><path fill="#e2e2e2" d="M 524.714844 33.414062 L 523.484375 32.183594 L 534.773438 20.894531 L 545.84375 31.964844 L 544.613281 33.199219 L 534.773438 23.359375 L 524.714844 33.414062 " fill-opacity="1" fill-rule="nonzero"/><path fill="#e2e2e2" d="M 455.371094 76.285156 L 449.835938 70.75 L 450.453125 70.136719 L 455.371094 75.050781 L 460.398438 70.027344 L 461.015625 70.640625 L 455.371094 76.285156 " fill-opacity="1" fill-rule="nonzero"/><path fill="#e2e2e2" d="M 455.371094 66.558594 L 449.835938 61.023438 L 450.453125 60.40625 L 455.371094 65.328125 L 460.398438 60.296875 L 461.015625 60.914062 L 455.371094 66.558594 " fill-opacity="1" fill-rule="nonzero"/><path fill="#e2e2e2" d="M 455.371094 61.691406 L 449.835938 56.160156 L 450.453125 55.546875 L 455.371094 60.460938 L 460.398438 55.4375 L 461.015625 56.050781 L 455.371094 61.691406 " fill-opacity="1" fill-rule="nonzero"/><path fill="#e2e2e2" d="M 455.371094 86.011719 L 449.835938 80.476562 L 450.453125 79.863281 L 455.371094 84.78125 L 460.398438 79.753906 L 461.015625 80.367188 L 455.371094 86.011719 " fill-opacity="1" fill-rule="nonzero"/><path fill="#e2e2e2" d="M 455.371094 81.148438 L 449.835938 75.613281 L 450.453125 74.996094 L 455.371094 79.917969 L 460.398438 74.886719 L 461.015625 75.503906 L 455.371094 81.148438 " fill-opacity="1" fill-rule="nonzero"/><path fill="#e2e2e2" d="M 455.371094 71.421875 L 449.835938 65.886719 L 450.453125 65.273438 L 455.371094 70.191406 L 460.398438 65.164062 L 461.015625 65.777344 L 455.371094 71.421875 " fill-opacity="1" fill-rule="nonzero"/><path fill="#e2e2e2" d="M 283.835938 142.6875 L 278.300781 137.152344 L 278.917969 136.535156 L 283.835938 141.457031 L 288.867188 136.429688 L 289.480469 137.042969 L 283.835938 142.6875 " fill-opacity="1" fill-rule="nonzero"/><path fill="#e2e2e2" d="M 283.835938 132.957031 L 278.300781 127.421875 L 278.917969 126.808594 L 283.835938 131.726562 L 288.867188 126.703125 L 289.480469 127.316406 L 283.835938 132.957031 " fill-opacity="1" fill-rule="nonzero"/><path fill="#e2e2e2" d="M 283.835938 128.097656 L 278.300781 122.5625 L 278.917969 121.945312 L 283.835938 126.863281 L 288.867188 121.835938 L 289.480469 122.453125 L 283.835938 128.097656 " fill-opacity="1" fill-rule="nonzero"/><path fill="#e2e2e2" d="M 283.835938 152.414062 L 278.300781 146.878906 L 278.917969 146.261719 L 283.835938 151.183594 L 288.867188 146.152344 L 289.480469 146.769531 L 283.835938 152.414062 " fill-opacity="1" fill-rule="nonzero"/><path fill="#e2e2e2" d="M 283.835938 147.546875 L 278.300781 142.015625 L 278.917969 141.402344 L 283.835938 146.316406 L 288.867188 141.292969 L 289.480469 141.90625 L 283.835938 147.546875 " fill-opacity="1" fill-rule="nonzero"/><path fill="#e2e2e2" d="M 283.835938 137.824219 L 278.300781 132.289062 L 278.917969 131.671875 L 283.835938 136.589844 L 288.867188 131.5625 L 289.480469 132.179688 L 283.835938 137.824219 " fill-opacity="1" fill-rule="nonzero"/><path fill="#e2e2e2" d="M 382.894531 56.511719 L 373.292969 56.511719 L 373.292969 55.640625 L 382.894531 55.640625 L 382.894531 56.511719 " fill-opacity="1" fill-rule="nonzero"/><path fill="#e2e2e2" d="M 378.527344 60.875 L 377.65625 60.875 L 377.65625 51.273438 L 378.527344 51.273438 L 378.527344 60.875 " fill-opacity="1" fill-rule="nonzero"/><path fill="#e2e2e2" d="M 585.300781 124.066406 L 575.695312 124.066406 L 575.695312 123.195312 L 585.300781 123.195312 L 585.300781 124.066406 " fill-opacity="1" fill-rule="nonzero"/><path fill="#e2e2e2" d="M 580.933594 128.433594 L 580.0625 128.433594 L 580.0625 118.832031 L 580.933594 118.832031 L 580.933594 128.433594 " fill-opacity="1" fill-rule="nonzero"/><path fill="#e2e2e2" d="M 339.761719 98.011719 L 330.164062 98.011719 L 330.164062 97.140625 L 339.761719 97.140625 L 339.761719 98.011719 " fill-opacity="1" fill-rule="nonzero"/><path fill="#e2e2e2" d="M 335.398438 102.371094 L 334.527344 102.371094 L 334.527344 92.773438 L 335.398438 92.773438 L 335.398438 102.371094 " fill-opacity="1" fill-rule="nonzero"/><path fill="#e2e2e2" d="M 558.734375 168.21875 L 549.132812 168.21875 L 549.132812 167.34375 L 558.734375 167.34375 L 558.734375 168.21875 " fill-opacity="1" fill-rule="nonzero"/><path fill="#e2e2e2" d="M 554.367188 172.578125 L 553.496094 172.578125 L 553.496094 162.980469 L 554.367188 162.980469 L 554.367188 172.578125 " fill-opacity="1" fill-rule="nonzero"/><path fill="#e2e2e2" d="M 329.230469 205.59375 L 319.625 205.59375 L 319.625 204.722656 L 329.230469 204.722656 L 329.230469 205.59375 " fill-opacity="1" fill-rule="nonzero"/><path fill="#e2e2e2" d="M 324.863281 209.957031 L 323.992188 209.957031 L 323.992188 200.359375 L 324.863281 200.359375 L 324.863281 209.957031 " fill-opacity="1" fill-rule="nonzero"/><path fill="#e2e2e2" d="M 268.679688 119.269531 L 259.078125 119.269531 L 259.078125 118.398438 L 268.679688 118.398438 L 268.679688 119.269531 " fill-opacity="1" fill-rule="nonzero"/><path fill="#e2e2e2" d="M 264.316406 123.632812 L 263.441406 123.632812 L 263.441406 114.03125 L 264.316406 114.03125 L 264.316406 123.632812 " fill-opacity="1" fill-rule="nonzero"/><path fill="#e2e2e2" d="M 512.265625 1.773438 L 502.664062 1.773438 L 502.664062 0.898438 L 512.265625 0.898438 L 512.265625 1.773438 " fill-opacity="1" fill-rule="nonzero"/><path fill="#e2e2e2" d="M 507.902344 6.136719 L 507.027344 6.136719 L 507.027344 -3.460938 L 507.902344 -3.460938 L 507.902344 6.136719 " fill-opacity="1" fill-rule="nonzero"/><path fill="#e2e2e2" d="M 570.046875 56.511719 L 560.441406 56.511719 L 560.441406 55.640625 L 570.046875 55.640625 L 570.046875 56.511719 " fill-opacity="1" fill-rule="nonzero"/><path fill="#e2e2e2" d="M 565.679688 60.875 L 564.808594 60.875 L 564.808594 51.273438 L 565.679688 51.273438 L 565.679688 60.875 " fill-opacity="1" fill-rule="nonzero"/><path fill="#e2e2e2" d="M 490.449219 173.21875 L 489.578125 173.21875 L 489.578125 113.613281 L 479.726562 103.765625 L 479.726562 63.390625 L 480.601562 63.390625 L 480.601562 103.402344 L 490.449219 113.25 L 490.449219 173.21875 " fill-opacity="1" fill-rule="nonzero"/><path fill="#e2e2e2" d="M 490.320312 108.496094 L 482.632812 100.8125 L 482.632812 71.925781 L 483.503906 71.925781 L 483.503906 100.453125 L 489.445312 106.390625 L 489.445312 87.667969 L 490.320312 87.667969 L 490.320312 108.496094 " fill-opacity="1" fill-rule="nonzero"/><path fill="#e2e2e2" d="M 470.988281 218.222656 L 470.117188 218.222656 L 470.117188 152.394531 L 470.246094 152.269531 L 485.484375 137.035156 L 485.484375 114.851562 L 479.855469 109.222656 L 480.46875 108.609375 L 486.355469 114.488281 L 486.355469 137.394531 L 470.988281 152.757812 L 470.988281 218.222656 " fill-opacity="1" fill-rule="nonzero"/><path fill="#e2e2e2" d="M 490.015625 173.226562 C 488.753906 173.226562 487.726562 174.253906 487.726562 175.511719 C 487.726562 176.773438 488.753906 177.800781 490.015625 177.800781 C 491.277344 177.800781 492.304688 176.773438 492.304688 175.511719 C 492.304688 174.253906 491.277344 173.226562 490.015625 173.226562 Z M 490.015625 178.671875 C 488.273438 178.671875 486.855469 177.253906 486.855469 175.511719 C 486.855469 173.773438 488.273438 172.355469 490.015625 172.355469 C 491.757812 172.355469 493.175781 173.773438 493.175781 175.511719 C 493.175781 177.253906 491.757812 178.671875 490.015625 178.671875 " fill-opacity="1" fill-rule="nonzero"/><path fill="#e2e2e2" d="M 405.816406 188.910156 C 404.554688 188.910156 403.527344 189.933594 403.527344 191.195312 C 403.527344 192.457031 404.554688 193.480469 405.816406 193.480469 C 407.074219 193.480469 408.101562 192.457031 408.101562 191.195312 C 408.101562 189.933594 407.074219 188.910156 405.816406 188.910156 Z M 405.816406 194.351562 C 404.074219 194.351562 402.65625 192.9375 402.65625 191.195312 C 402.65625 189.453125 404.074219 188.039062 405.816406 188.039062 C 407.554688 188.039062 408.972656 189.453125 408.972656 191.195312 C 408.972656 192.9375 407.554688 194.351562 405.816406 194.351562 " fill-opacity="1" fill-rule="nonzero"/><path fill="#e2e2e2" d="M 480.164062 58.792969 C 478.902344 58.792969 477.878906 59.816406 477.878906 61.078125 C 477.878906 62.339844 478.902344 63.367188 480.164062 63.367188 C 481.425781 63.367188 482.453125 62.339844 482.453125 61.078125 C 482.453125 59.816406 481.425781 58.792969 480.164062 58.792969 Z M 480.164062 64.234375 C 478.421875 64.234375 477.003906 62.820312 477.003906 61.078125 C 477.003906 59.339844 478.421875 57.921875 480.164062 57.921875 C 481.90625 57.921875 483.324219 59.339844 483.324219 61.078125 C 483.324219 62.820312 481.90625 64.234375 480.164062 64.234375 " fill-opacity="1" fill-rule="nonzero"/><path fill="#e2e2e2" d="M 429.050781 92.566406 C 427.785156 92.566406 426.761719 93.589844 426.761719 94.851562 C 426.761719 96.113281 427.785156 97.140625 429.050781 97.140625 C 430.308594 97.140625 431.335938 96.113281 431.335938 94.851562 C 431.335938 93.589844 430.308594 92.566406 429.050781 92.566406 Z M 429.050781 98.011719 C 427.304688 98.011719 425.890625 96.59375 425.890625 94.851562 C 425.890625 93.109375 427.304688 91.691406 429.050781 91.691406 C 430.789062 91.691406 432.207031 93.109375 432.207031 94.851562 C 432.207031 96.59375 430.789062 98.011719 429.050781 98.011719 " fill-opacity="1" fill-rule="nonzero"/><path fill="#e2e2e2" d="M 419.859375 111.210938 C 418.601562 111.210938 417.574219 112.234375 417.574219 113.496094 C 417.574219 114.757812 418.601562 115.78125 419.859375 115.78125 C 421.121094 115.78125 422.148438 114.757812 422.148438 113.496094 C 422.148438 112.234375 421.121094 111.210938 419.859375 111.210938 Z M 419.859375 116.65625 C 418.121094 116.65625 416.703125 115.238281 416.703125 113.496094 C 416.703125 111.753906 418.121094 110.339844 419.859375 110.339844 C 421.601562 110.339844 423.019531 111.753906 423.019531 113.496094 C 423.019531 115.238281 421.601562 116.65625 419.859375 116.65625 " fill-opacity="1" fill-rule="nonzero"/><path fill="#e2e2e2" d="M 489.882812 82.304688 C 488.621094 82.304688 487.59375 83.332031 487.59375 84.589844 C 487.59375 85.851562 488.621094 86.875 489.882812 86.875 C 491.144531 86.875 492.167969 85.851562 492.167969 84.589844 C 492.167969 83.332031 491.144531 82.304688 489.882812 82.304688 Z M 489.882812 87.75 C 488.140625 87.75 486.722656 86.332031 486.722656 84.589844 C 486.722656 82.851562 488.140625 81.433594 489.882812 81.433594 C 491.625 81.433594 493.039062 82.851562 493.039062 84.589844 C 493.039062 86.332031 491.625 87.75 489.882812 87.75 " fill-opacity="1" fill-rule="nonzero"/><g clip-path="url(#5395ebaba0)"><path fill="#e2e2e2" d="M 470.554688 218.660156 C 469.289062 218.660156 468.265625 219.683594 468.265625 220.945312 C 468.265625 222.207031 469.289062 223.234375 470.554688 223.234375 C 471.8125 223.234375 472.839844 222.207031 472.839844 220.945312 C 472.839844 219.683594 471.8125 218.660156 470.554688 218.660156 Z M 470.554688 224.105469 C 468.808594 224.105469 467.394531 222.6875 467.394531 220.945312 C 467.394531 219.203125 468.808594 217.785156 470.554688 217.785156 C 472.296875 217.785156 473.710938 219.203125 473.710938 220.945312 C 473.710938 222.6875 472.296875 224.105469 470.554688 224.105469 " fill-opacity="1" fill-rule="nonzero"/></g><path fill="#e2e2e2" d="M 483.066406 125.894531 L 478.234375 125.894531 L 478.234375 125.023438 L 483.066406 125.023438 L 483.066406 125.894531 " fill-opacity="1" fill-rule="nonzero"/><path fill="#e2e2e2" d="M 483.066406 127.636719 L 478.234375 127.636719 L 478.234375 126.765625 L 483.066406 126.765625 L 483.066406 127.636719 " fill-opacity="1" fill-rule="nonzero"/><path fill="#e2e2e2" d="M 483.066406 129.378906 L 478.234375 129.378906 L 478.234375 128.507812 L 483.066406 128.507812 L 483.066406 129.378906 " fill-opacity="1" fill-rule="nonzero"/><path fill="#e2e2e2" d="M 413.074219 142.164062 L 412.203125 142.164062 L 412.203125 137.335938 L 413.074219 137.335938 L 413.074219 142.164062 " fill-opacity="1" fill-rule="nonzero"/><path fill="#e2e2e2" d="M 411.335938 142.164062 L 410.460938 142.164062 L 410.460938 137.335938 L 411.335938 137.335938 L 411.335938 142.164062 " fill-opacity="1" fill-rule="nonzero"/><path fill="#e2e2e2" d="M 409.589844 142.164062 L 408.71875 142.164062 L 408.71875 137.335938 L 409.589844 137.335938 L 409.589844 142.164062 " fill-opacity="1" fill-rule="nonzero"/><path fill="#e2e2e2" d="M 423.78125 175.636719 L 422.910156 175.636719 L 422.910156 170.804688 L 423.78125 170.804688 L 423.78125 175.636719 " fill-opacity="1" fill-rule="nonzero"/><path fill="#e2e2e2" d="M 422.039062 175.636719 L 421.167969 175.636719 L 421.167969 170.804688 L 422.039062 170.804688 L 422.039062 175.636719 " fill-opacity="1" fill-rule="nonzero"/><path fill="#e2e2e2" d="M 420.296875 175.636719 L 419.425781 175.636719 L 419.425781 170.804688 L 420.296875 170.804688 L 420.296875 175.636719 " fill-opacity="1" fill-rule="nonzero"/><path fill="#e2e2e2" d="M 426.433594 27.902344 L 421.601562 27.902344 L 421.601562 27.03125 L 426.433594 27.03125 L 426.433594 27.902344 " fill-opacity="1" fill-rule="nonzero"/><path fill="#e2e2e2" d="M 426.433594 29.644531 L 421.601562 29.644531 L 421.601562 28.773438 L 426.433594 28.773438 L 426.433594 29.644531 " fill-opacity="1" fill-rule="nonzero"/><path fill="#e2e2e2" d="M 426.433594 31.382812 L 421.601562 31.382812 L 421.601562 30.511719 L 426.433594 30.511719 L 426.433594 31.382812 " fill-opacity="1" fill-rule="nonzero"/><path fill="#e2e2e2" d="M 543 117.027344 L 526.324219 117.027344 L 526.324219 115.410156 L 543 115.410156 L 543 117.027344 " fill-opacity="1" fill-rule="nonzero"/><path fill="#e2e2e2" d="M 543 119.640625 L 526.324219 119.640625 L 526.324219 118.023438 L 543 118.023438 L 543 119.640625 " fill-opacity="1" fill-rule="nonzero"/><path fill="#e2e2e2" d="M 543 122.253906 L 526.324219 122.253906 L 526.324219 120.636719 L 543 120.636719 L 543 122.253906 " fill-opacity="1" fill-rule="nonzero"/><path fill="#e2e2e2" d="M 588.835938 25.660156 L 572.15625 25.660156 L 572.15625 24.042969 L 588.835938 24.042969 L 588.835938 25.660156 " fill-opacity="1" fill-rule="nonzero"/><path fill="#e2e2e2" d="M 588.835938 28.273438 L 572.15625 28.273438 L 572.15625 26.65625 L 588.835938 26.65625 L 588.835938 28.273438 " fill-opacity="1" fill-rule="nonzero"/><path fill="#e2e2e2" d="M 588.835938 30.886719 L 572.15625 30.886719 L 572.15625 29.265625 L 588.835938 29.265625 L 588.835938 30.886719 " fill-opacity="1" fill-rule="nonzero"/><path fill="#e2e2e2" d="M 242.886719 137.78125 L 226.210938 137.78125 L 226.210938 136.160156 L 242.886719 136.160156 L 242.886719 137.78125 " fill-opacity="1" fill-rule="nonzero"/><path fill="#e2e2e2" d="M 242.886719 140.394531 L 226.210938 140.394531 L 226.210938 138.773438 L 242.886719 138.773438 L 242.886719 140.394531 " fill-opacity="1" fill-rule="nonzero"/><path fill="#e2e2e2" d="M 242.886719 143.007812 L 226.210938 143.007812 L 226.210938 141.390625 L 242.886719 141.390625 L 242.886719 143.007812 " fill-opacity="1" fill-rule="nonzero"/><path fill="#e2e2e2" d="M 299.808594 66.832031 L 294.976562 66.832031 L 294.976562 65.960938 L 299.808594 65.960938 L 299.808594 66.832031 " fill-opacity="1" fill-rule="nonzero"/><path fill="#e2e2e2" d="M 299.808594 68.574219 L 294.976562 68.574219 L 294.976562 67.703125 L 299.808594 67.703125 L 299.808594 68.574219 " fill-opacity="1" fill-rule="nonzero"/><path fill="#e2e2e2" d="M 299.808594 70.316406 L 294.976562 70.316406 L 294.976562 69.445312 L 299.808594 69.445312 L 299.808594 70.316406 " fill-opacity="1" fill-rule="nonzero"/><g clip-path="url(#e42576d824)"><path fill="#e2e2e2" d="M 601.472656 180.042969 L 596.640625 180.042969 L 596.640625 179.171875 L 601.472656 179.171875 L 601.472656 180.042969 " fill-opacity="1" fill-rule="nonzero"/></g><g clip-path="url(#511f292e65)"><path fill="#e2e2e2" d="M 601.472656 181.785156 L 596.640625 181.785156 L 596.640625 180.910156 L 601.472656 180.910156 L 601.472656 181.785156 " fill-opacity="1" fill-rule="nonzero"/></g><g clip-path="url(#c3293e9c55)"><path fill="#e2e2e2" d="M 601.472656 183.527344 L 596.640625 183.527344 L 596.640625 182.65625 L 601.472656 182.65625 L 601.472656 183.527344 " fill-opacity="1" fill-rule="nonzero"/></g><path fill="#e2e2e2" d="M 307.53125 169.496094 L 302.699219 169.496094 L 302.699219 168.625 L 307.53125 168.625 L 307.53125 169.496094 " fill-opacity="1" fill-rule="nonzero"/><path fill="#e2e2e2" d="M 307.53125 171.238281 L 302.699219 171.238281 L 302.699219 170.367188 L 307.53125 170.367188 L 307.53125 171.238281 " fill-opacity="1" fill-rule="nonzero"/><path fill="#e2e2e2" d="M 307.53125 172.980469 L 302.699219 172.980469 L 302.699219 172.109375 L 307.53125 172.109375 L 307.53125 172.980469 " fill-opacity="1" fill-rule="nonzero"/><path fill="#e2e2e2" d="M 478.234375 202.109375 L 473.402344 202.109375 L 473.402344 201.238281 L 478.234375 201.238281 L 478.234375 202.109375 " fill-opacity="1" fill-rule="nonzero"/><path fill="#e2e2e2" d="M 478.234375 203.851562 L 473.402344 203.851562 L 473.402344 202.980469 L 478.234375 202.980469 L 478.234375 203.851562 " fill-opacity="1" fill-rule="nonzero"/><path fill="#e2e2e2" d="M 478.234375 205.59375 L 473.402344 205.59375 L 473.402344 204.722656 L 478.234375 204.722656 L 478.234375 205.59375 " fill-opacity="1" fill-rule="nonzero"/><path fill="#e2e2e2" d="M 484.765625 72.359375 L 481.367188 72.359375 L 481.367188 71.488281 L 484.765625 71.488281 L 484.765625 72.359375 " fill-opacity="1" fill-rule="nonzero"/><path fill="#e2e2e2" d="M 403.625 181.785156 L 400.222656 181.785156 L 400.222656 180.910156 L 403.625 180.910156 L 403.625 181.785156 " fill-opacity="1" fill-rule="nonzero"/><path fill="#e2e2e2" d="M 479.269531 110.425781 L 478.652344 109.8125 L 481.058594 107.40625 L 481.671875 108.023438 L 479.269531 110.425781 " fill-opacity="1" fill-rule="nonzero"/><path fill="#e2e2e2" d="M 402.359375 181.347656 L 401.488281 181.347656 L 401.488281 131.984375 L 401.617188 131.855469 L 418.285156 115.191406 L 418.902344 115.804688 L 402.359375 132.347656 L 402.359375 181.347656 " fill-opacity="1" fill-rule="nonzero"/><path fill="#e2e2e2" d="M 406.25 188.316406 L 405.382812 188.316406 L 405.382812 147.988281 L 428.613281 147.988281 L 428.613281 97.726562 L 429.484375 97.726562 L 429.484375 148.859375 L 406.25 148.859375 L 406.25 188.316406 " fill-opacity="1" fill-rule="nonzero"/><path fill="#e2e2e2" d="M 424.019531 153.332031 L 410.257812 153.332031 L 410.257812 152.460938 L 424.019531 152.460938 L 424.019531 153.332031 " fill-opacity="1" fill-rule="nonzero"/><path fill="#e2e2e2" d="M 417.574219 175.511719 L 416.703125 175.511719 L 416.703125 152.894531 L 417.574219 152.894531 L 417.574219 175.511719 " fill-opacity="1" fill-rule="nonzero"/><path fill="#e2e2e2" d="M 357.019531 49.484375 C 355.753906 49.484375 354.730469 50.507812 354.730469 51.769531 C 354.730469 53.03125 355.753906 54.054688 357.019531 54.054688 C 358.277344 54.054688 359.304688 53.03125 359.304688 51.769531 C 359.304688 50.507812 358.277344 49.484375 357.019531 49.484375 Z M 357.019531 54.925781 C 355.273438 54.925781 353.859375 53.507812 353.859375 51.769531 C 353.859375 50.03125 355.273438 48.613281 357.019531 48.613281 C 358.757812 48.613281 360.175781 50.03125 360.175781 51.769531 C 360.175781 53.507812 358.757812 54.925781 357.019531 54.925781 " fill-opacity="1" fill-rule="nonzero"/><path fill="#e2e2e2" d="M 354.824219 42.363281 L 351.425781 42.363281 L 351.425781 41.488281 L 354.824219 41.488281 L 354.824219 42.363281 " fill-opacity="1" fill-rule="nonzero"/><path fill="#e2e2e2" d="M 353.5625 41.925781 L 352.6875 41.925781 L 352.6875 -7.441406 L 352.816406 -7.566406 L 369.488281 -24.230469 L 370.105469 -23.617188 L 353.5625 -7.078125 L 353.5625 41.925781 " fill-opacity="1" fill-rule="nonzero"/><path fill="#e2e2e2" d="M 357.453125 48.890625 L 356.582031 48.890625 L 356.582031 8.5625 L 379.8125 8.5625 L 379.8125 -41.695312 L 380.6875 -41.695312 L 380.6875 9.433594 L 357.453125 9.433594 L 357.453125 48.890625 " fill-opacity="1" fill-rule="nonzero"/><path fill="#48597e" d="M 375.179688 245.78125 L 375.179688 205.164062 L 383.222656 205.164062 L 383.222656 245.78125 L 388.464844 247.976562 L 388.464844 251.023438 L 369.9375 251.023438 L 369.9375 247.976562 L 375.179688 245.78125 " fill-opacity="1" fill-rule="nonzero"/><path fill="#88a0b4" d="M 219.324219 205.164062 L 222.917969 205.164062 L 222.917969 165.886719 L 219.324219 165.886719 Z M 219.324219 205.164062 " fill-opacity="1" fill-rule="nonzero"/><path fill="#88a0b4" d="M 377.402344 165.886719 L 381 165.886719 L 381 205.164062 L 377.402344 205.164062 L 377.402344 165.886719 " fill-opacity="1" fill-rule="nonzero"/><path fill="#91a321" d="M 204.1875 188.90625 C 204.054688 189.078125 194.214844 183.953125 199.980469 172.792969 C 207.214844 177.402344 207.863281 184.226562 204.1875 188.90625 " fill-opacity="1" fill-rule="nonzero"/><path fill="#acc11c" d="M 205.175781 192.132812 C 205.390625 192.085938 205.125 180.988281 192.578125 181.25 C 193.523438 189.78125 199.359375 193.371094 205.175781 192.132812 " fill-opacity="1" fill-rule="nonzero"/><path fill="#91a321" d="M 206.472656 188.90625 C 206.605469 189.078125 216.445312 183.953125 210.679688 172.792969 C 203.445312 177.402344 202.796875 184.226562 206.472656 188.90625 " fill-opacity="1" fill-rule="nonzero"/><path fill="#acc11c" d="M 205.484375 192.132812 C 205.269531 192.085938 205.535156 180.988281 218.082031 181.25 C 217.136719 189.78125 211.296875 193.371094 205.484375 192.132812 " fill-opacity="1" fill-rule="nonzero"/><path fill="#738323" d="M 205.328125 192.945312 C 210.601562 188.726562 211.78125 181.0625 205.328125 173.871094 C 198.878906 181.0625 200.058594 188.726562 205.328125 192.945312 " fill-opacity="1" fill-rule="nonzero"/><path fill="#91a321" d="M 235.796875 188.90625 C 235.664062 189.078125 225.824219 183.953125 231.589844 172.792969 C 238.824219 177.402344 239.472656 184.226562 235.796875 188.90625 " fill-opacity="1" fill-rule="nonzero"/><path fill="#acc11c" d="M 236.785156 192.132812 C 237 192.085938 236.734375 180.988281 224.1875 181.25 C 225.132812 189.78125 230.972656 193.371094 236.785156 192.132812 " fill-opacity="1" fill-rule="nonzero"/><path fill="#91a321" d="M 238.082031 188.90625 C 238.214844 189.078125 248.054688 183.953125 242.292969 172.792969 C 235.054688 177.402344 234.40625 184.226562 238.082031 188.90625 " fill-opacity="1" fill-rule="nonzero"/><path fill="#acc11c" d="M 237.09375 192.132812 C 236.882812 192.085938 237.144531 180.988281 249.695312 181.25 C 248.746094 189.78125 242.910156 193.371094 237.09375 192.132812 " fill-opacity="1" fill-rule="nonzero"/><path fill="#738323" d="M 236.941406 192.945312 C 242.214844 188.726562 243.390625 181.0625 236.941406 173.871094 C 230.488281 181.0625 231.667969 188.726562 236.941406 192.945312 " fill-opacity="1" fill-rule="nonzero"/><path fill="#91a321" d="M 267.410156 188.90625 C 267.273438 189.078125 257.433594 183.953125 263.199219 172.792969 C 270.433594 177.402344 271.085938 184.226562 267.410156 188.90625 " fill-opacity="1" fill-rule="nonzero"/><path fill="#acc11c" d="M 268.398438 192.132812 C 268.609375 192.085938 268.34375 180.988281 255.796875 181.25 C 256.742188 189.78125 262.582031 193.371094 268.398438 192.132812 " fill-opacity="1" fill-rule="nonzero"/><path fill="#91a321" d="M 269.691406 188.90625 C 269.828125 189.078125 279.667969 183.953125 273.902344 172.792969 C 266.664062 177.402344 266.015625 184.226562 269.691406 188.90625 " fill-opacity="1" fill-rule="nonzero"/><path fill="#acc11c" d="M 268.703125 192.132812 C 268.492188 192.085938 268.753906 180.988281 281.304688 181.25 C 280.359375 189.78125 274.519531 193.371094 268.703125 192.132812 " fill-opacity="1" fill-rule="nonzero"/><path fill="#738323" d="M 268.550781 192.945312 C 273.824219 188.726562 275 181.0625 268.550781 173.871094 C 262.101562 181.0625 263.277344 188.726562 268.550781 192.945312 " fill-opacity="1" fill-rule="nonzero"/><path fill="#91a321" d="M 299.019531 188.90625 C 298.886719 189.078125 289.042969 183.953125 294.808594 172.792969 C 302.046875 177.402344 302.695312 184.226562 299.019531 188.90625 " fill-opacity="1" fill-rule="nonzero"/><path fill="#acc11c" d="M 300.007812 192.132812 C 300.21875 192.085938 299.957031 180.988281 287.40625 181.25 C 288.351562 189.78125 294.191406 193.371094 300.007812 192.132812 " fill-opacity="1" fill-rule="nonzero"/><path fill="#91a321" d="M 301.300781 188.90625 C 301.4375 189.078125 311.277344 183.953125 305.511719 172.792969 C 298.277344 177.402344 297.625 184.226562 301.300781 188.90625 " fill-opacity="1" fill-rule="nonzero"/><path fill="#acc11c" d="M 300.3125 192.132812 C 300.101562 192.085938 300.367188 180.988281 312.914062 181.25 C 311.96875 189.78125 306.128906 193.371094 300.3125 192.132812 " fill-opacity="1" fill-rule="nonzero"/><path fill="#738323" d="M 300.160156 192.945312 C 305.433594 188.726562 306.613281 181.0625 300.160156 173.871094 C 293.710938 181.0625 294.886719 188.726562 300.160156 192.945312 " fill-opacity="1" fill-rule="nonzero"/><path fill="#91a321" d="M 330.628906 188.90625 C 330.496094 189.078125 320.65625 183.953125 326.417969 172.792969 C 333.65625 177.402344 334.304688 184.230469 330.628906 188.90625 " fill-opacity="1" fill-rule="nonzero"/><path fill="#acc11c" d="M 331.617188 192.132812 C 331.828125 192.085938 331.566406 180.988281 319.015625 181.25 C 319.960938 189.78125 325.800781 193.375 331.617188 192.132812 " fill-opacity="1" fill-rule="nonzero"/><path fill="#91a321" d="M 332.914062 188.90625 C 333.046875 189.078125 342.886719 183.949219 337.125 172.792969 C 329.886719 177.402344 329.238281 184.226562 332.914062 188.90625 " fill-opacity="1" fill-rule="nonzero"/><path fill="#acc11c" d="M 331.925781 192.132812 C 331.714844 192.085938 331.976562 180.988281 344.523438 181.25 C 343.578125 189.78125 337.742188 193.371094 331.925781 192.132812 " fill-opacity="1" fill-rule="nonzero"/><path fill="#738323" d="M 331.769531 192.949219 C 337.042969 188.726562 338.222656 181.0625 331.769531 173.871094 C 325.320312 181.0625 326.496094 188.726562 331.769531 192.949219 " fill-opacity="1" fill-rule="nonzero"/><path fill="#91a321" d="M 362.238281 188.90625 C 362.105469 189.078125 352.265625 183.953125 358.03125 172.792969 C 365.265625 177.402344 365.914062 184.230469 362.238281 188.90625 " fill-opacity="1" fill-rule="nonzero"/><path fill="#acc11c" d="M 363.226562 192.132812 C 363.441406 192.085938 363.175781 180.988281 350.628906 181.25 C 351.574219 189.78125 357.414062 193.371094 363.226562 192.132812 " fill-opacity="1" fill-rule="nonzero"/><path fill="#91a321" d="M 364.523438 188.90625 C 364.65625 189.078125 374.496094 183.953125 368.730469 172.792969 C 361.496094 177.402344 360.847656 184.230469 364.523438 188.90625 " fill-opacity="1" fill-rule="nonzero"/><path fill="#acc11c" d="M 363.535156 192.132812 C 363.324219 192.085938 363.585938 180.988281 376.132812 181.25 C 375.1875 189.78125 369.351562 193.375 363.535156 192.132812 " fill-opacity="1" fill-rule="nonzero"/><path fill="#738323" d="M 363.382812 192.945312 C 368.65625 188.726562 369.832031 181.0625 363.382812 173.871094 C 356.929688 181.0625 358.109375 188.726562 363.382812 192.945312 " fill-opacity="1" fill-rule="nonzero"/><path fill="#91a321" d="M 393.851562 188.90625 C 393.714844 189.078125 383.875 183.953125 389.640625 172.792969 C 396.875 177.402344 397.523438 184.226562 393.851562 188.90625 " fill-opacity="1" fill-rule="nonzero"/><path fill="#acc11c" d="M 394.839844 192.132812 C 395.050781 192.085938 394.789062 180.988281 382.238281 181.25 C 383.183594 189.78125 389.023438 193.371094 394.839844 192.132812 " fill-opacity="1" fill-rule="nonzero"/><path fill="#91a321" d="M 396.132812 188.90625 C 396.269531 189.078125 406.105469 183.953125 400.34375 172.792969 C 393.105469 177.402344 392.457031 184.226562 396.132812 188.90625 " fill-opacity="1" fill-rule="nonzero"/><path fill="#acc11c" d="M 395.144531 192.132812 C 394.933594 192.085938 395.195312 180.988281 407.746094 181.25 C 406.800781 189.78125 400.960938 193.375 395.144531 192.132812 " fill-opacity="1" fill-rule="nonzero"/><path fill="#738323" d="M 394.992188 192.945312 C 400.265625 188.726562 401.441406 181.0625 394.992188 173.871094 C 388.539062 181.0625 389.71875 188.726562 394.992188 192.945312 " fill-opacity="1" fill-rule="nonzero"/><path fill="#91a321" d="M 204.1875 147.558594 C 204.054688 147.726562 194.214844 142.601562 199.976562 131.445312 C 207.214844 136.050781 207.863281 142.878906 204.1875 147.558594 " fill-opacity="1" fill-rule="nonzero"/><path fill="#acc11c" d="M 205.175781 150.78125 C 205.390625 150.734375 205.125 139.636719 192.578125 139.902344 C 193.523438 148.433594 199.359375 152.023438 205.175781 150.78125 " fill-opacity="1" fill-rule="nonzero"/><path fill="#91a321" d="M 206.472656 147.558594 C 206.605469 147.726562 216.445312 142.601562 210.679688 131.445312 C 203.445312 136.050781 202.796875 142.878906 206.472656 147.558594 " fill-opacity="1" fill-rule="nonzero"/><path fill="#acc11c" d="M 205.484375 150.78125 C 205.269531 150.734375 205.535156 139.636719 218.082031 139.902344 C 217.136719 148.433594 211.296875 152.023438 205.484375 150.78125 " fill-opacity="1" fill-rule="nonzero"/><path fill="#738323" d="M 205.328125 151.597656 C 210.601562 147.378906 211.78125 139.710938 205.328125 132.523438 C 198.878906 139.710938 200.058594 147.378906 205.328125 151.597656 " fill-opacity="1" fill-rule="nonzero"/><path fill="#91a321" d="M 235.796875 147.558594 C 235.664062 147.726562 225.824219 142.601562 231.589844 131.445312 C 238.824219 136.050781 239.472656 142.878906 235.796875 147.558594 " fill-opacity="1" fill-rule="nonzero"/><path fill="#acc11c" d="M 236.785156 150.78125 C 237 150.734375 236.734375 139.636719 224.1875 139.902344 C 225.132812 148.433594 230.972656 152.023438 236.785156 150.78125 " fill-opacity="1" fill-rule="nonzero"/><path fill="#91a321" d="M 238.082031 147.558594 C 238.214844 147.726562 248.054688 142.601562 242.292969 131.445312 C 235.054688 136.050781 234.40625 142.878906 238.082031 147.558594 " fill-opacity="1" fill-rule="nonzero"/><path fill="#acc11c" d="M 237.09375 150.78125 C 236.882812 150.734375 237.144531 139.636719 249.695312 139.902344 C 248.746094 148.433594 242.910156 152.023438 237.09375 150.78125 " fill-opacity="1" fill-rule="nonzero"/><path fill="#738323" d="M 236.941406 151.597656 C 242.214844 147.378906 243.390625 139.710938 236.941406 132.523438 C 230.488281 139.710938 231.667969 147.378906 236.941406 151.597656 " fill-opacity="1" fill-rule="nonzero"/><path fill="#91a321" d="M 267.410156 147.558594 C 267.273438 147.726562 257.433594 142.601562 263.199219 131.445312 C 270.4375 136.050781 271.085938 142.878906 267.410156 147.558594 " fill-opacity="1" fill-rule="nonzero"/><path fill="#acc11c" d="M 268.398438 150.78125 C 268.609375 150.734375 268.34375 139.636719 255.796875 139.902344 C 256.742188 148.433594 262.582031 152.023438 268.398438 150.78125 " fill-opacity="1" fill-rule="nonzero"/><path fill="#91a321" d="M 269.691406 147.558594 C 269.828125 147.726562 279.667969 142.601562 273.902344 131.445312 C 266.664062 136.050781 266.015625 142.878906 269.691406 147.558594 " fill-opacity="1" fill-rule="nonzero"/><path fill="#acc11c" d="M 268.703125 150.78125 C 268.492188 150.734375 268.753906 139.636719 281.304688 139.902344 C 280.359375 148.433594 274.519531 152.023438 268.703125 150.78125 " fill-opacity="1" fill-rule="nonzero"/><path fill="#738323" d="M 268.550781 151.597656 C 273.824219 147.378906 275.003906 139.710938 268.550781 132.523438 C 262.097656 139.710938 263.277344 147.378906 268.550781 151.597656 " fill-opacity="1" fill-rule="nonzero"/><path fill="#91a321" d="M 299.019531 147.558594 C 298.886719 147.726562 289.042969 142.601562 294.808594 131.445312 C 302.046875 136.050781 302.695312 142.878906 299.019531 147.558594 " fill-opacity="1" fill-rule="nonzero"/><path fill="#acc11c" d="M 300.007812 150.78125 C 300.21875 150.734375 299.957031 139.636719 287.40625 139.902344 C 288.351562 148.433594 294.191406 152.023438 300.007812 150.78125 " fill-opacity="1" fill-rule="nonzero"/><path fill="#91a321" d="M 301.300781 147.558594 C 301.4375 147.726562 311.277344 142.601562 305.511719 131.445312 C 298.277344 136.050781 297.625 142.878906 301.300781 147.558594 " fill-opacity="1" fill-rule="nonzero"/><path fill="#acc11c" d="M 300.316406 150.78125 C 300.101562 150.734375 300.367188 139.636719 312.914062 139.902344 C 311.96875 148.433594 306.128906 152.023438 300.316406 150.78125 " fill-opacity="1" fill-rule="nonzero"/><path fill="#738323" d="M 300.160156 151.597656 C 305.433594 147.378906 306.613281 139.710938 300.160156 132.523438 C 293.710938 139.710938 294.886719 147.378906 300.160156 151.597656 " fill-opacity="1" fill-rule="nonzero"/><path fill="#91a321" d="M 330.628906 147.558594 C 330.496094 147.726562 320.65625 142.601562 326.417969 131.445312 C 333.65625 136.050781 334.304688 142.878906 330.628906 147.558594 " fill-opacity="1" fill-rule="nonzero"/><path fill="#acc11c" d="M 331.617188 150.78125 C 331.828125 150.738281 331.566406 139.636719 319.015625 139.902344 C 319.960938 148.433594 325.800781 152.023438 331.617188 150.78125 " fill-opacity="1" fill-rule="nonzero"/><path fill="#91a321" d="M 332.914062 147.558594 C 333.046875 147.726562 342.886719 142.601562 337.125 131.441406 C 329.886719 136.050781 329.238281 142.878906 332.914062 147.558594 " fill-opacity="1" fill-rule="nonzero"/><path fill="#acc11c" d="M 331.925781 150.78125 C 331.714844 150.734375 331.976562 139.636719 344.523438 139.902344 C 343.578125 148.433594 337.742188 152.023438 331.925781 150.78125 " fill-opacity="1" fill-rule="nonzero"/><path fill="#738323" d="M 331.769531 151.597656 C 337.042969 147.378906 338.222656 139.714844 331.769531 132.523438 C 325.320312 139.714844 326.496094 147.378906 331.769531 151.597656 " fill-opacity="1" fill-rule="nonzero"/><path fill="#91a321" d="M 362.238281 147.558594 C 362.105469 147.726562 352.265625 142.601562 358.03125 131.445312 C 365.265625 136.050781 365.914062 142.878906 362.238281 147.558594 " fill-opacity="1" fill-rule="nonzero"/><path fill="#acc11c" d="M 363.226562 150.78125 C 363.441406 150.734375 363.175781 139.636719 350.628906 139.902344 C 351.574219 148.433594 357.414062 152.023438 363.226562 150.78125 " fill-opacity="1" fill-rule="nonzero"/><path fill="#91a321" d="M 364.523438 147.558594 C 364.65625 147.726562 374.496094 142.601562 368.730469 131.445312 C 361.496094 136.050781 360.847656 142.878906 364.523438 147.558594 " fill-opacity="1" fill-rule="nonzero"/><path fill="#acc11c" d="M 363.535156 150.78125 C 363.324219 150.734375 363.585938 139.636719 376.132812 139.902344 C 375.1875 148.433594 369.351562 152.023438 363.535156 150.78125 " fill-opacity="1" fill-rule="nonzero"/><path fill="#738323" d="M 363.382812 151.597656 C 368.65625 147.378906 369.832031 139.710938 363.382812 132.523438 C 356.929688 139.710938 358.109375 147.378906 363.382812 151.597656 " fill-opacity="1" fill-rule="nonzero"/><path fill="#91a321" d="M 393.851562 147.558594 C 393.714844 147.726562 383.875 142.601562 389.640625 131.445312 C 396.875 136.050781 397.523438 142.878906 393.851562 147.558594 " fill-opacity="1" fill-rule="nonzero"/><path fill="#acc11c" d="M 394.839844 150.78125 C 395.050781 150.734375 394.789062 139.636719 382.238281 139.902344 C 383.183594 148.433594 389.023438 152.023438 394.839844 150.78125 " fill-opacity="1" fill-rule="nonzero"/><path fill="#91a321" d="M 396.132812 147.558594 C 396.269531 147.726562 406.105469 142.601562 400.34375 131.445312 C 393.105469 136.050781 392.457031 142.878906 396.132812 147.558594 " fill-opacity="1" fill-rule="nonzero"/><path fill="#acc11c" d="M 395.144531 150.78125 C 394.933594 150.734375 395.195312 139.640625 407.746094 139.902344 C 406.800781 148.433594 400.960938 152.023438 395.144531 150.78125 " fill-opacity="1" fill-rule="nonzero"/><path fill="#738323" d="M 394.992188 151.597656 C 400.265625 147.378906 401.441406 139.710938 394.992188 132.523438 C 388.539062 139.710938 389.71875 147.378906 394.992188 151.597656 " fill-opacity="1" fill-rule="nonzero"/><path fill="#48597e" d="M 225.144531 245.78125 L 225.144531 205.164062 L 217.097656 205.164062 L 217.097656 245.78125 L 211.859375 247.976562 L 211.859375 251.023438 L 230.382812 251.023438 L 230.382812 247.976562 L 225.144531 245.78125 " fill-opacity="1" fill-rule="nonzero"/><path fill="#d3c3c7" d="M 409.671875 165.886719 L 190.652344 165.886719 L 190.652344 150.519531 L 409.671875 150.519531 L 409.671875 165.886719 " fill-opacity="1" fill-rule="nonzero"/><path fill="#c7b4b8" d="M 409.671875 165.886719 L 190.652344 165.886719 L 190.652344 161.738281 L 409.671875 161.738281 L 409.671875 165.886719 " fill-opacity="1" fill-rule="nonzero"/><g clip-path="url(#547619abea)"><path fill="#2e3247" d="M 422.835938 255.171875 L 177.488281 255.171875 L 177.488281 251.023438 L 422.835938 251.023438 L 422.835938 255.171875 " fill-opacity="1" fill-rule="nonzero"/></g><path fill="#88a0b4" d="M 222.917969 84.261719 L 219.324219 84.261719 L 219.324219 150.519531 L 222.917969 150.519531 L 222.917969 84.261719 " fill-opacity="1" fill-rule="nonzero"/><path fill="#88a0b4" d="M 377.402344 84.261719 L 381 84.261719 L 381 150.519531 L 377.402344 150.519531 L 377.402344 84.261719 " fill-opacity="1" fill-rule="nonzero"/><path fill="#6ebde3" d="M 337.382812 251.023438 L 255.496094 251.023438 L 255.496094 218.757812 L 337.382812 218.757812 L 337.382812 251.023438 " fill-opacity="1" fill-rule="nonzero"/><path fill="#58a6dc" d="M 336.179688 249.867188 L 336.179688 229.539062 C 331.625 229.347656 331.4375 226.628906 326.550781 226.628906 C 321.488281 226.628906 321.488281 229.554688 316.421875 229.554688 C 311.359375 229.554688 311.359375 226.628906 306.292969 226.628906 C 301.226562 226.628906 301.226562 229.554688 296.164062 229.554688 C 291.101562 229.554688 291.101562 226.628906 286.039062 226.628906 C 280.972656 226.628906 280.972656 229.554688 275.90625 229.554688 C 270.839844 229.554688 270.839844 226.628906 265.773438 226.628906 C 261.09375 226.628906 260.730469 229.125 256.703125 229.503906 L 256.703125 249.867188 L 256.703125 218.753906 L 336.179688 218.753906 L 336.179688 249.867188 " fill-opacity="1" fill-rule="nonzero"/><g clip-path="url(#85be25811e)"><path fill="#88a0b4" d="M 256.699219 242.785156 L 187.394531 242.785156 C 182.132812 242.785156 177.851562 238.609375 177.851562 233.476562 L 177.851562 207.792969 C 177.851562 202.65625 182.132812 198.480469 187.394531 198.480469 L 192.832031 198.480469 L 192.832031 200.621094 L 187.394531 200.621094 C 183.34375 200.621094 180.046875 203.839844 180.046875 207.792969 L 180.046875 233.476562 C 180.046875 237.429688 183.34375 240.644531 187.394531 240.644531 L 256.699219 240.644531 L 256.699219 242.785156 " fill-opacity="1" fill-rule="nonzero"/></g><g clip-path="url(#eee8199716)"><path fill="#88a0b4" d="M 409.671875 198.007812 L 413.292969 198.007812 C 417.34375 198.007812 420.640625 194.707031 420.640625 190.65625 L 420.640625 166.445312 C 420.640625 162.390625 417.34375 159.09375 413.292969 159.09375 L 409.671875 159.09375 L 409.671875 156.898438 L 413.292969 156.898438 C 418.554688 156.898438 422.835938 161.179688 422.835938 166.445312 L 422.835938 190.65625 C 422.835938 195.917969 418.554688 200.203125 413.292969 200.203125 L 409.671875 200.203125 L 409.671875 198.007812 " fill-opacity="1" fill-rule="nonzero"/></g><path fill="#d3c3c7" d="M 271.351562 112.875 L 257.140625 104.75 L 251.4375 104.75 L 237.230469 112.875 L 234.328125 112.875 L 234.328125 115.921875 L 274.25 115.921875 L 274.25 112.875 L 271.351562 112.875 " fill-opacity="1" fill-rule="nonzero"/><path fill="#d3c3c7" d="M 258.785156 102.886719 L 249.796875 102.886719 L 249.796875 95.824219 L 258.785156 95.824219 L 258.785156 102.886719 " fill-opacity="1" fill-rule="nonzero"/><path fill="#b79fa6" d="M 257.140625 102.886719 L 251.4375 102.886719 L 251.4375 104.746094 L 257.140625 104.746094 L 257.140625 102.886719 " fill-opacity="1" fill-rule="nonzero"/><path fill="#b79fa6" d="M 257.636719 101.289062 L 256.875 101.289062 L 256.875 97.417969 L 257.636719 97.417969 L 257.636719 101.289062 " fill-opacity="1" fill-rule="nonzero"/><path fill="#b79fa6" d="M 255.957031 101.289062 L 255.195312 101.289062 L 255.195312 97.417969 L 255.957031 97.417969 L 255.957031 101.289062 " fill-opacity="1" fill-rule="nonzero"/><path fill="#e0d4d6" d="M 274.25 115.917969 L 234.332031 115.917969 L 234.332031 112.871094 L 274.25 112.871094 L 274.25 115.917969 " fill-opacity="1" fill-rule="nonzero"/><path fill="#d3c3c7" d="M 317.019531 112.875 L 302.8125 104.75 L 297.109375 104.75 L 282.898438 112.875 L 280 112.875 L 280 115.921875 L 319.917969 115.921875 L 319.917969 112.875 L 317.019531 112.875 " fill-opacity="1" fill-rule="nonzero"/><path fill="#d3c3c7" d="M 304.457031 102.886719 L 295.464844 102.886719 L 295.464844 95.824219 L 304.457031 95.824219 L 304.457031 102.886719 " fill-opacity="1" fill-rule="nonzero"/><path fill="#b79fa6" d="M 302.8125 102.886719 L 297.109375 102.886719 L 297.109375 104.746094 L 302.8125 104.746094 L 302.8125 102.886719 " fill-opacity="1" fill-rule="nonzero"/><path fill="#b79fa6" d="M 303.308594 101.289062 L 302.546875 101.289062 L 302.546875 97.417969 L 303.308594 97.417969 L 303.308594 101.289062 " fill-opacity="1" fill-rule="nonzero"/><path fill="#b79fa6" d="M 301.628906 101.289062 L 300.867188 101.289062 L 300.867188 97.417969 L 301.628906 97.417969 L 301.628906 101.289062 " fill-opacity="1" fill-rule="nonzero"/><path fill="#e0d4d6" d="M 319.921875 115.917969 L 280 115.917969 L 280 112.871094 L 319.921875 112.871094 L 319.921875 115.917969 " fill-opacity="1" fill-rule="nonzero"/><path fill="#d3c3c7" d="M 362.691406 112.875 L 348.480469 104.746094 L 342.777344 104.746094 L 328.570312 112.875 L 325.667969 112.875 L 325.667969 115.921875 L 365.589844 115.921875 L 365.589844 112.875 L 362.691406 112.875 " fill-opacity="1" fill-rule="nonzero"/><path fill="#d3c3c7" d="M 350.125 102.886719 L 341.136719 102.886719 L 341.136719 95.824219 L 350.125 95.824219 L 350.125 102.886719 " fill-opacity="1" fill-rule="nonzero"/><path fill="#b79fa6" d="M 348.480469 102.886719 L 342.777344 102.886719 L 342.777344 104.746094 L 348.480469 104.746094 L 348.480469 102.886719 " fill-opacity="1" fill-rule="nonzero"/><path fill="#b79fa6" d="M 348.976562 101.289062 L 348.214844 101.289062 L 348.214844 97.417969 L 348.976562 97.417969 L 348.976562 101.289062 " fill-opacity="1" fill-rule="nonzero"/><path fill="#b79fa6" d="M 347.296875 101.289062 L 346.535156 101.289062 L 346.535156 97.417969 L 347.296875 97.417969 L 347.296875 101.289062 " fill-opacity="1" fill-rule="nonzero"/><path fill="#e0d4d6" d="M 365.589844 115.921875 L 325.667969 115.921875 L 325.667969 112.875 L 365.589844 112.875 L 365.589844 115.921875 " fill-opacity="1" fill-rule="nonzero"/><g clip-path="url(#58f212d1bf)"><path fill="#2e3247" d="M 399.617188 82.183594 L 201.222656 82.183594 L 201.222656 84.378906 L 399.617188 84.378906 L 399.617188 82.183594 " fill-opacity="1" fill-rule="nonzero"/></g><path fill="#12141a" d="M 254.820312 84.378906 L 253.761719 84.378906 L 253.761719 95.824219 L 254.820312 95.824219 L 254.820312 84.378906 " fill-opacity="1" fill-rule="nonzero"/><path fill="#12141a" d="M 300.492188 84.378906 L 299.429688 84.378906 L 299.429688 95.824219 L 300.492188 95.824219 L 300.492188 84.378906 " fill-opacity="1" fill-rule="nonzero"/><path fill="#12141a" d="M 346.160156 84.378906 L 345.101562 84.378906 L 345.101562 95.824219 L 346.160156 95.824219 L 346.160156 84.378906 " fill-opacity="1" fill-rule="nonzero"/><path fill="#6a87a1" d="M 219.324219 168.175781 L 222.917969 168.175781 L 222.917969 165.886719 L 219.324219 165.886719 Z M 219.324219 168.175781 " fill-opacity="1" fill-rule="nonzero"/><path fill="#6a87a1" d="M 381 168.171875 L 377.402344 168.171875 L 377.402344 165.886719 L 381 165.886719 L 381 168.171875 " fill-opacity="1" fill-rule="nonzero"/><path fill="#303c54" d="M 217.097656 211.109375 L 225.144531 211.109375 L 225.144531 207.234375 L 217.097656 207.234375 Z M 217.097656 211.109375 " fill-opacity="1" fill-rule="nonzero"/><path fill="#6274a7" d="M 230.382812 247.976562 L 211.859375 247.976562 L 217.097656 245.78125 L 225.144531 245.78125 L 230.382812 247.976562 " fill-opacity="1" fill-rule="nonzero"/><path fill="#303c54" d="M 383.222656 211.109375 L 375.179688 211.109375 L 375.179688 207.234375 L 383.222656 207.234375 L 383.222656 211.109375 " fill-opacity="1" fill-rule="nonzero"/><path fill="#ffffff" d="M 369.9375 247.976562 L 373.082031 246.65625 L 369.9375 247.976562 M 384.53125 246.328125 L 383.222656 245.78125 L 384.53125 246.328125 " fill-opacity="1" fill-rule="nonzero"/><path fill="#6274a7" d="M 388.464844 247.976562 L 369.9375 247.976562 L 373.082031 246.65625 L 375.179688 245.78125 L 383.222656 245.78125 L 384.53125 246.328125 L 388.464844 247.976562 " fill-opacity="1" fill-rule="nonzero"/><path fill="#d3c3c7" d="M 409.671875 207.234375 L 190.652344 207.234375 L 190.652344 191.867188 L 409.671875 191.867188 L 409.671875 207.234375 " fill-opacity="1" fill-rule="nonzero"/><path fill="#c7b4b8" d="M 409.671875 207.234375 L 190.652344 207.234375 L 190.652344 203.089844 L 409.671875 203.089844 L 409.671875 207.234375 " fill-opacity="1" fill-rule="nonzero"/><path fill="#4988cf" d="M 336.179688 249.867188 L 256.703125 249.867188 L 256.703125 229.503906 C 260.730469 229.125 261.09375 226.628906 265.773438 226.628906 C 270.839844 226.628906 270.839844 229.554688 275.90625 229.554688 C 280.972656 229.554688 280.972656 226.628906 286.039062 226.628906 C 291.101562 226.628906 291.101562 229.554688 296.164062 229.554688 C 301.226562 229.554688 301.226562 226.628906 306.292969 226.628906 C 311.359375 226.628906 311.359375 229.554688 316.421875 229.554688 C 321.488281 229.554688 321.488281 226.628906 326.550781 226.628906 C 331.4375 226.628906 331.625 229.347656 336.179688 229.539062 L 336.179688 249.867188 " fill-opacity="1" fill-rule="nonzero"/><path fill="#687b99" d="M 264.703125 243.691406 L 256.699219 243.691406 L 256.699219 239.671875 L 264.703125 239.671875 L 264.703125 243.691406 " fill-opacity="1" fill-rule="nonzero"/><path fill="#48597e" d="M 264.703125 249.867188 L 270.851562 249.867188 L 270.851562 232.109375 L 264.703125 232.109375 L 264.703125 249.867188 " fill-opacity="1" fill-rule="nonzero"/><path fill="#687b99" d="M 293.121094 247.777344 L 270.851562 247.777344 L 270.851562 234.195312 L 293.121094 234.195312 L 293.121094 247.777344 " fill-opacity="1" fill-rule="nonzero"/><path fill="#48597e" d="M 293.121094 242.785156 L 299.5 242.785156 L 299.5 239.1875 L 293.121094 239.1875 L 293.121094 242.785156 " fill-opacity="1" fill-rule="nonzero"/><path fill="#48597e" d="M 287.667969 242.785156 L 290.105469 242.785156 L 290.105469 249.867188 L 287.667969 249.867188 L 287.667969 242.785156 " fill-opacity="1" fill-rule="nonzero"/></svg>