<svg width="800" height="450" viewBox="0 0 800 450" fill="none" xmlns="http://www.w3.org/2000/svg">
<g clip-path="url(#clip0_1_524)">
<path d="M0.59375 0H799.406V459.318H0.59375V0Z" fill="white"/>
<path d="M0.59375 0H799.406V449.333H0.59375V0Z" fill="white"/>
<path d="M0.59375 0H799.406V449.333H0.59375V0Z" fill="#CED89E"/>
<path d="M800 207.391C800.01 207.224 799.979 207.068 799.927 206.922C799.922 206.911 799.927 206.901 799.922 206.896L755.344 89.7187C755.339 89.6979 755.323 89.6927 755.318 89.6771C755.24 89.5052 755.141 89.3385 754.984 89.2187L656.948 11.1614C656.797 11.0364 656.609 10.9479 656.401 10.9114C656.385 10.9062 656.37 10.9062 656.359 10.9062L576.339 0.0104061C576.182 -0.00521888 576.016 0.00519779 575.859 0.0468644L537.719 10.8958H536.635C536.417 10.8958 536.214 10.9531 536.031 11.0625C536.031 11.0625 536.031 11.0625 536.026 11.0625L535.057 11.651L441.188 38.3542C441.156 38.3646 441.135 38.3906 441.109 38.401C440.984 38.4479 440.87 38.5156 440.766 38.6042C440.724 38.6406 440.677 38.6667 440.641 38.7083C440.62 38.7344 440.594 38.7396 440.578 38.7656L358.37 145.583C358.344 145.615 358.339 145.651 358.318 145.687C358.286 145.734 358.255 145.776 358.234 145.828C358.219 145.859 358.214 145.896 358.203 145.927C358.182 145.995 358.167 146.057 358.161 146.12C358.151 146.161 358.135 146.193 358.13 146.234L352.953 240.172C352.948 240.255 352.953 240.339 352.969 240.422L360.547 287.932C360.557 287.995 360.589 288.047 360.609 288.109C360.62 288.151 360.615 288.193 360.635 288.229C360.635 288.24 360.646 288.245 360.651 288.255C360.656 288.271 360.656 288.281 360.661 288.297L398.938 361.26C399 361.385 399.089 361.5 399.198 361.594L444.089 401.318C444.156 401.401 444.24 401.469 444.328 401.531L496.234 436.547C496.38 436.641 496.542 436.703 496.714 436.734L578.146 449.406L578.161 449.411C578.167 449.411 578.167 449.411 578.177 449.411C578.234 449.422 578.297 449.427 578.354 449.427C578.354 449.427 578.354 449.427 578.359 449.427C578.438 449.427 578.521 449.417 578.599 449.401C578.599 449.401 578.599 449.401 578.604 449.396H578.609H578.615C578.62 449.391 578.63 449.391 578.635 449.391C578.641 449.391 578.646 449.391 578.641 449.391H578.646L578.651 449.385C578.656 449.385 578.656 449.385 578.656 449.385C578.656 449.385 578.656 449.385 578.661 449.385C578.661 449.385 578.661 449.38 578.667 449.38C578.672 449.38 578.672 449.38 578.677 449.375L711.75 410.448C711.802 410.437 711.828 410.385 711.875 410.365C712.005 410.307 712.104 410.234 712.203 410.135C712.25 410.094 712.318 410.083 712.354 410.031L793.313 303.161C793.443 302.99 793.5 302.797 793.526 302.594C793.526 302.573 793.547 302.557 793.552 302.531L800 207.391ZM791.271 301.521L756.26 310.385L797.193 214.161L791.271 301.521ZM649.193 287.891L520.172 242.448L617.479 172.307L649.193 287.891ZM617.484 168.521L520.453 104.99L646.615 68.8594L617.484 168.521ZM616.099 170.417L518.839 240.521V106.74L616.099 170.417ZM516.495 240.927L406.115 186.698L516.495 106.865V240.927ZM540.401 370.932L435.177 311.917L516.88 244.974L540.401 370.932ZM519.193 244.594L648.484 290.13L542.818 371.094L519.193 244.594ZM649.901 292L656.719 388.812L544.927 372.427L649.901 292ZM651.406 287.078L619.75 171.708L727.396 182.474L651.406 287.078ZM728.896 184.396L752.771 310.578L652.922 288.979L728.896 184.396ZM754.682 308.089L731.083 183.339L797.266 207.984L754.682 308.089ZM729.063 178.807L651.047 68.9375L752.802 91.026L729.063 178.807ZM727.099 180.089L619.693 169.344L648.786 69.7969L727.099 180.089ZM519.203 102.906L537.479 13.7917L645.099 66.8542L519.203 102.906ZM516.786 103.036L434.234 75.4062L534.948 14.4583L516.786 103.036ZM515.13 104.953L405.76 184.062L432.286 77.2292L515.13 104.953ZM403.188 184.698L361.005 146.271L429.323 79.4427L403.188 184.698ZM430.411 75.099L370.396 133.807L438.771 44.9635L430.411 75.099ZM402.448 187.203L362.776 282.13L360.521 148.995L402.448 187.203ZM403.531 190.687L431.484 310.307L363.266 287.042L403.531 190.687ZM405.552 189.036L515.51 243.057L433.818 310L405.552 189.036ZM538.969 372.823L445.948 399.047L434.583 314.276L538.969 372.823ZM541.385 374.578L576.047 446.182L448.818 400.677L541.385 374.578ZM578.797 446.474L544.031 374.667L654.974 390.932L578.797 446.474ZM659 387.854L652.198 291.219L751.62 312.729L659 387.854ZM751.224 316.068L710.797 407.849L660.344 389.786L751.224 316.068ZM755.094 313.099L789.432 304.411L716.531 400.646L755.094 313.099ZM730.958 180.786L754.443 93.9271L796.813 205.307L730.958 180.786ZM657.073 14.2604L749.589 87.9219L649.651 66.2292L657.073 14.2604ZM576.266 2.36978L638.891 10.8958H546.297L576.266 2.36978ZM654.854 13.2396L647.406 65.3802L541.667 13.2396H654.854ZM433.375 73.1823L442.464 40.4323L527.448 16.2552L433.375 73.1823ZM355.297 240.177L358.677 178.844L360.245 271.198L355.297 240.177ZM400.911 359.979L369.854 300.766L437.427 392.302L400.911 359.979ZM364.87 290.068L432.042 312.974L443.198 396.172L364.87 290.068ZM453.328 404.781L566.307 445.187L497.323 434.448L453.328 404.781ZM658.177 391.5L707.63 409.214L584.474 445.24L658.177 391.5Z" fill="white"/>
<path d="M641.469 132.453H759.167V281.188H641.469V132.453Z" fill="#FFC34C"/>
<path d="M752.104 276.49C750.802 276.49 749.75 275.438 749.75 274.141V227.391C749.75 226.089 750.802 225.042 752.104 225.042C753.401 225.042 754.458 226.089 754.458 227.391V274.141C754.458 275.438 753.401 276.49 752.104 276.49Z" fill="#FFD551"/>
<path d="M641.469 132.453H665.005V281.188H641.469V132.453Z" fill="#F9BB32"/>
<path d="M747.396 203.297C747.396 204.833 747.318 206.37 747.167 207.901C747.016 209.432 746.792 210.953 746.49 212.458C746.188 213.969 745.818 215.458 745.37 216.932C744.922 218.401 744.401 219.849 743.813 221.271C743.224 222.693 742.563 224.083 741.839 225.438C741.109 226.797 740.318 228.115 739.458 229.391C738.604 230.672 737.688 231.906 736.708 233.094C735.729 234.281 734.698 235.422 733.604 236.51C732.516 237.599 731.375 238.63 730.182 239.604C728.99 240.578 727.755 241.495 726.474 242.349C725.188 243.203 723.87 243.995 722.51 244.719C721.151 245.443 719.755 246.104 718.333 246.693C716.906 247.281 715.458 247.797 713.984 248.245C712.505 248.688 711.01 249.063 709.5 249.365C707.99 249.661 706.464 249.891 704.932 250.042C703.396 250.193 701.859 250.266 700.318 250.266C698.776 250.266 697.234 250.193 695.703 250.042C694.167 249.891 692.646 249.661 691.13 249.365C689.62 249.063 688.125 248.688 686.651 248.245C685.172 247.797 683.724 247.281 682.297 246.693C680.875 246.104 679.484 245.443 678.125 244.719C676.76 243.995 675.443 243.203 674.161 242.349C672.88 241.495 671.641 240.578 670.448 239.604C669.255 238.63 668.115 237.599 667.026 236.51C665.938 235.422 664.901 234.281 663.922 233.094C662.943 231.906 662.026 230.672 661.172 229.391C660.313 228.115 659.521 226.797 658.797 225.438C658.068 224.083 657.411 222.693 656.818 221.271C656.229 219.849 655.714 218.401 655.266 216.932C654.818 215.458 654.443 213.969 654.141 212.458C653.839 210.953 653.615 209.432 653.464 207.901C653.313 206.37 653.234 204.833 653.234 203.297C653.234 201.76 653.313 200.224 653.464 198.693C653.615 197.161 653.839 195.641 654.141 194.135C654.443 192.625 654.818 191.135 655.266 189.661C655.714 188.193 656.229 186.745 656.818 185.323C657.411 183.901 658.068 182.51 658.797 181.156C659.521 179.797 660.313 178.479 661.172 177.203C662.026 175.922 662.943 174.688 663.922 173.5C664.901 172.313 665.938 171.172 667.026 170.083C668.115 168.995 669.255 167.964 670.448 166.99C671.641 166.016 672.88 165.099 674.161 164.245C675.443 163.391 676.76 162.599 678.125 161.875C679.484 161.151 680.875 160.495 682.297 159.901C683.724 159.313 685.172 158.797 686.651 158.349C688.125 157.906 689.62 157.531 691.13 157.229C692.646 156.932 694.167 156.703 695.703 156.552C697.234 156.406 698.776 156.328 700.318 156.328C701.859 156.328 703.396 156.406 704.932 156.552C706.464 156.703 707.99 156.932 709.5 157.229C711.01 157.531 712.505 157.906 713.984 158.349C715.458 158.797 716.906 159.313 718.333 159.901C719.755 160.495 721.151 161.151 722.51 161.875C723.87 162.599 725.188 163.391 726.474 164.245C727.755 165.099 728.99 166.016 730.182 166.99C731.375 167.964 732.516 168.995 733.604 170.083C734.698 171.172 735.729 172.313 736.708 173.5C737.688 174.688 738.604 175.922 739.458 177.203C740.318 178.479 741.109 179.797 741.839 181.156C742.563 182.51 743.224 183.901 743.813 185.323C744.401 186.745 744.922 188.193 745.37 189.661C745.818 191.135 746.188 192.625 746.49 194.135C746.792 195.641 747.016 197.161 747.167 198.693C747.318 200.224 747.396 201.76 747.396 203.297Z" fill="#FFDF74"/>
<path d="M665.005 172.234C657.682 180.516 653.234 191.385 653.234 203.297C653.234 215.208 657.682 226.078 665.005 234.359V172.234Z" fill="#FFD551"/>
<path d="M760.625 117H640.005C637.078 117 635.182 120.078 636.505 122.682L641.469 132.453H759.167L764.125 122.682C765.448 120.078 763.552 117 760.625 117Z" fill="#DB9C2E"/>
<path d="M640.005 296.641H760.625C763.552 296.641 765.448 293.563 764.125 290.958L759.167 281.188H641.463L636.505 290.958C635.182 293.563 637.078 296.641 640.005 296.641Z" fill="#DB9C2E"/>
<path d="M625.042 196.682H632.021V279.792H625.042V196.682Z" fill="#CCC033"/>
<path d="M625.042 196.682H629.479V279.792H625.042V196.682Z" fill="#99AF17"/>
<path d="M631.969 218.891C670.422 215.432 667.219 185.938 665.255 176.724C664.922 175.167 662.901 174.521 660.797 175.292C648.089 179.969 608.62 196.667 628.026 217.672C628.875 218.594 630.323 219.036 631.969 218.891Z" fill="#CCC033"/>
<path d="M665.708 179.182C665.562 178.26 665.406 177.432 665.255 176.724C664.922 175.167 662.901 174.521 660.802 175.292C655.026 177.417 643.729 182.021 634.937 188.385C634.781 188.5 634.62 188.615 634.464 188.734C634.443 188.75 634.422 188.766 634.401 188.781C634.266 188.88 634.125 188.984 633.99 189.083C633.964 189.109 633.932 189.13 633.906 189.151C633.776 189.25 633.651 189.344 633.526 189.443C633.49 189.469 633.458 189.495 633.422 189.521C633.302 189.615 633.182 189.708 633.062 189.802C633.026 189.833 632.99 189.859 632.953 189.891C632.833 189.984 632.719 190.078 632.599 190.172C632.568 190.203 632.531 190.229 632.495 190.255C632.38 190.354 632.26 190.453 632.141 190.547C632.109 190.573 632.078 190.599 632.047 190.625C631.922 190.729 631.802 190.833 631.677 190.938C631.656 190.958 631.63 190.979 631.609 190.995C631.464 191.12 631.323 191.24 631.187 191.359C631.182 191.365 631.177 191.365 631.177 191.37C630.74 191.755 630.312 192.141 629.896 192.536C629.88 192.552 629.865 192.568 629.849 192.583C629.729 192.698 629.615 192.807 629.5 192.922C629.469 192.948 629.437 192.979 629.411 193.005C629.307 193.109 629.208 193.208 629.109 193.307C629.073 193.344 629.036 193.38 629.005 193.417C628.911 193.51 628.818 193.604 628.724 193.703C628.687 193.74 628.651 193.781 628.615 193.818C628.526 193.911 628.437 194.005 628.349 194.099C628.312 194.141 628.276 194.182 628.234 194.219C628.151 194.313 628.068 194.406 627.984 194.5C627.948 194.542 627.911 194.583 627.875 194.625C627.786 194.719 627.703 194.813 627.62 194.911C627.589 194.948 627.552 194.99 627.521 195.026C627.432 195.13 627.349 195.229 627.266 195.333C627.234 195.365 627.208 195.401 627.177 195.432C627.083 195.552 626.984 195.667 626.891 195.786C626.88 195.807 626.865 195.823 626.849 195.839C626.63 196.12 626.411 196.401 626.208 196.682C626.203 196.688 626.198 196.693 626.198 196.698C626.099 196.828 626.005 196.964 625.911 197.099C625.885 197.13 625.865 197.167 625.844 197.198C625.771 197.302 625.698 197.411 625.625 197.516C625.599 197.557 625.568 197.604 625.542 197.646C625.479 197.745 625.417 197.839 625.354 197.938C625.323 197.984 625.292 198.036 625.266 198.083C625.203 198.177 625.146 198.271 625.094 198.365C625.062 198.417 625.031 198.464 625 198.516C624.948 198.609 624.896 198.698 624.844 198.792C624.812 198.844 624.781 198.896 624.755 198.948C624.703 199.042 624.651 199.135 624.604 199.224C624.578 199.276 624.547 199.328 624.521 199.385C624.469 199.479 624.422 199.573 624.375 199.667C624.349 199.719 624.323 199.766 624.302 199.818C624.25 199.917 624.203 200.016 624.156 200.115C624.135 200.161 624.115 200.208 624.094 200.255C624.042 200.365 623.995 200.479 623.948 200.589C623.932 200.625 623.917 200.661 623.901 200.693C623.776 200.99 623.661 201.286 623.557 201.589C623.547 201.615 623.536 201.646 623.526 201.672C623.484 201.792 623.443 201.911 623.406 202.036C623.391 202.083 623.38 202.13 623.365 202.177C623.333 202.276 623.302 202.38 623.271 202.484C623.255 202.536 623.24 202.594 623.229 202.646C623.203 202.745 623.177 202.839 623.151 202.932C623.135 202.995 623.125 203.052 623.109 203.109C623.089 203.203 623.068 203.297 623.047 203.391C623.036 203.448 623.021 203.51 623.01 203.573C622.99 203.667 622.974 203.755 622.958 203.849C622.948 203.911 622.937 203.974 622.927 204.031C622.911 204.125 622.896 204.219 622.885 204.307C622.875 204.37 622.865 204.432 622.859 204.495C622.849 204.589 622.839 204.682 622.828 204.776C622.818 204.839 622.812 204.896 622.807 204.958C622.797 205.057 622.792 205.156 622.786 205.255C622.781 205.307 622.776 205.365 622.771 205.422C622.766 205.531 622.766 205.641 622.76 205.75C622.755 205.797 622.755 205.844 622.755 205.891C622.75 206.203 622.755 206.516 622.771 206.833C622.776 206.875 622.776 206.922 622.781 206.964C622.786 207.078 622.797 207.193 622.807 207.307C622.812 207.365 622.818 207.422 622.823 207.484C622.833 207.583 622.844 207.682 622.859 207.781C622.865 207.849 622.875 207.911 622.885 207.974C622.901 208.068 622.911 208.167 622.932 208.26C622.943 208.328 622.953 208.396 622.964 208.464C622.984 208.552 623 208.646 623.021 208.745C623.036 208.813 623.047 208.88 623.062 208.948C623.083 209.042 623.104 209.135 623.13 209.229C623.146 209.297 623.161 209.365 623.182 209.432C623.203 209.526 623.229 209.62 623.255 209.714C623.276 209.781 623.297 209.854 623.312 209.922C623.344 210.016 623.375 210.115 623.401 210.208C623.427 210.276 623.448 210.344 623.469 210.411C623.5 210.51 623.536 210.609 623.573 210.708C623.594 210.771 623.62 210.833 623.641 210.901C623.682 211.01 623.729 211.12 623.771 211.229C623.792 211.286 623.812 211.339 623.833 211.391C623.901 211.552 623.969 211.708 624.042 211.87C624.047 211.875 624.047 211.88 624.047 211.885C624.125 212.052 624.203 212.214 624.281 212.38C624.307 212.432 624.339 212.49 624.365 212.542C624.422 212.656 624.479 212.766 624.536 212.88C624.573 212.943 624.609 213.01 624.646 213.073C624.703 213.177 624.76 213.276 624.818 213.38C624.854 213.448 624.896 213.516 624.937 213.589C624.995 213.688 625.052 213.781 625.115 213.88C625.156 213.953 625.203 214.026 625.25 214.099C625.312 214.193 625.37 214.292 625.437 214.385C625.484 214.458 625.531 214.531 625.583 214.604C625.646 214.703 625.714 214.797 625.776 214.896C625.828 214.969 625.88 215.042 625.932 215.115C626 215.214 626.073 215.307 626.146 215.406C626.198 215.479 626.25 215.552 626.307 215.625C626.38 215.724 626.458 215.823 626.536 215.922C626.589 215.99 626.646 216.063 626.703 216.135C626.786 216.24 626.87 216.339 626.953 216.443C627.01 216.51 627.062 216.578 627.12 216.646C627.219 216.76 627.318 216.875 627.417 216.99C627.464 217.047 627.51 217.104 627.562 217.161C627.714 217.333 627.87 217.505 628.026 217.677C628.104 217.755 628.182 217.833 628.271 217.906C628.307 217.938 628.349 217.969 628.385 218C628.432 218.036 628.474 218.068 628.521 218.104C628.578 218.141 628.635 218.182 628.693 218.219C628.719 218.234 628.745 218.245 628.771 218.26C628.948 218.37 629.135 218.469 629.339 218.547C630.208 218.635 631.099 218.714 632.01 218.776C632.417 218.802 632.812 218.797 633.193 218.766C633.318 218.75 633.443 218.74 633.568 218.724C634.859 218.552 635.958 218.036 636.672 217.234C644.818 208.047 643.865 199.714 638.609 192.568C647.396 186.208 658.687 181.604 664.458 179.479C664.885 179.323 665.307 179.229 665.708 179.182Z" fill="#99AF17"/>
<path d="M625.135 220.026C579.771 212.443 586.255 177.703 589.427 166.937C589.964 165.115 592.422 164.531 594.849 165.641C609.521 172.339 654.885 195.745 629.927 218.943C628.833 219.953 627.073 220.354 625.135 220.026Z" fill="#EACF32"/>
<path d="M597.797 167.021C596.719 166.505 595.729 166.042 594.849 165.641C592.422 164.531 589.964 165.115 589.427 166.932C586.255 177.703 579.771 212.443 625.135 220.026C627.073 220.349 628.833 219.953 629.927 218.938C630.969 217.974 631.885 217 632.687 216.036C593.542 208.651 594.865 180.307 597.797 167.021Z" fill="#CCC033"/>
<path d="M628.974 214C628.302 214 627.635 213.714 627.167 213.156L615.245 198.927C614.411 197.932 614.542 196.448 615.536 195.62C616.536 194.786 618.021 194.917 618.854 195.911L630.781 210.146C631.615 211.141 631.484 212.62 630.484 213.453C630.042 213.823 629.51 214 628.974 214Z" fill="#FCDA4F"/>
<path d="M698.693 192.896H702.875V234.219H698.693V192.896Z" fill="#CCC033"/>
<path d="M698.693 192.896H701.354V234.219H698.693V192.896Z" fill="#99AF17"/>
<path d="M702.844 206.219C725.917 204.141 724 186.448 722.818 180.917C722.62 179.984 721.406 179.594 720.146 180.057C712.521 182.865 688.833 192.885 700.479 205.49C700.99 206.042 701.859 206.307 702.844 206.219Z" fill="#CCC033"/>
<path d="M723.094 182.396C723.005 181.839 722.906 181.344 722.818 180.917C722.62 179.984 721.406 179.594 720.146 180.057C716.682 181.333 709.901 184.094 704.63 187.911C704.531 187.984 704.438 188.052 704.344 188.12C704.333 188.13 704.318 188.141 704.307 188.151C704.224 188.214 704.141 188.271 704.063 188.333C704.042 188.349 704.026 188.359 704.005 188.375C703.932 188.432 703.854 188.49 703.781 188.547C703.76 188.562 703.74 188.583 703.719 188.599C703.646 188.651 703.573 188.708 703.505 188.766C703.479 188.781 703.458 188.797 703.438 188.818C703.365 188.875 703.297 188.927 703.224 188.984C703.203 189.005 703.182 189.021 703.167 189.036C703.094 189.094 703.021 189.151 702.948 189.214C702.932 189.229 702.911 189.245 702.896 189.255C702.823 189.318 702.745 189.38 702.672 189.443C702.656 189.458 702.646 189.469 702.63 189.479C702.547 189.552 702.458 189.625 702.375 189.698C702.375 189.698 702.375 189.703 702.37 189.703C702.109 189.932 701.854 190.167 701.604 190.401C701.594 190.411 701.583 190.422 701.573 190.432C701.505 190.5 701.432 190.568 701.365 190.635C701.349 190.651 701.328 190.672 701.313 190.687C701.25 190.745 701.188 190.807 701.13 190.87C701.109 190.891 701.089 190.911 701.068 190.932C701.01 190.99 700.953 191.047 700.901 191.104C700.875 191.125 700.854 191.151 700.833 191.172C700.781 191.229 700.729 191.286 700.677 191.339C700.651 191.365 700.63 191.391 700.609 191.411C700.557 191.469 700.505 191.526 700.453 191.583C700.432 191.604 700.411 191.63 700.391 191.656C700.339 191.714 700.286 191.771 700.24 191.828C700.219 191.849 700.198 191.875 700.177 191.896C700.125 191.958 700.073 192.021 700.026 192.078C700.005 192.099 699.99 192.12 699.974 192.141C699.917 192.214 699.859 192.281 699.802 192.354C699.792 192.365 699.781 192.375 699.776 192.385C699.641 192.552 699.516 192.719 699.391 192.891C699.385 192.896 699.385 192.896 699.385 192.901C699.323 192.979 699.271 193.062 699.214 193.141C699.198 193.161 699.188 193.182 699.172 193.198C699.125 193.26 699.083 193.328 699.042 193.391C699.021 193.417 699.005 193.443 698.99 193.469C698.953 193.526 698.917 193.583 698.875 193.646C698.859 193.672 698.839 193.703 698.823 193.729C698.786 193.786 698.755 193.844 698.719 193.901C698.703 193.932 698.682 193.958 698.667 193.99C698.635 194.047 698.599 194.099 698.568 194.156C698.552 194.187 698.536 194.219 698.516 194.25C698.484 194.307 698.458 194.359 698.427 194.417C698.411 194.448 698.396 194.479 698.38 194.51C698.349 194.568 698.318 194.625 698.292 194.682C698.276 194.714 698.26 194.74 698.245 194.771C698.219 194.833 698.188 194.891 698.161 194.953C698.146 194.979 698.135 195.005 698.12 195.031C698.094 195.099 698.063 195.167 698.031 195.234C698.026 195.255 698.016 195.276 698.005 195.297C697.932 195.474 697.865 195.651 697.797 195.833C697.792 195.849 697.786 195.87 697.781 195.885C697.755 195.958 697.734 196.026 697.708 196.099C697.698 196.13 697.693 196.156 697.682 196.187C697.667 196.245 697.646 196.307 697.63 196.37C697.62 196.401 697.609 196.437 697.604 196.469C697.583 196.526 697.573 196.583 697.557 196.641C697.547 196.677 697.542 196.708 697.531 196.745C697.521 196.802 697.505 196.859 697.495 196.911C697.484 196.948 697.479 196.984 697.474 197.021C697.458 197.078 697.448 197.13 697.438 197.187C697.432 197.224 697.427 197.26 697.422 197.297C697.411 197.354 697.406 197.411 697.396 197.464C697.391 197.5 697.385 197.536 697.38 197.578C697.375 197.63 697.365 197.687 697.359 197.745C697.359 197.781 697.354 197.818 697.349 197.854C697.344 197.911 697.339 197.974 697.339 198.031C697.333 198.062 697.333 198.099 697.328 198.13C697.323 198.198 697.323 198.266 697.323 198.328C697.323 198.354 697.318 198.385 697.318 198.411C697.313 198.599 697.318 198.786 697.328 198.979C697.328 199.005 697.333 199.031 697.333 199.057C697.339 199.125 697.344 199.193 697.349 199.26C697.354 199.297 697.354 199.333 697.359 199.37C697.365 199.427 697.375 199.49 697.38 199.547C697.385 199.589 697.391 199.625 697.396 199.661C697.406 199.719 697.411 199.776 697.422 199.833C697.427 199.875 697.438 199.917 697.443 199.953C697.453 200.01 697.464 200.068 697.474 200.125C697.484 200.167 697.495 200.203 697.5 200.245C697.516 200.302 697.526 200.359 697.542 200.411C697.552 200.453 697.563 200.495 697.573 200.536C697.583 200.594 697.599 200.651 697.615 200.708C697.63 200.745 697.641 200.786 697.651 200.828C697.667 200.885 697.688 200.943 697.703 201C697.719 201.042 697.729 201.083 697.745 201.125C697.766 201.182 697.786 201.245 697.807 201.302C697.823 201.339 697.833 201.38 697.849 201.417C697.875 201.484 697.901 201.552 697.927 201.615C697.938 201.646 697.953 201.682 697.964 201.714C698.005 201.807 698.047 201.906 698.089 202C698.094 202.005 698.094 202.005 698.094 202.01C698.141 202.109 698.188 202.208 698.234 202.307C698.25 202.339 698.266 202.37 698.281 202.401C698.318 202.469 698.354 202.536 698.385 202.604C698.406 202.646 698.432 202.682 698.453 202.724C698.484 202.781 698.521 202.844 698.552 202.906C698.578 202.948 698.604 202.99 698.625 203.031C698.661 203.089 698.698 203.146 698.729 203.208C698.76 203.25 698.786 203.292 698.813 203.339C698.849 203.396 698.885 203.453 698.922 203.51C698.953 203.552 698.984 203.599 699.01 203.641C699.052 203.698 699.089 203.755 699.13 203.812C699.161 203.859 699.193 203.901 699.224 203.948C699.266 204.005 699.307 204.062 699.349 204.12C699.38 204.167 699.417 204.208 699.448 204.25C699.49 204.312 699.536 204.37 699.583 204.432C699.62 204.474 699.651 204.516 699.682 204.557C699.734 204.62 699.786 204.682 699.839 204.745C699.87 204.786 699.901 204.823 699.938 204.865C699.995 204.932 700.052 205.005 700.115 205.073C700.141 205.104 700.172 205.141 700.203 205.172C700.292 205.276 700.385 205.38 700.479 205.484C700.526 205.531 700.573 205.578 700.625 205.62C700.646 205.641 700.672 205.661 700.698 205.677C700.724 205.698 700.75 205.719 700.776 205.74C700.813 205.766 700.844 205.786 700.88 205.807C700.896 205.818 700.911 205.828 700.927 205.839C701.031 205.901 701.146 205.958 701.266 206.01C701.792 206.062 702.323 206.109 702.87 206.146C703.115 206.161 703.349 206.156 703.578 206.135C703.656 206.13 703.729 206.125 703.807 206.115C704.583 206.01 705.24 205.703 705.667 205.219C710.552 199.708 709.984 194.708 706.828 190.417C712.104 186.604 718.875 183.844 722.339 182.568C722.594 182.479 722.849 182.422 723.094 182.396Z" fill="#99AF17"/>
<path d="M698.745 206.901C671.526 202.349 675.417 181.505 677.323 175.047C677.641 173.953 679.12 173.604 680.573 174.266C689.375 178.286 716.599 192.328 701.62 206.25C700.963 206.854 699.911 207.094 698.745 206.901Z" fill="#EACF32"/>
<path d="M682.344 175.094C681.698 174.786 681.104 174.51 680.573 174.266C679.12 173.604 677.641 173.953 677.323 175.047C675.417 181.505 671.531 202.349 698.745 206.901C699.911 207.094 700.964 206.859 701.62 206.25C702.245 205.667 702.797 205.083 703.276 204.505C679.792 200.073 680.583 183.068 682.344 175.094Z" fill="#CCC033"/>
<path d="M701.052 204.224C700.38 204.224 699.708 203.938 699.245 203.38L692.089 194.844C691.255 193.849 691.385 192.365 692.385 191.531C693.38 190.703 694.865 190.833 695.698 191.828L702.854 200.37C703.687 201.365 703.557 202.844 702.557 203.677C702.12 204.042 701.583 204.224 701.052 204.224Z" fill="#FCDA4F"/>
<path d="M722.844 219.271L715.823 207.927L708.802 219.271H712.865V234.698H718.781V219.271H722.844Z" fill="#FF4B34"/>
<path d="M663.547 117H640.005C637.078 117 635.182 120.078 636.505 122.682L641.469 132.453H665.005L660.047 122.682C658.724 120.078 660.62 117 663.547 117Z" fill="#BF6C0D"/>
<path d="M705.286 287.417C705.286 283.354 702.401 279.901 698.375 278.625C698.766 277.417 698.979 276.135 698.979 274.797C698.979 268.755 694.672 263.719 688.953 262.578C689.495 261.182 689.797 259.667 689.797 258.078C689.797 251.198 684.203 245.62 677.307 245.62C676.693 245.62 676.094 245.661 675.51 245.75C674.734 239.609 669.484 234.854 663.12 234.854C658.068 234.854 653.719 237.849 651.755 242.156C649.786 237.849 645.438 234.854 640.385 234.854C635.26 234.854 630.859 237.932 628.932 242.339C627.328 241.589 625.536 241.167 623.646 241.167C616.745 241.167 611.151 246.745 611.151 253.625C611.151 254.276 611.203 254.917 611.302 255.542C610.901 255.891 610.5 256.245 610.115 256.604C604.016 257.432 599.313 262.641 599.313 268.948C599.313 269.615 599.365 270.266 599.469 270.901C599.057 271.75 598.677 272.609 598.318 273.484C598.042 273.464 597.771 273.453 597.49 273.453C590.594 273.453 585 279.031 585 285.917C585 290.422 587.396 294.365 590.99 296.552H692.953C693.599 296.667 694.271 296.729 694.953 296.729C695.641 296.729 696.307 296.667 696.953 296.552H697.307C697.313 296.531 697.313 296.505 697.318 296.479C701.885 295.516 705.286 291.823 705.286 287.417Z" fill="#BF6C0D"/>
<path d="M590.99 296.552H602.75C602.75 296.547 602.75 296.542 602.75 296.536C602.75 289.656 608.344 284.073 615.24 284.073C615.516 284.073 615.792 284.089 616.062 284.104C616.422 283.229 616.802 282.37 617.214 281.521C617.115 280.885 617.062 280.234 617.062 279.568C617.062 273.26 621.76 268.052 627.859 267.224C628.25 266.865 628.646 266.51 629.047 266.161C628.953 265.536 628.901 264.896 628.901 264.245C628.901 257.365 634.495 251.786 641.391 251.786C643.286 251.786 645.078 252.208 646.682 252.958C648.609 248.557 653.01 245.474 658.135 245.474C663.187 245.474 667.536 248.474 669.5 252.776C671.172 249.125 674.552 246.422 678.625 245.688C678.193 245.641 677.755 245.615 677.307 245.615C676.698 245.615 676.099 245.661 675.51 245.745C674.74 239.604 669.49 234.854 663.125 234.854C658.073 234.854 653.724 237.849 651.755 242.156C649.792 237.849 645.443 234.854 640.391 234.854C635.266 234.854 630.865 237.932 628.937 242.339C627.333 241.583 625.536 241.161 623.646 241.161C616.75 241.161 611.156 246.745 611.156 253.625C611.156 254.276 611.208 254.917 611.302 255.542C610.901 255.891 610.505 256.245 610.115 256.604C604.016 257.427 599.318 262.641 599.318 268.948C599.318 269.615 599.37 270.266 599.469 270.901C599.057 271.75 598.677 272.609 598.318 273.484C598.047 273.464 597.771 273.453 597.495 273.453C590.594 273.453 585.005 279.031 585.005 285.911C585 290.417 587.401 294.365 590.99 296.552Z" fill="#A56021"/>
<path d="M640.255 278.099C640.255 278.552 640.214 278.995 640.125 279.438C640.036 279.875 639.906 280.307 639.734 280.724C639.562 281.135 639.349 281.531 639.099 281.906C638.849 282.281 638.562 282.625 638.245 282.943C637.927 283.26 637.578 283.547 637.203 283.797C636.828 284.047 636.432 284.255 636.016 284.427C635.599 284.599 635.172 284.729 634.729 284.818C634.286 284.906 633.839 284.948 633.391 284.948C632.937 284.948 632.495 284.906 632.052 284.818C631.609 284.729 631.177 284.599 630.76 284.427C630.344 284.255 629.948 284.047 629.573 283.797C629.203 283.547 628.854 283.26 628.536 282.943C628.219 282.625 627.932 282.281 627.682 281.906C627.432 281.531 627.219 281.135 627.047 280.724C626.875 280.307 626.745 279.875 626.656 279.438C626.568 278.995 626.526 278.552 626.526 278.099C626.526 277.651 626.568 277.203 626.656 276.766C626.745 276.323 626.875 275.896 627.047 275.479C627.219 275.063 627.432 274.667 627.682 274.297C627.932 273.922 628.219 273.573 628.536 273.255C628.854 272.938 629.203 272.656 629.573 272.406C629.948 272.156 630.344 271.943 630.76 271.771C631.177 271.599 631.609 271.469 632.052 271.38C632.495 271.297 632.937 271.25 633.391 271.25C633.839 271.25 634.286 271.297 634.729 271.38C635.172 271.469 635.599 271.599 636.016 271.771C636.432 271.943 636.828 272.156 637.203 272.406C637.578 272.656 637.927 272.938 638.245 273.255C638.562 273.573 638.849 273.922 639.099 274.297C639.349 274.667 639.562 275.063 639.734 275.479C639.906 275.896 640.036 276.323 640.125 276.766C640.214 277.203 640.255 277.651 640.255 278.099Z" fill="#A56021"/>
<path d="M653.203 264.01C653.203 264.458 653.156 264.906 653.073 265.344C652.984 265.786 652.854 266.214 652.682 266.63C652.505 267.047 652.297 267.443 652.047 267.812C651.797 268.187 651.51 268.536 651.193 268.854C650.875 269.172 650.526 269.453 650.151 269.703C649.776 269.953 649.38 270.167 648.964 270.339C648.547 270.51 648.12 270.641 647.677 270.729C647.234 270.818 646.786 270.859 646.339 270.859C645.885 270.859 645.437 270.818 644.995 270.729C644.557 270.641 644.125 270.51 643.708 270.339C643.292 270.167 642.896 269.953 642.521 269.703C642.146 269.453 641.802 269.172 641.484 268.854C641.161 268.536 640.88 268.187 640.63 267.812C640.38 267.443 640.167 267.047 639.995 266.63C639.823 266.214 639.693 265.786 639.604 265.344C639.516 264.906 639.469 264.458 639.469 264.01C639.469 263.557 639.516 263.115 639.604 262.672C639.693 262.234 639.823 261.802 639.995 261.391C640.167 260.974 640.38 260.578 640.63 260.203C640.88 259.828 641.161 259.484 641.484 259.167C641.802 258.849 642.146 258.562 642.521 258.312C642.896 258.062 643.292 257.854 643.708 257.682C644.125 257.51 644.557 257.38 644.995 257.292C645.437 257.203 645.885 257.161 646.339 257.161C646.786 257.161 647.234 257.203 647.677 257.292C648.12 257.38 648.547 257.51 648.964 257.682C649.38 257.854 649.776 258.062 650.151 258.312C650.526 258.562 650.875 258.849 651.193 259.167C651.51 259.484 651.797 259.828 652.047 260.203C652.297 260.578 652.505 260.974 652.682 261.391C652.854 261.802 652.984 262.234 653.073 262.672C653.156 263.115 653.203 263.557 653.203 264.01Z" fill="#A56021"/>
<path d="M91.0625 133.5L88.3125 136.438V142.958H81V116.875H88.3125V127.708L98.4167 116.875H106.542L95.875 128.417L107.104 142.958H98.5208L91.0625 133.5Z" fill="#0F3460"/>
<path d="M118.842 143.292C116.675 143.292 114.722 142.849 112.988 141.958C111.248 141.057 109.889 139.812 108.904 138.229C107.915 136.635 107.425 134.828 107.425 132.812C107.425 130.828 107.915 129.042 108.904 127.458C109.889 125.865 111.243 124.625 112.967 123.75C114.686 122.865 116.644 122.417 118.842 122.417C121.019 122.417 122.977 122.865 124.717 123.75C126.467 124.625 127.821 125.854 128.779 127.437C129.748 129.01 130.238 130.802 130.238 132.812C130.238 134.828 129.748 136.635 128.779 138.229C127.821 139.812 126.467 141.057 124.717 141.958C122.977 142.849 121.019 143.292 118.842 143.292ZM118.842 137.667C120.076 137.667 121.092 137.245 121.884 136.396C122.686 135.536 123.092 134.344 123.092 132.812C123.092 131.328 122.686 130.161 121.884 129.312C121.092 128.469 120.076 128.042 118.842 128.042C117.592 128.042 116.571 128.469 115.779 129.312C114.988 130.161 114.592 131.328 114.592 132.812C114.592 134.344 114.988 135.536 115.779 136.396C116.571 137.245 117.592 137.667 118.842 137.667Z" fill="#0F3460"/>
<path d="M147.457 142.146C146.858 142.51 146.129 142.786 145.27 142.979C144.421 143.188 143.509 143.292 142.541 143.292C139.9 143.292 137.874 142.646 136.457 141.354C135.041 140.063 134.332 138.141 134.332 135.583V128.792H131.395V123.5H134.332V118.25H141.416V123.5H146.041V128.792H141.416V135.5C141.416 136.224 141.608 136.792 141.999 137.208C142.384 137.615 142.9 137.813 143.541 137.813C144.358 137.813 145.082 137.604 145.707 137.188L147.457 142.146Z" fill="#0F3460"/>
<path d="M160.327 143.292C158.16 143.292 156.207 142.849 154.473 141.958C152.733 141.057 151.374 139.812 150.389 138.229C149.4 136.635 148.91 134.828 148.91 132.812C148.91 130.828 149.4 129.042 150.389 127.458C151.374 125.865 152.728 124.625 154.452 123.75C156.17 122.865 158.129 122.417 160.327 122.417C162.504 122.417 164.462 122.865 166.202 123.75C167.952 124.625 169.306 125.854 170.264 127.437C171.233 129.01 171.723 130.802 171.723 132.812C171.723 134.828 171.233 136.635 170.264 138.229C169.306 139.812 167.952 141.057 166.202 141.958C164.462 142.849 162.504 143.292 160.327 143.292ZM160.327 137.667C161.561 137.667 162.577 137.245 163.368 136.396C164.17 135.536 164.577 134.344 164.577 132.812C164.577 131.328 164.17 130.161 163.368 129.312C162.577 128.469 161.561 128.042 160.327 128.042C159.077 128.042 158.056 128.469 157.264 129.312C156.473 130.161 156.077 131.328 156.077 132.812C156.077 134.344 156.473 135.536 157.264 136.396C158.056 137.245 159.077 137.667 160.327 137.667Z" fill="#0F3460"/>
<path d="M181.755 125.187C182.474 124.26 183.411 123.562 184.567 123.104C185.718 122.646 187.046 122.417 188.546 122.417V128.792C187.89 128.724 187.359 128.687 186.942 128.687C185.411 128.687 184.218 129.099 183.359 129.917C182.51 130.74 182.088 131.995 182.088 133.687V142.958H175.005V122.75H181.755V125.187Z" fill="#0F3460"/>
<path d="M200.121 122.417C203.48 122.417 206.043 123.182 207.808 124.708C209.569 126.24 210.454 128.583 210.454 131.75V142.958H203.85V140.354C202.834 142.312 200.85 143.292 197.892 143.292C196.319 143.292 194.965 143.021 193.829 142.479C192.689 141.927 191.829 141.182 191.246 140.25C190.663 139.323 190.371 138.26 190.371 137.062C190.371 135.161 191.1 133.682 192.558 132.625C194.027 131.573 196.293 131.042 199.35 131.042H203.371C203.246 128.906 201.814 127.833 199.079 127.833C198.121 127.833 197.142 127.99 196.142 128.292C195.142 128.599 194.293 129.031 193.6 129.583L191.225 124.771C192.334 124.021 193.689 123.448 195.288 123.042C196.897 122.625 198.506 122.417 200.121 122.417ZM199.871 138.812C200.689 138.812 201.402 138.62 202.017 138.229C202.642 137.828 203.09 137.245 203.371 136.479V134.729H200.308C198.251 134.729 197.225 135.411 197.225 136.771C197.225 137.396 197.459 137.896 197.933 138.271C198.402 138.635 199.048 138.812 199.871 138.812Z" fill="#0F3460"/>
<path d="M228.091 122.417C230.591 122.417 232.601 123.167 234.132 124.667C235.659 126.156 236.424 128.396 236.424 131.396V142.958H229.341V132.562C229.341 129.802 228.237 128.417 226.028 128.417C224.82 128.417 223.846 128.823 223.112 129.625C222.372 130.417 222.007 131.604 222.007 133.187V142.958H214.924V122.75H221.674V124.958C222.466 124.141 223.409 123.516 224.507 123.083C225.601 122.641 226.799 122.417 228.091 122.417Z" fill="#0F3460"/>
<path d="M282.019 122.417C284.504 122.417 286.483 123.167 287.957 124.667C289.441 126.156 290.186 128.396 290.186 131.396V142.958H283.102V132.562C283.102 131.146 282.832 130.104 282.29 129.437C281.759 128.76 281.009 128.417 280.04 128.417C278.967 128.417 278.108 128.792 277.457 129.542C276.816 130.292 276.498 131.427 276.498 132.937V142.958H269.415V132.562C269.415 129.802 268.399 128.417 266.373 128.417C265.274 128.417 264.399 128.792 263.748 129.542C263.108 130.292 262.79 131.427 262.79 132.937V142.958H255.707V122.75H262.457V124.875C263.207 124.057 264.092 123.448 265.123 123.042C266.149 122.625 267.274 122.417 268.498 122.417C269.915 122.417 271.175 122.682 272.29 123.208C273.415 123.724 274.321 124.516 275.019 125.583C275.811 124.573 276.811 123.792 278.019 123.25C279.238 122.698 280.571 122.417 282.019 122.417Z" fill="#0F3460"/>
<path d="M303.261 122.417C306.621 122.417 309.183 123.182 310.949 124.708C312.709 126.24 313.594 128.583 313.594 131.75V142.958H306.99V140.354C305.975 142.312 303.99 143.292 301.032 143.292C299.459 143.292 298.105 143.021 296.969 142.479C295.829 141.927 294.969 141.182 294.386 140.25C293.803 139.323 293.511 138.26 293.511 137.062C293.511 135.161 294.24 133.682 295.699 132.625C297.167 131.573 299.433 131.042 302.49 131.042H306.511C306.386 128.906 304.954 127.833 302.219 127.833C301.261 127.833 300.282 127.99 299.282 128.292C298.282 128.599 297.433 129.031 296.74 129.583L294.365 124.771C295.475 124.021 296.829 123.448 298.428 123.042C300.037 122.625 301.647 122.417 303.261 122.417ZM303.011 138.812C303.829 138.812 304.542 138.62 305.157 138.229C305.782 137.828 306.23 137.245 306.511 136.479V134.729H303.449C301.391 134.729 300.365 135.411 300.365 136.771C300.365 137.396 300.6 137.896 301.074 138.271C301.542 138.635 302.188 138.812 303.011 138.812Z" fill="#0F3460"/>
<path d="M331.231 122.417C333.731 122.417 335.742 123.167 337.273 124.667C338.799 126.156 339.564 128.396 339.564 131.396V142.958H332.481V132.562C332.481 129.802 331.377 128.417 329.169 128.417C327.96 128.417 326.986 128.823 326.252 129.625C325.512 130.417 325.148 131.604 325.148 133.187V142.958H318.064V122.75H324.814V124.958C325.606 124.141 326.549 123.516 327.648 123.083C328.742 122.641 329.939 122.417 331.231 122.417Z" fill="#0F3460"/>
<path d="M365.256 122.75V142.958H358.506V140.792C357.756 141.615 356.861 142.24 355.819 142.667C354.777 143.083 353.673 143.292 352.506 143.292C349.892 143.292 347.809 142.521 346.256 140.979C344.715 139.438 343.944 137.125 343.944 134.042V122.75H351.006V132.896C351.006 134.411 351.288 135.516 351.861 136.208C352.444 136.906 353.277 137.25 354.361 137.25C355.486 137.25 356.402 136.865 357.111 136.083C357.819 135.307 358.173 134.104 358.173 132.479V122.75H365.256Z" fill="#0F3460"/>
<path d="M377.154 143.292C375.456 143.292 373.789 143.104 372.154 142.729C370.513 142.344 369.195 141.833 368.195 141.208L370.32 136.354C371.237 136.927 372.325 137.385 373.591 137.729C374.867 138.062 376.122 138.229 377.362 138.229C378.513 138.229 379.325 138.115 379.799 137.875C380.284 137.641 380.529 137.302 380.529 136.854C380.529 136.396 380.237 136.078 379.654 135.896C379.07 135.719 378.143 135.536 376.883 135.354C375.268 135.161 373.893 134.906 372.758 134.583C371.633 134.25 370.659 133.656 369.841 132.792C369.018 131.917 368.612 130.698 368.612 129.125C368.612 127.833 368.992 126.687 369.758 125.687C370.534 124.677 371.659 123.875 373.133 123.292C374.617 122.708 376.388 122.417 378.445 122.417C379.914 122.417 381.367 122.573 382.799 122.875C384.242 123.167 385.45 123.594 386.424 124.146L384.299 128.937C382.508 127.953 380.57 127.458 378.487 127.458C377.362 127.458 376.534 127.594 376.008 127.854C375.492 128.104 375.237 128.448 375.237 128.875C375.237 129.349 375.518 129.682 376.091 129.875C376.674 130.057 377.617 130.245 378.924 130.437C380.591 130.687 381.971 130.974 383.07 131.292C384.164 131.615 385.117 132.203 385.924 133.062C386.726 133.927 387.133 135.125 387.133 136.667C387.133 137.932 386.742 139.073 385.966 140.083C385.2 141.083 384.07 141.87 382.57 142.437C381.07 143.005 379.263 143.292 377.154 143.292Z" fill="#0F3460"/>
<path d="M390.188 122.75H397.271V142.958H390.188V122.75ZM393.729 120.521C392.438 120.521 391.396 120.161 390.604 119.438C389.813 118.719 389.417 117.823 389.417 116.75C389.417 115.682 389.813 114.792 390.604 114.083C391.396 113.365 392.438 113 393.729 113C395.021 113 396.063 113.344 396.854 114.021C397.656 114.703 398.063 115.578 398.063 116.646C398.063 117.76 397.656 118.682 396.854 119.417C396.063 120.156 395.021 120.521 393.729 120.521Z" fill="#0F3460"/>
<path d="M410.458 122.417C413.818 122.417 416.38 123.182 418.146 124.708C419.906 126.24 420.792 128.583 420.792 131.75V142.958H414.188V140.354C413.172 142.312 411.188 143.292 408.229 143.292C406.656 143.292 405.302 143.021 404.167 142.479C403.026 141.927 402.167 141.182 401.583 140.25C401 139.323 400.708 138.26 400.708 137.062C400.708 135.161 401.438 133.682 402.896 132.625C404.365 131.573 406.63 131.042 409.688 131.042H413.708C413.583 128.906 412.151 127.833 409.417 127.833C408.458 127.833 407.479 127.99 406.479 128.292C405.479 128.599 404.63 129.031 403.938 129.583L401.563 124.771C402.672 124.021 404.026 123.448 405.625 123.042C407.234 122.625 408.844 122.417 410.458 122.417ZM410.208 138.812C411.026 138.812 411.74 138.62 412.354 138.229C412.979 137.828 413.427 137.245 413.708 136.479V134.729H410.646C408.589 134.729 407.563 135.411 407.563 136.771C407.563 137.396 407.797 137.896 408.271 138.271C408.74 138.635 409.385 138.812 410.208 138.812Z" fill="#0F3460"/>
<path d="M454.04 142.146C453.441 142.51 452.712 142.786 451.852 142.979C451.003 143.188 450.092 143.292 449.123 143.292C446.482 143.292 444.456 142.646 443.04 141.354C441.623 140.063 440.915 138.141 440.915 135.583V128.792H437.977V123.5H440.915V118.25H447.998V123.5H452.623V128.792H447.998V135.5C447.998 136.224 448.191 136.792 448.581 137.208C448.967 137.615 449.482 137.813 450.123 137.813C450.941 137.813 451.665 137.604 452.29 137.188L454.04 142.146Z" fill="#0F3460"/>
<path d="M477.409 132.896C477.409 132.953 477.373 133.536 477.305 134.646H462.617C462.909 135.687 463.482 136.495 464.347 137.062C465.206 137.62 466.284 137.896 467.576 137.896C468.544 137.896 469.388 137.76 470.097 137.479C470.805 137.203 471.518 136.76 472.242 136.146L475.951 140.021C473.992 142.203 471.123 143.292 467.347 143.292C464.982 143.292 462.909 142.849 461.117 141.958C459.336 141.057 457.956 139.812 456.972 138.229C455.982 136.635 455.492 134.828 455.492 132.812C455.492 130.828 455.972 129.052 456.93 127.479C457.888 125.896 459.206 124.661 460.888 123.771C462.581 122.87 464.482 122.417 466.597 122.417C468.607 122.417 470.435 122.833 472.076 123.667C473.711 124.5 475.013 125.708 475.972 127.292C476.93 128.865 477.409 130.729 477.409 132.896ZM466.638 127.458C465.539 127.458 464.623 127.771 463.888 128.396C463.164 129.01 462.706 129.849 462.513 130.917H470.784C470.576 129.849 470.102 129.01 469.367 128.396C468.643 127.771 467.732 127.458 466.638 127.458Z" fill="#0F3460"/>
<path d="M487.443 125.187C488.161 124.26 489.099 123.562 490.255 123.104C491.406 122.646 492.734 122.417 494.234 122.417V128.792C493.578 128.724 493.047 128.687 492.63 128.687C491.099 128.687 489.906 129.099 489.047 129.917C488.198 130.74 487.776 131.995 487.776 133.687V142.958H480.693V122.75H487.443V125.187Z" fill="#0F3460"/>
<path d="M510.371 122.417C512.871 122.417 514.882 123.167 516.413 124.667C517.939 126.156 518.704 128.396 518.704 131.396V142.958H511.621V132.562C511.621 129.802 510.517 128.417 508.309 128.417C507.1 128.417 506.126 128.823 505.392 129.625C504.652 130.417 504.288 131.604 504.288 133.187V142.958H497.204V122.75H503.954V124.958C504.746 124.141 505.689 123.516 506.788 123.083C507.882 122.641 509.079 122.417 510.371 122.417Z" fill="#0F3460"/>
<path d="M544.438 122.75L535.709 143.771C534.693 146.255 533.449 148 531.98 149C530.521 150.01 528.735 150.521 526.626 150.521C525.553 150.521 524.48 150.354 523.396 150.021C522.313 149.688 521.438 149.25 520.771 148.708L523.23 143.75C523.615 144.109 524.089 144.396 524.646 144.604C525.214 144.823 525.782 144.938 526.355 144.938C527.021 144.938 527.568 144.797 528.001 144.521C528.443 144.24 528.813 143.813 529.105 143.229L520.459 122.75H527.73L532.688 135.104L537.688 122.75H544.438Z" fill="#0F3460"/>
<path d="M554.86 122.417C558.219 122.417 560.782 123.182 562.547 124.708C564.308 126.24 565.193 128.583 565.193 131.75V142.958H558.589V140.354C557.573 142.312 555.589 143.292 552.631 143.292C551.058 143.292 549.704 143.021 548.568 142.479C547.428 141.927 546.568 141.182 545.985 140.25C545.402 139.323 545.11 138.26 545.11 137.062C545.11 135.161 545.839 133.682 547.297 132.625C548.766 131.573 551.032 131.042 554.089 131.042H558.11C557.985 128.906 556.553 127.833 553.818 127.833C552.86 127.833 551.881 127.99 550.881 128.292C549.881 128.599 549.032 129.031 548.339 129.583L545.964 124.771C547.073 124.021 548.428 123.448 550.027 123.042C551.636 122.625 553.245 122.417 554.86 122.417ZM554.61 138.812C555.428 138.812 556.141 138.62 556.756 138.229C557.381 137.828 557.829 137.245 558.11 136.479V134.729H555.047C552.99 134.729 551.964 135.411 551.964 136.771C551.964 137.396 552.198 137.896 552.672 138.271C553.141 138.635 553.787 138.812 554.61 138.812Z" fill="#0F3460"/>
<path d="M583.601 142.146C583.002 142.51 582.273 142.786 581.413 142.979C580.564 143.188 579.653 143.292 578.684 143.292C576.043 143.292 574.017 142.646 572.601 141.354C571.184 140.063 570.476 138.141 570.476 135.583V128.792H567.538V123.5H570.476V118.25H577.559V123.5H582.184V128.792H577.559V135.5C577.559 136.224 577.752 136.792 578.142 137.208C578.528 137.615 579.043 137.813 579.684 137.813C580.502 137.813 581.226 137.604 581.851 137.188L583.601 142.146Z" fill="#0F3460"/>
<path d="M594.928 122.417C598.288 122.417 600.85 123.182 602.616 124.708C604.376 126.24 605.262 128.583 605.262 131.75V142.958H598.658V140.354C597.642 142.312 595.658 143.292 592.699 143.292C591.126 143.292 589.772 143.021 588.637 142.479C587.496 141.927 586.637 141.182 586.053 140.25C585.47 139.323 585.178 138.26 585.178 137.062C585.178 135.161 585.908 133.682 587.366 132.625C588.835 131.573 591.1 131.042 594.158 131.042H598.178C598.053 128.906 596.621 127.833 593.887 127.833C592.928 127.833 591.949 127.99 590.949 128.292C589.949 128.599 589.1 129.031 588.408 129.583L586.033 124.771C587.142 124.021 588.496 123.448 590.095 123.042C591.704 122.625 593.314 122.417 594.928 122.417ZM594.678 138.812C595.496 138.812 596.21 138.62 596.824 138.229C597.449 137.828 597.897 137.245 598.178 136.479V134.729H595.116C593.059 134.729 592.033 135.411 592.033 136.771C592.033 137.396 592.267 137.896 592.741 138.271C593.21 138.635 593.855 138.812 594.678 138.812Z" fill="#0F3460"/>
<path d="M93.7083 174.337C95.5521 174.337 97.2292 174.764 98.7292 175.607C100.229 176.456 101.417 177.67 102.292 179.253C103.177 180.826 103.625 182.649 103.625 184.732C103.625 186.831 103.177 188.68 102.292 190.274C101.417 191.857 100.229 193.081 98.7292 193.941C97.2292 194.79 95.5521 195.212 93.7083 195.212C91.0521 195.212 89.0677 194.43 87.75 192.857V194.878H81V167.232H88.0833V176.42C89.4427 175.035 91.3177 174.337 93.7083 174.337ZM92.2292 189.587C93.4635 189.587 94.4792 189.165 95.2708 188.316C96.0729 187.456 96.4792 186.264 96.4792 184.732C96.4792 183.248 96.0729 182.081 95.2708 181.232C94.4792 180.389 93.4635 179.962 92.2292 179.962C90.9792 179.962 89.9583 180.389 89.1667 181.232C88.375 182.081 87.9792 183.248 87.9792 184.732C87.9792 186.264 88.375 187.456 89.1667 188.316C89.9583 189.165 90.9792 189.587 92.2292 189.587Z" fill="#0F3460"/>
<path d="M106.905 174.67H113.988V194.878H106.905V174.67ZM110.446 172.441C109.155 172.441 108.113 172.081 107.321 171.357C106.53 170.639 106.134 169.743 106.134 168.67C106.134 167.602 106.53 166.712 107.321 166.003C108.113 165.285 109.155 164.92 110.446 164.92C111.738 164.92 112.78 165.264 113.571 165.941C114.373 166.623 114.78 167.498 114.78 168.566C114.78 169.68 114.373 170.602 113.571 171.337C112.78 172.076 111.738 172.441 110.446 172.441Z" fill="#0F3460"/>
<path d="M125.925 195.212C124.227 195.212 122.561 195.024 120.925 194.649C119.285 194.264 117.967 193.753 116.967 193.128L119.092 188.274C120.009 188.847 121.097 189.305 122.363 189.649C123.639 189.982 124.894 190.149 126.134 190.149C127.285 190.149 128.097 190.035 128.571 189.795C129.056 189.561 129.3 189.222 129.3 188.774C129.3 188.316 129.009 187.998 128.425 187.816C127.842 187.639 126.915 187.456 125.655 187.274C124.04 187.081 122.665 186.826 121.53 186.503C120.405 186.17 119.431 185.576 118.613 184.712C117.79 183.837 117.384 182.618 117.384 181.045C117.384 179.753 117.764 178.607 118.53 177.607C119.306 176.597 120.431 175.795 121.905 175.212C123.389 174.628 125.16 174.337 127.217 174.337C128.686 174.337 130.139 174.493 131.571 174.795C133.014 175.087 134.222 175.514 135.196 176.066L133.071 180.857C131.28 179.873 129.342 179.378 127.259 179.378C126.134 179.378 125.306 179.514 124.78 179.774C124.264 180.024 124.009 180.368 124.009 180.795C124.009 181.269 124.29 181.602 124.863 181.795C125.446 181.977 126.389 182.165 127.696 182.357C129.363 182.607 130.743 182.894 131.842 183.212C132.936 183.535 133.889 184.123 134.696 184.982C135.498 185.847 135.905 187.045 135.905 188.587C135.905 189.852 135.514 190.993 134.738 192.003C133.972 193.003 132.842 193.79 131.342 194.357C129.842 194.925 128.035 195.212 125.925 195.212Z" fill="#0F3460"/>
<path d="M147.564 174.337C150.923 174.337 153.486 175.102 155.251 176.628C157.012 178.16 157.897 180.503 157.897 183.67V194.878H151.293V192.274C150.277 194.232 148.293 195.212 145.335 195.212C143.762 195.212 142.407 194.941 141.272 194.399C140.131 193.847 139.272 193.102 138.689 192.17C138.105 191.243 137.814 190.18 137.814 188.982C137.814 187.081 138.543 185.602 140.001 184.545C141.47 183.493 143.736 182.962 146.793 182.962H150.814C150.689 180.826 149.256 179.753 146.522 179.753C145.564 179.753 144.585 179.91 143.585 180.212C142.585 180.519 141.736 180.951 141.043 181.503L138.668 176.691C139.777 175.941 141.131 175.368 142.73 174.962C144.34 174.545 145.949 174.337 147.564 174.337ZM147.314 190.732C148.131 190.732 148.845 190.54 149.46 190.149C150.085 189.748 150.532 189.165 150.814 188.399V186.649H147.751C145.694 186.649 144.668 187.331 144.668 188.691C144.668 189.316 144.902 189.816 145.376 190.191C145.845 190.555 146.491 190.732 147.314 190.732Z" fill="#0F3460"/>
<path d="M172.359 202.441C170.292 202.441 168.651 202.092 167.443 201.399L169.234 196.378C169.875 196.764 170.604 196.962 171.422 196.962C172.073 196.962 172.578 196.738 172.943 196.295C173.318 195.847 173.505 195.191 173.505 194.316V174.67H180.588V194.357C180.588 196.842 179.859 198.805 178.401 200.253C176.953 201.712 174.943 202.441 172.359 202.441ZM177.047 172.441C175.755 172.441 174.713 172.081 173.922 171.357C173.13 170.639 172.734 169.743 172.734 168.67C172.734 167.602 173.13 166.712 173.922 166.003C174.713 165.285 175.755 164.92 177.047 164.92C178.338 164.92 179.38 165.264 180.172 165.941C180.974 166.623 181.38 167.498 181.38 168.566C181.38 169.68 180.974 170.602 180.172 171.337C179.38 172.076 178.338 172.441 177.047 172.441Z" fill="#0F3460"/>
<path d="M193.745 174.337C197.104 174.337 199.667 175.102 201.432 176.628C203.193 178.16 204.078 180.503 204.078 183.67V194.878H197.474V192.274C196.459 194.232 194.474 195.212 191.516 195.212C189.943 195.212 188.589 194.941 187.453 194.399C186.313 193.847 185.453 193.102 184.87 192.17C184.287 191.243 183.995 190.18 183.995 188.982C183.995 187.081 184.724 185.602 186.182 184.545C187.651 183.493 189.917 182.962 192.974 182.962H196.995C196.87 180.826 195.438 179.753 192.703 179.753C191.745 179.753 190.766 179.91 189.766 180.212C188.766 180.519 187.917 180.951 187.224 181.503L184.849 176.691C185.959 175.941 187.313 175.368 188.912 174.962C190.521 174.545 192.13 174.337 193.745 174.337ZM193.495 190.732C194.313 190.732 195.026 190.54 195.641 190.149C196.266 189.748 196.714 189.165 196.995 188.399V186.649H193.932C191.875 186.649 190.849 187.331 190.849 188.691C190.849 189.316 191.084 189.816 191.557 190.191C192.026 190.555 192.672 190.732 193.495 190.732Z" fill="#0F3460"/>
<path d="M230.027 167.232V194.878H223.277V192.857C221.955 194.43 219.975 195.212 217.34 195.212C215.507 195.212 213.83 194.79 212.319 193.941C210.804 193.081 209.6 191.857 208.715 190.274C207.84 188.68 207.402 186.831 207.402 184.732C207.402 182.649 207.84 180.826 208.715 179.253C209.6 177.67 210.804 176.456 212.319 175.607C213.83 174.764 215.507 174.337 217.34 174.337C219.757 174.337 221.621 175.035 222.944 176.42V167.232H230.027ZM218.84 189.587C220.059 189.587 221.069 189.165 221.861 188.316C222.652 187.456 223.048 186.264 223.048 184.732C223.048 183.248 222.652 182.081 221.861 181.232C221.08 180.389 220.074 179.962 218.84 179.962C217.59 179.962 216.569 180.389 215.777 181.232C214.986 182.081 214.59 183.248 214.59 184.732C214.59 186.264 214.986 187.456 215.777 188.316C216.569 189.165 217.59 189.587 218.84 189.587Z" fill="#0F3460"/>
<path d="M234.565 174.67H241.648V194.878H234.565V174.67ZM238.107 172.441C236.815 172.441 235.773 172.081 234.982 171.357C234.19 170.639 233.794 169.743 233.794 168.67C233.794 167.602 234.19 166.712 234.982 166.003C235.773 165.285 236.815 164.92 238.107 164.92C239.398 164.92 240.44 165.264 241.232 165.941C242.034 166.623 242.44 167.498 242.44 168.566C242.44 169.68 242.034 170.602 241.232 171.337C240.44 172.076 239.398 172.441 238.107 172.441Z" fill="#0F3460"/>
<path d="M269.786 174.337C271.63 174.337 273.307 174.769 274.807 175.628C276.307 176.493 277.494 177.712 278.369 179.295C279.255 180.868 279.703 182.691 279.703 184.774C279.703 186.857 279.255 188.691 278.369 190.274C277.494 191.857 276.307 193.081 274.807 193.941C273.307 194.79 271.63 195.212 269.786 195.212C267.422 195.212 265.547 194.503 264.161 193.087V202.107H257.078V174.67H263.828V176.691C265.145 175.123 267.13 174.337 269.786 174.337ZM268.307 189.587C269.541 189.587 270.557 189.165 271.349 188.316C272.151 187.456 272.557 186.274 272.557 184.774C272.557 183.29 272.151 182.118 271.349 181.253C270.557 180.394 269.541 179.962 268.307 179.962C267.057 179.962 266.036 180.394 265.244 181.253C264.453 182.118 264.057 183.29 264.057 184.774C264.057 186.274 264.453 187.456 265.244 188.316C266.036 189.165 267.057 189.587 268.307 189.587Z" fill="#0F3460"/>
<path d="M304.233 174.67V194.878H297.483V192.712C296.733 193.535 295.837 194.16 294.795 194.587C293.753 195.003 292.649 195.212 291.483 195.212C288.868 195.212 286.785 194.441 285.233 192.899C283.691 191.357 282.92 189.045 282.92 185.962V174.67H289.983V184.816C289.983 186.331 290.264 187.436 290.837 188.128C291.42 188.826 292.253 189.17 293.337 189.17C294.462 189.17 295.378 188.785 296.087 188.003C296.795 187.227 297.149 186.024 297.149 184.399V174.67H304.233Z" fill="#0F3460"/>
<path d="M321.484 174.337C323.328 174.337 325.005 174.769 326.505 175.628C328.005 176.493 329.192 177.712 330.067 179.295C330.953 180.868 331.4 182.691 331.4 184.774C331.4 186.857 330.953 188.691 330.067 190.274C329.192 191.857 328.005 193.081 326.505 193.941C325.005 194.79 323.328 195.212 321.484 195.212C319.119 195.212 317.244 194.503 315.859 193.087V202.107H308.775V174.67H315.525V176.691C316.843 175.123 318.828 174.337 321.484 174.337ZM320.005 189.587C321.239 189.587 322.255 189.165 323.046 188.316C323.848 187.456 324.255 186.274 324.255 184.774C324.255 183.29 323.848 182.118 323.046 181.253C322.255 180.394 321.239 179.962 320.005 179.962C318.755 179.962 317.734 180.394 316.942 181.253C316.15 182.118 315.755 183.29 315.755 184.774C315.755 186.274 316.15 187.456 316.942 188.316C317.734 189.165 318.755 189.587 320.005 189.587Z" fill="#0F3460"/>
<path d="M355.93 174.67V194.878H349.18V192.712C348.43 193.535 347.534 194.16 346.493 194.587C345.451 195.003 344.347 195.212 343.18 195.212C340.566 195.212 338.482 194.441 336.93 192.899C335.389 191.357 334.618 189.045 334.618 185.962V174.67H341.68V184.816C341.68 186.331 341.961 187.436 342.534 188.128C343.118 188.826 343.951 189.17 345.034 189.17C346.159 189.17 347.076 188.785 347.784 188.003C348.493 187.227 348.847 186.024 348.847 184.399V174.67H355.93Z" fill="#0F3460"/>
<path d="M369.64 187.795L367.557 189.92V194.878H360.473V167.232H367.557V181.712L374.786 174.67H383.182L374.786 183.316L383.89 194.878H375.307L369.64 187.795Z" fill="#0F3460"/>
</g>
<defs>
<clipPath id="clip0_1_524">
<rect width="800" height="450" fill="white"/>
</clipPath>
</defs>
</svg>
