<svg width="800" height="450" viewBox="0 0 800 450" fill="none" xmlns="http://www.w3.org/2000/svg">
<g clip-path="url(#clip0_1_726)">
<path d="M0.59375 0H799.406V459.318H0.59375V0Z" fill="white"/>
<path d="M0.59375 0H799.406V449.333H0.59375V0Z" fill="white"/>
<path d="M0.59375 0H799.406V449.333H0.59375V0Z" fill="#CED89E"/>
<path d="M720.977 340.843C720.972 340.806 720.968 340.769 720.963 340.731C720.949 340.639 720.935 340.541 720.912 340.449C720.907 340.416 720.903 340.384 720.893 340.352C720.861 340.226 720.824 340.101 720.782 339.981C720.778 339.962 720.768 339.944 720.764 339.93C720.722 339.823 720.68 339.712 720.629 339.61C720.615 339.573 720.597 339.541 720.583 339.508C720.532 339.406 720.476 339.304 720.421 339.203C720.407 339.179 720.398 339.156 720.379 339.138C720.31 339.013 720.231 338.892 720.143 338.767C720.124 338.744 720.106 338.721 720.087 338.698C720.018 338.596 719.939 338.498 719.86 338.401C719.837 338.369 719.809 338.336 719.782 338.304C719.689 338.193 719.592 338.086 719.49 337.975C719.48 337.966 719.471 337.956 719.462 337.942C719.346 337.827 719.226 337.706 719.1 337.59C719.068 337.558 719.031 337.525 718.999 337.493C718.901 337.405 718.799 337.317 718.693 337.229C718.656 337.192 718.614 337.159 718.577 337.127C718.438 337.016 718.294 336.9 718.141 336.784C718.128 336.77 718.109 336.761 718.095 336.747C717.984 336.668 717.877 336.589 717.766 336.511C717.766 336.511 717.766 336.511 717.762 336.511C717.752 336.501 717.738 336.492 717.724 336.483V283.189C719.851 281.693 721 280.103 721 278.459C721 276.823 719.87 275.243 717.766 273.752C717.752 273.761 717.738 273.77 717.724 273.779V180.201C719.851 178.7 721 177.111 721 175.466C721 173.831 719.87 172.251 717.766 170.759C717.752 170.768 717.738 170.778 717.724 170.787V128.951C717.724 128.951 717.724 128.951 717.729 128.951V128.946C717.868 128.849 718.002 128.747 718.137 128.649C718.392 128.459 718.628 128.265 718.85 128.066C718.924 128.005 718.999 127.941 719.068 127.871C719.138 127.806 719.202 127.741 719.272 127.677C719.471 127.482 719.652 127.283 719.819 127.088C720.597 126.152 721 125.193 721 124.211C721 124.114 720.995 124.016 720.986 123.924C720.977 123.803 720.958 123.683 720.94 123.562C720.926 123.474 720.903 123.386 720.88 123.298C720.856 123.196 720.824 123.094 720.787 122.997C720.741 122.844 720.676 122.696 720.606 122.543C720.574 122.478 720.541 122.418 720.509 122.349C720.472 122.284 720.43 122.214 720.393 122.149C720.351 122.08 720.31 122.01 720.268 121.945C720.175 121.811 720.087 121.681 719.981 121.542C719.944 121.496 719.907 121.445 719.865 121.399C719.74 121.241 719.596 121.084 719.448 120.926L719.202 120.681C719.082 120.565 718.957 120.454 718.827 120.338C718.619 120.148 718.392 119.963 718.146 119.786C718.146 119.782 718.141 119.777 718.137 119.773C718.016 119.685 717.891 119.592 717.766 119.504C708.375 112.846 679.576 108 645.5 108C611.424 108 582.625 112.846 573.234 119.504C573.109 119.592 572.984 119.685 572.868 119.773C572.863 119.777 572.859 119.782 572.854 119.786C572.613 119.963 572.381 120.148 572.173 120.338C572.043 120.454 571.918 120.565 571.798 120.681L571.552 120.926C571.404 121.084 571.26 121.241 571.135 121.399C571.093 121.445 571.056 121.496 571.019 121.542C570.917 121.681 570.825 121.811 570.737 121.945C570.69 122.01 570.649 122.08 570.607 122.149C570.57 122.214 570.528 122.284 570.496 122.349C570.459 122.418 570.426 122.478 570.398 122.543C570.324 122.696 570.259 122.844 570.213 122.997C570.176 123.094 570.148 123.196 570.12 123.298C570.097 123.386 570.074 123.474 570.065 123.562C570.042 123.683 570.023 123.803 570.014 123.924C570.005 124.016 570 124.114 570 124.211C570 125.193 570.408 126.152 571.181 127.088C571.348 127.283 571.529 127.482 571.728 127.677C571.798 127.741 571.862 127.806 571.937 127.871C572.006 127.941 572.08 128.005 572.15 128.066C572.372 128.265 572.613 128.459 572.868 128.649C572.998 128.751 573.127 128.849 573.271 128.946V170.782C573.257 170.778 573.243 170.768 573.234 170.759C571.13 172.251 570 173.831 570 175.466C570 177.111 571.144 178.7 573.271 180.197V273.775C573.257 273.77 573.243 273.761 573.234 273.752C571.13 275.243 570 276.823 570 278.459C570 280.103 571.144 281.693 573.271 283.184V336.488C573.257 336.497 573.248 336.501 573.238 336.511C573.234 336.511 573.234 336.511 573.234 336.511C573.132 336.58 573.035 336.654 572.933 336.728C572.91 336.747 572.877 336.77 572.854 336.789C572.706 336.9 572.567 337.011 572.432 337.122C572.386 337.159 572.344 337.196 572.298 337.233C572.201 337.322 572.103 337.4 572.015 337.488C571.974 337.521 571.932 337.558 571.895 337.595C571.774 337.711 571.654 337.827 571.543 337.942C571.529 337.956 571.51 337.975 571.496 337.993C571.399 338.095 571.311 338.197 571.223 338.299C571.195 338.336 571.163 338.373 571.135 338.41C571.061 338.498 570.987 338.591 570.922 338.684C570.899 338.716 570.876 338.744 570.852 338.772C570.769 338.892 570.695 339.013 570.621 339.133C570.607 339.156 570.588 339.189 570.574 339.212C570.519 339.309 570.468 339.406 570.422 339.499C570.403 339.536 570.385 339.573 570.366 339.615C570.324 339.712 570.283 339.814 570.246 339.911C570.236 339.935 570.227 339.962 570.218 339.986C570.176 340.106 570.139 340.226 570.111 340.347C570.102 340.384 570.093 340.421 570.088 340.458C570.065 340.546 570.051 340.634 570.037 340.722C570.032 340.764 570.028 340.806 570.023 340.847C570.009 340.958 570.005 341.07 570.005 341.181C570.005 341.195 570 341.204 570 341.218C570 349.543 599.244 356.4 636.883 357.322C639.709 357.387 642.586 357.424 645.5 357.424C687.197 357.424 721 350.169 721 341.218C721 341.213 721 341.209 721 341.209C721 341.084 720.991 340.963 720.977 340.843Z" fill="#E8C100"/>
<path d="M685.807 128.506V341.218H573.271V124.211H584.038C597.729 128.325 620.157 131.008 645.495 131.008C660.316 131.008 674.146 130.09 685.807 128.506Z" fill="#E8C100"/>
<path d="M721 341.218C721 350.169 687.197 357.424 645.5 357.424C603.803 357.424 570 350.169 570 341.218C570 332.262 603.803 325.007 645.5 325.007C687.197 325.007 721 332.262 721 341.218Z" fill="#E8C100"/>
<path d="M695.319 124.012V341.019L663.402 349.794V128.307C671.686 127.185 678.876 125.717 684.561 124.012H695.319Z" fill="#D8AE00"/>
<path d="M720.986 123.924C720.977 123.803 720.958 123.683 720.94 123.562C720.926 123.474 720.903 123.386 720.88 123.298C720.856 123.196 720.824 123.094 720.787 122.997C720.741 122.844 720.676 122.696 720.606 122.543C720.574 122.478 720.541 122.418 720.509 122.349C720.472 122.284 720.43 122.214 720.393 122.149C720.351 122.08 720.31 122.01 720.268 121.945C720.175 121.811 720.087 121.681 719.981 121.542C719.944 121.496 719.907 121.445 719.865 121.399C719.74 121.241 719.596 121.084 719.448 120.926L719.202 120.681C719.082 120.565 718.957 120.454 718.827 120.338C718.619 120.148 718.392 119.963 718.146 119.786C718.146 119.782 718.141 119.777 718.137 119.773C718.016 119.685 717.891 119.592 717.766 119.504C716.353 120.505 714.5 121.473 712.248 122.381C710.678 123.02 708.908 123.632 706.967 124.211C693.271 128.33 670.843 131.008 645.495 131.008C620.157 131.008 597.729 128.33 584.038 124.211C582.097 123.632 580.322 123.02 578.752 122.381C576.505 121.473 574.647 120.505 573.234 119.504C573.109 119.592 572.984 119.685 572.868 119.773C572.863 119.777 572.859 119.782 572.854 119.786C572.613 119.963 572.381 120.148 572.173 120.338C572.043 120.454 571.918 120.565 571.798 120.681L571.552 120.926C571.404 121.084 571.26 121.241 571.135 121.399C571.093 121.445 571.056 121.496 571.019 121.542C570.917 121.681 570.825 121.811 570.737 121.945C570.69 122.01 570.649 122.08 570.607 122.149C570.57 122.214 570.528 122.284 570.496 122.349C570.459 122.418 570.426 122.478 570.398 122.543C570.324 122.696 570.259 122.844 570.213 122.997C570.176 123.094 570.148 123.196 570.12 123.298C570.097 123.386 570.074 123.474 570.065 123.562C570.042 123.683 570.023 123.803 570.014 123.924C570.005 124.016 570 124.114 570 124.211C570 125.193 570.408 126.152 571.181 127.088C571.348 127.283 571.529 127.482 571.728 127.677C571.798 127.741 571.862 127.806 571.937 127.871C572.006 127.941 572.08 128.005 572.15 128.066C572.372 128.265 572.613 128.459 572.868 128.649C572.998 128.751 573.127 128.849 573.271 128.946C573.581 129.164 573.915 129.381 574.272 129.599C574.476 129.72 574.689 129.849 574.902 129.974C575.124 130.09 575.351 130.215 575.583 130.341C575.93 130.521 576.292 130.702 576.676 130.883C576.797 130.943 576.926 130.998 577.056 131.063C577.445 131.244 577.844 131.42 578.261 131.591C579.405 132.073 580.661 132.537 582.023 132.991C582.472 133.139 582.935 133.287 583.408 133.435C583.885 133.579 584.372 133.727 584.867 133.871C586.355 134.302 587.939 134.714 589.616 135.113C590.733 135.377 591.891 135.631 593.082 135.877C593.976 136.062 594.893 136.243 595.834 136.424C597.085 136.66 598.368 136.882 599.693 137.1C601.343 137.369 603.047 137.624 604.808 137.869C605.827 138.008 606.865 138.147 607.921 138.272C608.913 138.397 609.923 138.513 610.947 138.629C611.067 138.638 611.183 138.652 611.304 138.666C612.823 138.833 614.38 138.99 615.955 139.134C618.299 139.347 620.704 139.537 623.159 139.704C624.271 139.773 625.397 139.843 626.528 139.908C632.588 140.241 638.949 140.422 645.495 140.422C652.009 140.422 658.338 140.246 664.366 139.908C665.575 139.843 666.766 139.773 667.947 139.695C670.315 139.537 672.631 139.356 674.887 139.148C675.527 139.092 676.152 139.027 676.782 138.972C677.408 138.907 678.029 138.842 678.645 138.782C679.052 138.736 679.46 138.694 679.868 138.648C680.957 138.532 682.027 138.407 683.083 138.272C684.135 138.147 685.173 138.008 686.192 137.869H686.197C687.953 137.624 689.657 137.369 691.307 137.1C692.632 136.882 693.92 136.66 695.166 136.424C696.107 136.243 697.024 136.062 697.918 135.877C699.109 135.631 700.272 135.377 701.388 135.113C703.061 134.714 704.645 134.302 706.133 133.871C706.633 133.727 707.119 133.579 707.592 133.435C708.065 133.287 708.528 133.139 708.982 132.991C710.339 132.537 711.595 132.073 712.739 131.591C713.156 131.42 713.559 131.244 713.944 131.063C714.078 130.998 714.203 130.943 714.328 130.883C714.708 130.702 715.07 130.521 715.422 130.341C715.649 130.215 715.876 130.09 716.098 129.974C716.311 129.849 716.524 129.72 716.728 129.599C717.039 129.414 717.326 129.224 717.604 129.034C717.65 129.006 717.687 128.974 717.729 128.951V128.946C717.868 128.849 718.002 128.747 718.137 128.649C718.392 128.459 718.628 128.265 718.85 128.066C718.924 128.005 718.999 127.941 719.068 127.871C719.138 127.806 719.202 127.741 719.272 127.677C719.471 127.482 719.652 127.283 719.819 127.088C720.597 126.152 721 125.193 721 124.211C721 124.114 720.995 124.016 720.986 123.924Z" fill="#E8C100"/>
<path d="M717.766 119.504C716.353 120.505 714.5 121.473 712.248 122.381C699.577 117.248 674.438 113.754 645.5 113.754C616.562 113.754 591.423 117.248 578.752 122.381C576.505 121.473 574.647 120.505 573.234 119.504C582.625 112.846 611.424 108 645.5 108C679.576 108 708.375 112.846 717.766 119.504Z" fill="#D8AE00"/>
<path d="M721 175.466C721 184.417 687.197 191.677 645.5 191.677C603.803 191.677 570 184.417 570 175.466C570 173.831 571.13 172.251 573.234 170.759C582.625 177.421 611.429 182.263 645.5 182.263C679.571 182.263 708.375 177.421 717.766 170.759C719.87 172.251 721 173.831 721 175.466Z" fill="#D8A209"/>
<path d="M721 278.459C721 287.41 687.197 294.67 645.5 294.67C603.803 294.67 570 287.41 570 278.459C570 276.823 571.13 275.243 573.234 273.752C582.625 280.414 611.429 285.255 645.5 285.255C679.571 285.255 708.375 280.414 717.766 273.752C719.87 275.243 721 276.823 721 278.459Z" fill="#D8A209"/>
<path d="M721 124.211C721 125.193 720.597 126.152 719.819 127.088C719.652 127.283 719.471 127.482 719.272 127.677C719.202 127.741 719.138 127.806 719.068 127.871C718.999 127.941 718.924 128.005 718.85 128.066C718.628 128.26 718.392 128.455 718.137 128.649C718.002 128.747 717.868 128.849 717.729 128.946C717.687 128.974 717.65 129.002 717.604 129.034C717.326 129.224 717.039 129.414 716.728 129.599C716.524 129.72 716.311 129.849 716.098 129.974C715.876 130.09 715.649 130.215 715.422 130.341C715.07 130.521 714.708 130.702 714.328 130.883C714.203 130.943 714.078 130.998 713.944 131.063C713.559 131.239 713.156 131.415 712.739 131.591C711.595 132.073 710.339 132.537 708.982 132.991C708.528 133.139 708.065 133.287 707.592 133.435C707.119 133.579 706.633 133.727 706.133 133.871C704.645 134.302 703.061 134.714 701.388 135.113C700.272 135.377 699.109 135.631 697.918 135.877C697.024 136.062 696.107 136.243 695.166 136.424C693.92 136.655 692.632 136.878 691.307 137.1C689.657 137.369 687.953 137.624 686.197 137.869H686.192C685.173 138.004 684.135 138.143 683.083 138.272C682.027 138.402 680.952 138.527 679.868 138.648C679.46 138.694 679.052 138.736 678.645 138.782C678.029 138.842 677.408 138.907 676.782 138.972C676.152 139.027 675.527 139.092 674.887 139.148C672.631 139.356 670.315 139.537 667.947 139.695C666.766 139.769 665.57 139.843 664.366 139.908C658.338 140.246 652.009 140.422 645.495 140.422C638.949 140.422 632.588 140.241 626.528 139.908C625.397 139.843 624.271 139.773 623.159 139.704C620.704 139.537 618.299 139.347 615.955 139.134C614.38 138.99 612.823 138.833 611.304 138.666C611.183 138.652 611.067 138.638 610.947 138.629C609.923 138.513 608.913 138.397 607.921 138.272C606.865 138.143 605.827 138.004 604.808 137.869C603.047 137.624 601.343 137.369 599.693 137.1C598.368 136.878 597.085 136.655 595.834 136.424C594.893 136.243 593.976 136.062 593.082 135.877C591.891 135.631 590.733 135.377 589.616 135.113C587.939 134.714 586.355 134.302 584.867 133.871C584.372 133.727 583.885 133.579 583.408 133.435C582.935 133.287 582.472 133.139 582.023 132.991C580.661 132.537 579.405 132.073 578.261 131.591C577.844 131.415 577.445 131.239 577.056 131.063C576.926 130.998 576.797 130.943 576.676 130.883C576.292 130.702 575.93 130.521 575.583 130.341C575.351 130.215 575.124 130.09 574.902 129.974C574.689 129.849 574.476 129.72 574.272 129.599C573.915 129.381 573.581 129.164 573.271 128.946V128.941C573.127 128.844 572.998 128.747 572.868 128.649C572.613 128.455 572.372 128.26 572.15 128.066C572.08 128.005 572.006 127.941 571.937 127.871C571.862 127.806 571.798 127.741 571.728 127.677C571.529 127.482 571.348 127.283 571.181 127.088C570.408 126.152 570 125.193 570 124.211C570 124.114 570.005 124.016 570.014 123.924C570.023 123.803 570.042 123.683 570.065 123.562C570.074 123.474 570.097 123.386 570.12 123.298C570.148 123.196 570.176 123.094 570.213 122.997C570.259 122.844 570.324 122.696 570.398 122.543C570.426 122.478 570.459 122.418 570.496 122.349C570.528 122.284 570.57 122.214 570.607 122.149C570.649 122.08 570.69 122.01 570.737 121.945C570.825 121.811 570.917 121.681 571.019 121.542C571.056 121.496 571.093 121.445 571.135 121.399C571.26 121.241 571.404 121.084 571.552 120.926L571.798 120.681C571.918 120.565 572.043 120.454 572.173 120.338C572.381 120.152 572.613 119.967 572.854 119.786C572.859 119.782 572.863 119.777 572.868 119.773C572.984 119.685 573.109 119.592 573.234 119.504C574.647 120.505 576.505 121.473 578.752 122.381C580.322 123.02 582.097 123.632 584.038 124.211C597.729 128.33 620.157 131.008 645.495 131.008C670.843 131.008 693.271 128.33 706.967 124.211C708.908 123.632 710.678 123.02 712.248 122.381C714.5 121.473 716.353 120.505 717.766 119.504C717.891 119.592 718.016 119.685 718.137 119.773C718.141 119.777 718.146 119.782 718.146 119.786C718.392 119.967 718.619 120.152 718.827 120.338C718.957 120.454 719.082 120.565 719.202 120.681L719.448 120.926C719.596 121.084 719.74 121.241 719.865 121.399C719.907 121.445 719.944 121.496 719.981 121.542C720.087 121.681 720.175 121.811 720.268 121.945C720.31 122.01 720.351 122.08 720.393 122.149C720.43 122.214 720.472 122.284 720.509 122.349C720.541 122.418 720.574 122.478 720.606 122.543C720.676 122.696 720.741 122.844 720.787 122.997C720.824 123.094 720.856 123.196 720.88 123.298C720.903 123.386 720.926 123.474 720.94 123.562C720.958 123.683 720.977 123.803 720.986 123.924C720.995 124.016 721 124.114 721 124.211Z" fill="#D8A209"/>
<path d="M721 341.218C721 350.164 687.197 357.424 645.5 357.424C603.803 357.424 570 350.164 570 341.218C570 339.578 571.13 338.003 573.234 336.511C582.625 343.168 611.429 348.015 645.5 348.015C679.571 348.015 708.375 343.168 717.766 336.511C719.87 338.003 721 339.578 721 341.218Z" fill="#D8A209"/>
<path d="M645.5 113.754C616.562 113.754 591.423 117.248 578.752 122.381C580.322 123.02 582.097 123.632 584.038 124.211C597.729 128.33 620.157 131.008 645.495 131.008C670.843 131.008 693.271 128.33 706.967 124.211C708.908 123.632 710.678 123.02 712.248 122.381C699.577 117.248 674.438 113.754 645.5 113.754Z" fill="#E8C100"/>
<path d="M626.528 139.908C625.393 139.848 624.267 139.773 623.155 139.704C620.699 139.537 618.299 139.347 615.955 139.134C614.375 138.99 612.819 138.838 611.299 138.671C611.183 138.652 611.063 138.643 610.947 138.629C609.923 138.513 608.913 138.397 607.917 138.277C606.865 138.147 605.827 138.013 604.803 137.869C603.047 137.628 601.343 137.373 599.689 137.105C599.36 137.049 599.035 136.998 598.716 136.938V178.774C608.023 180.359 619.106 181.48 631.221 181.976V140.135C629.641 140.07 628.071 139.991 626.528 139.908Z" fill="#F9D53D"/>
<path d="M598.716 281.771C608.023 283.351 619.106 284.472 631.221 284.968V191.385C619.106 190.89 608.023 189.768 598.716 188.189V281.771Z" fill="#F9D53D"/>
<path d="M598.716 328.496V344.526C608.023 346.106 619.106 347.227 631.221 347.723V294.383C619.106 293.882 608.023 292.761 598.716 291.181V328.496Z" fill="#F9D53D"/>
<path d="M689.495 123.298V123.294C689.486 123.27 689.477 123.247 689.463 123.22L688.374 120.62H669.87L668.762 123.257C668.725 123.368 668.698 123.474 668.698 123.586C668.698 125.226 673.368 126.555 679.122 126.555C684.881 126.555 689.546 125.226 689.546 123.586C689.546 123.488 689.528 123.396 689.495 123.298Z" fill="#D8AE00"/>
<path d="M688.374 120.62C688.374 121.95 684.232 123.03 679.122 123.03C674.012 123.03 669.87 121.95 669.87 120.62C669.87 119.286 674.012 118.207 679.122 118.207C684.232 118.207 688.374 119.286 688.374 120.62Z" fill="#D8A209"/>
<path d="M670.699 267.432C670.685 267.432 670.676 267.437 670.667 267.437C667.822 267.659 664.963 267.219 662.35 266.07L652.287 261.636L662.35 257.202C664.963 256.053 667.822 255.613 670.667 255.836C670.676 255.836 670.685 255.84 670.699 255.84C673.317 256.03 675.545 254.677 675.68 252.815C675.782 251.425 674.693 250.142 673.048 249.502C673.692 247.853 673.493 246.18 672.404 245.314C670.945 244.151 668.443 244.883 666.812 246.945C666.807 246.954 666.798 246.963 666.789 246.973C665.028 249.224 662.772 251.04 660.159 252.189L645.5 258.648L630.841 252.189C628.228 251.04 625.972 249.224 624.207 246.973C624.202 246.963 624.193 246.954 624.188 246.945C622.557 244.883 620.055 244.151 618.596 245.314C617.507 246.18 617.308 247.853 617.952 249.502C616.307 250.142 615.219 251.425 615.32 252.815C615.455 254.677 617.688 256.03 620.301 255.84C620.31 255.84 620.324 255.836 620.333 255.836C623.178 255.613 626.037 256.053 628.65 257.202L638.713 261.636L628.65 266.07C626.037 267.219 623.178 267.659 620.333 267.437C620.324 267.437 620.31 267.432 620.301 267.432C617.688 267.242 615.455 268.595 615.32 270.462C615.219 271.847 616.307 273.131 617.952 273.77C617.308 275.419 617.507 277.092 618.596 277.958C620.055 279.121 622.557 278.389 624.188 276.328C624.193 276.318 624.202 276.309 624.207 276.3C625.972 274.048 628.228 272.232 630.841 271.083L645.5 264.625L660.159 271.083C662.772 272.232 665.028 274.048 666.789 276.3C666.798 276.309 666.807 276.318 666.812 276.328C668.443 278.389 670.945 279.121 672.404 277.958C673.493 277.092 673.692 275.419 673.048 273.77C674.693 273.131 675.782 271.847 675.68 270.462C675.545 268.595 673.317 267.242 670.699 267.432Z" fill="#1C1C1C"/>
<path d="M635.641 225.892L638.096 225.707C640.283 225.54 642.187 227.19 642.35 229.381L642.368 229.585C642.59 232.587 640.348 235.209 637.355 235.436L634.654 235.64C632.481 235.802 630.586 234.167 630.424 231.985C630.41 231.841 630.406 231.693 630.406 231.554C630.406 228.607 632.671 226.119 635.641 225.892ZM643.04 239.106C643.322 238.439 643.707 237.869 644.124 237.442C644.124 237.438 644.129 237.433 644.133 237.429C644.495 237.063 644.972 236.877 645.449 236.863C645.926 236.877 646.399 237.063 646.76 237.429C646.765 237.433 646.769 237.438 646.774 237.442C647.191 237.869 647.571 238.439 647.858 239.106C648.6 240.857 648.396 242.622 647.4 243.048C646.932 243.252 646.366 243.113 645.824 242.729C645.727 242.659 645.616 242.618 645.5 242.604V242.594C645.481 242.594 645.463 242.599 645.449 242.599C645.431 242.599 645.412 242.594 645.393 242.594V242.604C645.282 242.618 645.171 242.659 645.069 242.729C644.527 243.113 643.966 243.252 643.494 243.048C642.502 242.622 642.299 240.857 643.04 239.106ZM648.53 229.585L648.544 229.381C648.706 227.19 650.615 225.54 652.797 225.707L655.257 225.892C658.227 226.119 660.488 228.607 660.488 231.554C660.488 231.693 660.483 231.841 660.474 231.985C660.307 234.167 658.412 235.802 656.239 235.64L653.538 235.436C650.545 235.209 648.303 232.587 648.53 229.585ZM627.135 233.704C627.13 233.796 627.107 233.889 627.07 233.972C625.861 236.757 626.129 238.295 627.274 239.569C628.83 241.302 633.348 241.413 633.964 241.408C633.987 241.408 634.033 241.408 634.103 241.413C635.145 241.464 636.104 241.858 636.475 242.706C636.683 243.183 636.475 243.98 636.405 244.8C636.206 247.172 635.553 247.58 636.067 248.4C636.266 248.724 637.42 249.822 639.996 250.41C641.261 250.702 643.225 251.027 645.38 251.179C645.384 251.179 645.389 251.179 645.393 251.179V251.184C645.412 251.184 645.431 251.179 645.449 251.179C645.463 251.179 645.481 251.184 645.5 251.184V251.179C645.505 251.179 645.509 251.179 645.519 251.179C647.673 251.027 649.633 250.702 650.897 250.41C653.473 249.822 654.627 248.724 654.831 248.4C655.341 247.58 654.692 247.172 654.493 244.8C654.419 243.98 654.21 243.183 654.419 242.706C654.794 241.858 655.748 241.464 656.791 241.413C656.86 241.408 656.907 241.408 656.93 241.408C657.546 241.413 662.063 241.302 663.62 239.569C664.764 238.295 665.038 236.757 663.824 233.972C663.787 233.889 663.763 233.796 663.759 233.704C663.467 228.065 666.784 227.19 667.711 221.996C669.101 214.231 663.615 206.257 663.147 205.688C657.467 198.794 648.896 198.275 646.144 198.289C645.912 198.289 645.681 198.289 645.449 198.293C645.217 198.289 644.986 198.289 644.749 198.289C642.002 198.275 633.431 198.794 627.746 205.688C627.278 206.257 621.797 214.231 623.183 221.996C624.109 227.19 627.427 228.065 627.135 233.704Z" fill="#1C1C1C"/>
<path d="M305.734 329.333L304.37 329.896L304.328 329.875L304.307 329.922L240.568 356.104L266.641 402.016L319.135 398.047L305.734 329.333ZM304.797 332.063L317.406 396.729L268.292 400.443L304.797 332.063ZM303.24 331.922L267.021 399.771L242.63 356.818L303.24 331.922Z" fill="white"/>
<path d="M179.531 331.948L178.911 331.323L178.089 332.552L177.995 332.563L178.005 332.677L132.01 401.193L187.99 429.24L188.396 429.443L237.865 390.625L179.531 331.948ZM179.594 334.057L235.703 390.495L188.901 427.219L179.594 334.057ZM178.229 334.927L187.464 427.365L134.125 400.635L178.229 334.927Z" fill="white"/>
<path d="M392.005 327.344L390.531 327.417H390.521L332.229 330.37L340.135 374.521L383.312 386.182L392.005 327.344ZM390.203 329.667L382.125 384.365L342.224 373.589L390.203 329.667ZM388.854 328.948L341.245 372.526L333.937 331.724L388.854 328.948Z" fill="white"/>
<path d="M435.042 323.479L402.474 355.219L429.089 376.474L459.542 361.453L435.042 323.479ZM435.271 326.49L457.453 360.875L430.036 374.396L435.271 326.49ZM433.797 326.708L428.604 374.24L404.651 355.109L433.797 326.708Z" fill="white"/>
<path d="M109.651 341.917L108.255 342.401L108.094 342.297L107.974 342.495L6.20831 377.714L42.4166 450.813L42.6198 451.224L124.396 449.677L109.651 341.917ZM108.526 344.359L122.75 448.266L44.3594 449.75L108.526 344.359ZM106.797 344.432L43.1302 449L8.22915 378.542L106.797 344.432Z" fill="white"/>
<path d="M280.229 146.927L278.802 146.547L278.781 146.505L278.734 146.531L212.13 128.859L205.146 181.193L249.365 209.766L280.229 146.927ZM277.833 148.531L248.786 207.672L207.417 180.943L277.833 148.531ZM276.677 147.479L206.812 179.63L213.344 130.672L276.677 147.479Z" fill="white"/>
<path d="M178.115 72.7188L178 71.849L176.599 72.3281L176.521 72.2761L176.458 72.375L98.401 99.1563L126.036 155.333L126.24 155.745L189.115 154.724L178.115 72.7188ZM176.891 74.4375L187.469 153.313L127.984 154.276L176.891 74.4375ZM175.276 74.3073L126.755 153.526L100.417 99.9896L175.276 74.3073Z" fill="white"/>
<path d="M350.156 197.49L348.938 196.656H348.932L300.708 163.766L280.318 203.719L307.667 239.109L350.156 197.49ZM347.318 198.255L307.818 236.943L282.542 204.24L347.318 198.255ZM346.677 196.865L282.406 202.802L301.25 165.88L346.677 196.865Z" fill="white"/>
<path d="M386.776 220.427L341.646 226.021L350 259.042L383.339 265.484L386.776 220.427ZM385.135 222.964L382.026 263.766L352.01 257.964L385.135 222.964ZM383.833 222.245L350.964 256.969L343.443 227.255L383.833 222.245Z" fill="white"/>
<path d="M116.417 38.4167L115.016 37.9583L114.948 37.7813L114.734 37.8646L12.3802 4.40625L-2.96876 84.5261L-3.05209 84.974L63.026 133.177L116.417 38.4167ZM114.047 39.6823L62.5677 131.057L-0.776052 84.8542L114.047 39.6823ZM112.625 38.6927L-1.30209 83.5104L13.4896 6.28646L112.625 38.6927Z" fill="white"/>
<path d="M81 116.875H93.3333C96.1927 116.875 98.7292 117.411 100.938 118.479C103.156 119.552 104.875 121.063 106.083 123.021C107.302 124.979 107.917 127.281 107.917 129.917C107.917 132.542 107.302 134.844 106.083 136.813C104.875 138.771 103.156 140.286 100.938 141.354C98.7292 142.427 96.1927 142.958 93.3333 142.958H81V116.875ZM93.0417 137.063C95.276 137.063 97.0677 136.432 98.4167 135.167C99.776 133.906 100.458 132.156 100.458 129.917C100.458 127.682 99.776 125.932 98.4167 124.667C97.0677 123.391 95.276 122.75 93.0417 122.75H88.375V137.063H93.0417Z" fill="#0F3460"/>
<path d="M111.454 122.75H118.538V142.958H111.454V122.75ZM114.996 120.521C113.704 120.521 112.663 120.161 111.871 119.438C111.079 118.719 110.683 117.823 110.683 116.75C110.683 115.682 111.079 114.792 111.871 114.083C112.663 113.365 113.704 113 114.996 113C116.288 113 117.329 113.344 118.121 114.021C118.923 114.703 119.329 115.578 119.329 116.646C119.329 117.76 118.923 118.682 118.121 119.417C117.329 120.156 116.288 120.521 114.996 120.521Z" fill="#0F3460"/>
<path d="M123.121 115.312H130.204V142.958H123.121V115.312Z" fill="#0F3460"/>
<path d="M143.391 122.417C146.751 122.417 149.313 123.182 151.079 124.708C152.839 126.24 153.725 128.583 153.725 131.75V142.958H147.12V140.354C146.105 142.312 144.12 143.292 141.162 143.292C139.589 143.292 138.235 143.021 137.1 142.479C135.959 141.927 135.1 141.182 134.516 140.25C133.933 139.323 133.641 138.26 133.641 137.062C133.641 135.161 134.37 133.682 135.829 132.625C137.298 131.573 139.563 131.042 142.62 131.042H146.641C146.516 128.906 145.084 127.833 142.35 127.833C141.391 127.833 140.412 127.99 139.412 128.292C138.412 128.599 137.563 129.031 136.87 129.583L134.495 124.771C135.605 124.021 136.959 123.448 138.558 123.042C140.167 122.625 141.777 122.417 143.391 122.417ZM143.141 138.812C143.959 138.812 144.673 138.62 145.287 138.229C145.912 137.828 146.36 137.245 146.641 136.479V134.729H143.579C141.521 134.729 140.495 135.411 140.495 136.771C140.495 137.396 140.73 137.896 141.204 138.271C141.673 138.635 142.318 138.812 143.141 138.812Z" fill="#0F3460"/>
<path d="M164.945 125.187C165.663 124.26 166.601 123.562 167.757 123.104C168.908 122.646 170.236 122.417 171.736 122.417V128.792C171.08 128.724 170.549 128.687 170.132 128.687C168.601 128.687 167.408 129.099 166.549 129.917C165.7 130.74 165.278 131.995 165.278 133.687V142.958H158.195V122.75H164.945V125.187Z" fill="#0F3460"/>
<path d="M183.311 122.417C186.67 122.417 189.233 123.182 190.998 124.708C192.759 126.24 193.644 128.583 193.644 131.75V142.958H187.04V140.354C186.024 142.312 184.04 143.292 181.082 143.292C179.509 143.292 178.154 143.021 177.019 142.479C175.878 141.927 175.019 141.182 174.436 140.25C173.852 139.323 173.561 138.26 173.561 137.062C173.561 135.161 174.29 133.682 175.748 132.625C177.217 131.573 179.483 131.042 182.54 131.042H186.561C186.436 128.906 185.003 127.833 182.269 127.833C181.311 127.833 180.332 127.99 179.332 128.292C178.332 128.599 177.483 129.031 176.79 129.583L174.415 124.771C175.524 124.021 176.878 123.448 178.477 123.042C180.087 122.625 181.696 122.417 183.311 122.417ZM183.061 138.812C183.878 138.812 184.592 138.62 185.207 138.229C185.832 137.828 186.279 137.245 186.561 136.479V134.729H183.498C181.441 134.729 180.415 135.411 180.415 136.771C180.415 137.396 180.649 137.896 181.123 138.271C181.592 138.635 182.238 138.812 183.061 138.812Z" fill="#0F3460"/>
<path d="M211.281 122.417C213.781 122.417 215.791 123.167 217.322 124.667C218.848 126.156 219.614 128.396 219.614 131.396V142.958H212.531V132.562C212.531 129.802 211.426 128.417 209.218 128.417C208.01 128.417 207.036 128.823 206.301 129.625C205.562 130.417 205.197 131.604 205.197 133.187V142.958H198.114V122.75H204.864V124.958C205.656 124.141 206.598 123.516 207.697 123.083C208.791 122.641 209.989 122.417 211.281 122.417Z" fill="#0F3460"/>
<path d="M245.785 122.75V139.271C245.785 143.021 244.764 145.833 242.723 147.708C240.691 149.583 237.764 150.521 233.931 150.521C231.941 150.521 230.082 150.297 228.348 149.854C226.608 149.406 225.129 148.75 223.91 147.875L226.473 142.917C227.29 143.594 228.327 144.125 229.577 144.5C230.837 144.885 232.082 145.083 233.306 145.083C235.165 145.083 236.525 144.672 237.389 143.854C238.264 143.031 238.702 141.823 238.702 140.208V139.521C237.337 141.12 235.337 141.917 232.702 141.917C230.91 141.917 229.254 141.516 227.744 140.708C226.228 139.906 225.02 138.766 224.119 137.292C223.228 135.807 222.785 134.094 222.785 132.146C222.785 130.229 223.228 128.536 224.119 127.062C225.02 125.594 226.228 124.453 227.744 123.646C229.254 122.828 230.91 122.417 232.702 122.417C235.587 122.417 237.702 123.349 239.035 125.208V122.75H245.785ZM234.389 136.292C235.65 136.292 236.702 135.911 237.535 135.146C238.369 134.37 238.785 133.37 238.785 132.146C238.785 130.937 238.374 129.953 237.556 129.187C236.733 128.427 235.681 128.042 234.389 128.042C233.098 128.042 232.035 128.427 231.202 129.187C230.369 129.953 229.952 130.937 229.952 132.146C229.952 133.37 230.369 134.37 231.202 135.146C232.046 135.911 233.108 136.292 234.389 136.292Z" fill="#0F3460"/>
<path d="M273.888 122.417C275.732 122.417 277.409 122.849 278.909 123.708C280.409 124.573 281.597 125.792 282.472 127.375C283.357 128.948 283.805 130.771 283.805 132.854C283.805 134.937 283.357 136.771 282.472 138.354C281.597 139.937 280.409 141.161 278.909 142.021C277.409 142.87 275.732 143.292 273.888 143.292C271.524 143.292 269.649 142.583 268.263 141.167V150.187H261.18V122.75H267.93V124.771C269.248 123.203 271.232 122.417 273.888 122.417ZM272.409 137.667C273.643 137.667 274.659 137.245 275.451 136.396C276.253 135.536 276.659 134.354 276.659 132.854C276.659 131.37 276.253 130.198 275.451 129.333C274.659 128.474 273.643 128.042 272.409 128.042C271.159 128.042 270.138 128.474 269.347 129.333C268.555 130.198 268.159 131.37 268.159 132.854C268.159 134.354 268.555 135.536 269.347 136.396C270.138 137.245 271.159 137.667 272.409 137.667Z" fill="#0F3460"/>
<path d="M295.689 122.417C299.048 122.417 301.611 123.182 303.376 124.708C305.137 126.24 306.022 128.583 306.022 131.75V142.958H299.418V140.354C298.402 142.312 296.418 143.292 293.46 143.292C291.887 143.292 290.533 143.021 289.397 142.479C288.257 141.927 287.397 141.182 286.814 140.25C286.231 139.323 285.939 138.26 285.939 137.062C285.939 135.161 286.668 133.682 288.126 132.625C289.595 131.573 291.861 131.042 294.918 131.042H298.939C298.814 128.906 297.382 127.833 294.647 127.833C293.689 127.833 292.71 127.99 291.71 128.292C290.71 128.599 289.861 129.031 289.168 129.583L286.793 124.771C287.902 124.021 289.257 123.448 290.856 123.042C292.465 122.625 294.074 122.417 295.689 122.417ZM295.439 138.812C296.257 138.812 296.97 138.62 297.585 138.229C298.21 137.828 298.658 137.245 298.939 136.479V134.729H295.876C293.819 134.729 292.793 135.411 292.793 136.771C292.793 137.396 293.027 137.896 293.501 138.271C293.97 138.635 294.616 138.812 295.439 138.812Z" fill="#0F3460"/>
<path d="M319.659 135.875L317.575 138V142.958H310.492V115.312H317.575V129.792L324.805 122.75H333.2L324.805 131.396L333.909 142.958H325.325L319.659 135.875Z" fill="#0F3460"/>
<path d="M344.666 122.417C348.025 122.417 350.587 123.182 352.353 124.708C354.114 126.24 354.999 128.583 354.999 131.75V142.958H348.395V140.354C347.379 142.312 345.395 143.292 342.436 143.292C340.864 143.292 339.509 143.021 338.374 142.479C337.233 141.927 336.374 141.182 335.791 140.25C335.207 139.323 334.916 138.26 334.916 137.062C334.916 135.161 335.645 133.682 337.103 132.625C338.572 131.573 340.837 131.042 343.895 131.042H347.916C347.791 128.906 346.358 127.833 343.624 127.833C342.666 127.833 341.686 127.99 340.686 128.292C339.686 128.599 338.837 129.031 338.145 129.583L335.77 124.771C336.879 124.021 338.233 123.448 339.832 123.042C341.442 122.625 343.051 122.417 344.666 122.417ZM344.416 138.812C345.233 138.812 345.947 138.62 346.561 138.229C347.186 137.828 347.634 137.245 347.916 136.479V134.729H344.853C342.796 134.729 341.77 135.411 341.77 136.771C341.77 137.396 342.004 137.896 342.478 138.271C342.947 138.635 343.593 138.812 344.416 138.812Z" fill="#0F3460"/>
<path d="M359.469 122.75H366.552V142.958H359.469V122.75ZM363.011 120.521C361.719 120.521 360.677 120.161 359.886 119.438C359.094 118.719 358.698 117.823 358.698 116.75C358.698 115.682 359.094 114.792 359.886 114.083C360.677 113.365 361.719 113 363.011 113C364.302 113 365.344 113.344 366.136 114.021C366.938 114.703 367.344 115.578 367.344 116.646C367.344 117.76 366.938 118.682 366.136 119.417C365.344 120.156 364.302 120.521 363.011 120.521Z" fill="#0F3460"/>
<path d="M394.69 122.417C396.534 122.417 398.211 122.844 399.711 123.688C401.211 124.536 402.398 125.75 403.273 127.333C404.159 128.906 404.607 130.729 404.607 132.813C404.607 134.911 404.159 136.76 403.273 138.354C402.398 139.938 401.211 141.161 399.711 142.021C398.211 142.87 396.534 143.292 394.69 143.292C392.034 143.292 390.05 142.51 388.732 140.938V142.958H381.982V115.312H389.065V124.5C390.425 123.115 392.3 122.417 394.69 122.417ZM393.211 137.667C394.445 137.667 395.461 137.245 396.253 136.396C397.055 135.536 397.461 134.344 397.461 132.813C397.461 131.328 397.055 130.161 396.253 129.313C395.461 128.469 394.445 128.042 393.211 128.042C391.961 128.042 390.94 128.469 390.148 129.313C389.357 130.161 388.961 131.328 388.961 132.813C388.961 134.344 389.357 135.536 390.148 136.396C390.94 137.245 391.961 137.667 393.211 137.667Z" fill="#0F3460"/>
<path d="M416.491 122.417C419.85 122.417 422.413 123.182 424.178 124.708C425.939 126.24 426.824 128.583 426.824 131.75V142.958H420.22V140.354C419.204 142.312 417.22 143.292 414.262 143.292C412.689 143.292 411.334 143.021 410.199 142.479C409.058 141.927 408.199 141.182 407.616 140.25C407.032 139.323 406.741 138.26 406.741 137.062C406.741 135.161 407.47 133.682 408.928 132.625C410.397 131.573 412.663 131.042 415.72 131.042H419.741C419.616 128.906 418.183 127.833 415.449 127.833C414.491 127.833 413.512 127.99 412.512 128.292C411.512 128.599 410.663 129.031 409.97 129.583L407.595 124.771C408.704 124.021 410.058 123.448 411.657 123.042C413.267 122.625 414.876 122.417 416.491 122.417ZM416.241 138.812C417.058 138.812 417.772 138.62 418.387 138.229C419.012 137.828 419.459 137.245 419.741 136.479V134.729H416.678C414.621 134.729 413.595 135.411 413.595 136.771C413.595 137.396 413.829 137.896 414.303 138.271C414.772 138.635 415.418 138.812 416.241 138.812Z" fill="#0F3460"/>
<path d="M444.461 122.417C446.961 122.417 448.971 123.167 450.502 124.667C452.028 126.156 452.794 128.396 452.794 131.396V142.958H445.711V132.563C445.711 129.802 444.606 128.417 442.398 128.417C441.19 128.417 440.216 128.823 439.481 129.625C438.742 130.417 438.377 131.604 438.377 133.188V142.958H431.294V115.312H438.377V124.625C439.138 123.906 440.044 123.354 441.086 122.979C442.138 122.604 443.263 122.417 444.461 122.417Z" fill="#0F3460"/>
<path d="M465.84 122.417C469.2 122.417 471.762 123.182 473.528 124.708C475.288 126.24 476.174 128.583 476.174 131.75V142.958H469.569V140.354C468.554 142.312 466.569 143.292 463.611 143.292C462.038 143.292 460.684 143.021 459.549 142.479C458.408 141.927 457.549 141.182 456.965 140.25C456.382 139.323 456.09 138.26 456.09 137.062C456.09 135.161 456.819 133.682 458.278 132.625C459.746 131.573 462.012 131.042 465.069 131.042H469.09C468.965 128.906 467.533 127.833 464.799 127.833C463.84 127.833 462.861 127.99 461.861 128.292C460.861 128.599 460.012 129.031 459.319 129.583L456.944 124.771C458.054 124.021 459.408 123.448 461.007 123.042C462.616 122.625 464.226 122.417 465.84 122.417ZM465.59 138.812C466.408 138.812 467.121 138.62 467.736 138.229C468.361 137.828 468.809 137.245 469.09 136.479V134.729H466.028C463.97 134.729 462.944 135.411 462.944 136.771C462.944 137.396 463.179 137.896 463.653 138.271C464.121 138.635 464.767 138.812 465.59 138.812Z" fill="#0F3460"/>
<path d="M493.81 122.417C496.31 122.417 498.321 123.167 499.852 124.667C501.378 126.156 502.143 128.396 502.143 131.396V142.958H495.06V132.562C495.06 129.802 493.956 128.417 491.748 128.417C490.539 128.417 489.565 128.823 488.831 129.625C488.091 130.417 487.727 131.604 487.727 133.187V142.958H480.643V122.75H487.393V124.958C488.185 124.141 489.128 123.516 490.227 123.083C491.321 122.641 492.518 122.417 493.81 122.417Z" fill="#0F3460"/>
<path d="M90.1667 187.795L88.0833 189.92V194.878H81V167.232H88.0833V181.712L95.3125 174.67H103.708L95.3125 183.316L104.417 194.878H95.8333L90.1667 187.795Z" fill="#0F3460"/>
<path d="M106.569 174.67H113.653V194.878H106.569V174.67ZM110.111 172.441C108.819 172.441 107.778 172.081 106.986 171.357C106.194 170.639 105.798 169.743 105.798 168.67C105.798 167.602 106.194 166.712 106.986 166.003C107.778 165.285 108.819 164.92 110.111 164.92C111.403 164.92 112.444 165.264 113.236 165.941C114.038 166.623 114.444 167.498 114.444 168.566C114.444 169.68 114.038 170.602 113.236 171.337C112.444 172.076 111.403 172.441 110.111 172.441Z" fill="#0F3460"/>
<path d="M144.548 174.337C147.033 174.337 149.012 175.087 150.486 176.587C151.97 178.076 152.715 180.316 152.715 183.316V194.878H145.632V184.483C145.632 183.066 145.361 182.024 144.819 181.358C144.288 180.68 143.538 180.337 142.569 180.337C141.496 180.337 140.637 180.712 139.986 181.462C139.345 182.212 139.027 183.347 139.027 184.858V194.878H131.944V184.483C131.944 181.722 130.928 180.337 128.902 180.337C127.803 180.337 126.928 180.712 126.277 181.462C125.637 182.212 125.319 183.347 125.319 184.858V194.878H118.236V174.67H124.986V176.795C125.736 175.977 126.621 175.368 127.652 174.962C128.678 174.545 129.803 174.337 131.027 174.337C132.444 174.337 133.705 174.602 134.819 175.128C135.944 175.644 136.85 176.436 137.548 177.503C138.34 176.493 139.34 175.712 140.548 175.17C141.767 174.618 143.1 174.337 144.548 174.337Z" fill="#0F3460"/>
<path d="M157.186 174.67H164.269V194.878H157.186V174.67ZM160.728 172.441C159.436 172.441 158.394 172.081 157.603 171.357C156.811 170.639 156.415 169.743 156.415 168.67C156.415 167.602 156.811 166.712 157.603 166.003C158.394 165.285 159.436 164.92 160.728 164.92C162.019 164.92 163.061 165.264 163.853 165.941C164.655 166.623 165.061 167.498 165.061 168.566C165.061 169.68 164.655 170.602 163.853 171.337C163.061 172.076 162.019 172.441 160.728 172.441Z" fill="#0F3460"/>
<path d="M177.457 174.337C180.816 174.337 183.379 175.102 185.144 176.628C186.905 178.16 187.79 180.503 187.79 183.67V194.878H181.186V192.274C180.17 194.233 178.186 195.212 175.228 195.212C173.655 195.212 172.3 194.941 171.165 194.399C170.024 193.847 169.165 193.102 168.582 192.17C167.998 191.243 167.707 190.18 167.707 188.983C167.707 187.081 168.436 185.602 169.894 184.545C171.363 183.493 173.629 182.962 176.686 182.962H180.707C180.582 180.826 179.149 179.753 176.415 179.753C175.457 179.753 174.478 179.91 173.478 180.212C172.478 180.519 171.629 180.951 170.936 181.503L168.561 176.691C169.67 175.941 171.024 175.368 172.623 174.962C174.233 174.545 175.842 174.337 177.457 174.337ZM177.207 190.733C178.024 190.733 178.738 190.54 179.353 190.149C179.978 189.748 180.425 189.165 180.707 188.399V186.649H177.644C175.587 186.649 174.561 187.331 174.561 188.691C174.561 189.316 174.795 189.816 175.269 190.191C175.738 190.555 176.384 190.733 177.207 190.733Z" fill="#0F3460"/>
<path d="M224.356 174.67V194.878H217.606V192.712C216.856 193.535 215.961 194.16 214.919 194.587C213.877 195.003 212.773 195.212 211.606 195.212C208.992 195.212 206.909 194.441 205.356 192.899C203.815 191.357 203.044 189.045 203.044 185.962V174.67H210.106V184.816C210.106 186.331 210.388 187.436 210.961 188.128C211.544 188.826 212.377 189.17 213.461 189.17C214.586 189.17 215.502 188.785 216.211 188.003C216.919 187.227 217.273 186.024 217.273 184.399V174.67H224.356Z" fill="#0F3460"/>
<path d="M242.066 174.337C244.566 174.337 246.576 175.087 248.108 176.587C249.634 178.076 250.399 180.316 250.399 183.316V194.878H243.316V184.483C243.316 181.722 242.212 180.337 240.004 180.337C238.795 180.337 237.821 180.743 237.087 181.545C236.347 182.337 235.983 183.524 235.983 185.108V194.878H228.899V174.67H235.649V176.878C236.441 176.061 237.384 175.436 238.483 175.003C239.576 174.561 240.774 174.337 242.066 174.337Z" fill="#0F3460"/>
<path d="M268.779 194.066C268.18 194.43 267.451 194.706 266.591 194.899C265.742 195.107 264.831 195.212 263.862 195.212C261.222 195.212 259.196 194.566 257.779 193.274C256.362 191.982 255.654 190.061 255.654 187.503V180.712H252.716V175.42H255.654V170.17H262.737V175.42H267.362V180.712H262.737V187.42C262.737 188.144 262.93 188.712 263.321 189.128C263.706 189.535 264.222 189.732 264.862 189.732C265.68 189.732 266.404 189.524 267.029 189.107L268.779 194.066Z" fill="#0F3460"/>
<path d="M292.752 174.67V194.878H286.002V192.712C285.252 193.535 284.357 194.16 283.315 194.587C282.273 195.003 281.169 195.212 280.002 195.212C277.388 195.212 275.305 194.441 273.752 192.899C272.211 191.357 271.44 189.045 271.44 185.962V174.67H278.502V184.816C278.502 186.331 278.784 187.436 279.357 188.128C279.94 188.826 280.773 189.17 281.857 189.17C282.982 189.17 283.898 188.785 284.607 188.003C285.315 187.227 285.669 186.024 285.669 184.399V174.67H292.752Z" fill="#0F3460"/>
<path d="M306.462 187.795L304.379 189.92V194.878H297.295V167.232H304.379V181.712L311.608 174.67H320.004L311.608 183.316L320.712 194.878H312.129L306.462 187.795Z" fill="#0F3460"/>
<path d="M360.024 174.337C362.508 174.337 364.487 175.087 365.961 176.587C367.445 178.076 368.19 180.316 368.19 183.316V194.878H361.107V184.483C361.107 183.066 360.836 182.024 360.294 181.358C359.763 180.68 359.013 180.337 358.044 180.337C356.972 180.337 356.112 180.712 355.461 181.462C354.82 182.212 354.503 183.347 354.503 184.858V194.878H347.419V184.483C347.419 181.722 346.404 180.337 344.378 180.337C343.279 180.337 342.404 180.712 341.753 181.462C341.112 182.212 340.794 183.347 340.794 184.858V194.878H333.711V174.67H340.461V176.795C341.211 175.977 342.097 175.368 343.128 174.962C344.154 174.545 345.279 174.337 346.503 174.337C347.919 174.337 349.18 174.602 350.294 175.128C351.419 175.644 352.326 176.436 353.024 177.503C353.815 176.493 354.815 175.712 356.024 175.17C357.242 174.618 358.576 174.337 360.024 174.337Z" fill="#0F3460"/>
<path d="M393.307 184.816C393.307 184.873 393.271 185.456 393.203 186.566H378.516C378.807 187.608 379.38 188.415 380.245 188.983C381.104 189.54 382.182 189.816 383.474 189.816C384.443 189.816 385.286 189.68 385.995 189.399C386.703 189.123 387.417 188.68 388.141 188.066L391.849 191.941C389.891 194.123 387.021 195.212 383.245 195.212C380.88 195.212 378.807 194.769 377.016 193.878C375.234 192.977 373.854 191.733 372.87 190.149C371.88 188.555 371.391 186.748 371.391 184.733C371.391 182.748 371.87 180.972 372.828 179.399C373.786 177.816 375.104 176.581 376.786 175.691C378.479 174.79 380.38 174.337 382.495 174.337C384.505 174.337 386.333 174.753 387.974 175.587C389.609 176.42 390.911 177.628 391.87 179.212C392.828 180.785 393.307 182.649 393.307 184.816ZM382.536 179.378C381.437 179.378 380.521 179.691 379.786 180.316C379.062 180.93 378.604 181.769 378.411 182.837H386.682C386.474 181.769 386 180.93 385.266 180.316C384.542 179.691 383.63 179.378 382.536 179.378Z" fill="#0F3460"/>
<path d="M409.757 174.337C412.257 174.337 414.268 175.087 415.799 176.587C417.325 178.076 418.091 180.316 418.091 183.316V194.878H411.007V184.483C411.007 181.722 409.903 180.337 407.695 180.337C406.487 180.337 405.513 180.743 404.778 181.545C404.039 182.337 403.674 183.524 403.674 185.108V194.878H396.591V174.67H403.341V176.878C404.132 176.061 405.075 175.436 406.174 175.003C407.268 174.561 408.466 174.337 409.757 174.337Z" fill="#0F3460"/>
<path d="M431.137 174.337C434.496 174.337 437.059 175.102 438.824 176.628C440.585 178.16 441.47 180.503 441.47 183.67V194.878H434.866V192.274C433.85 194.233 431.866 195.212 428.908 195.212C427.335 195.212 425.981 194.941 424.845 194.399C423.705 193.847 422.845 193.102 422.262 192.17C421.679 191.243 421.387 190.18 421.387 188.983C421.387 187.081 422.116 185.602 423.574 184.545C425.043 183.493 427.309 182.962 430.366 182.962H434.387C434.262 180.826 432.83 179.753 430.095 179.753C429.137 179.753 428.158 179.91 427.158 180.212C426.158 180.519 425.309 180.951 424.616 181.503L422.241 176.691C423.35 175.941 424.705 175.368 426.304 174.962C427.913 174.545 429.522 174.337 431.137 174.337ZM430.887 190.733C431.705 190.733 432.418 190.54 433.033 190.149C433.658 189.748 434.106 189.165 434.387 188.399V186.649H431.324C429.267 186.649 428.241 187.331 428.241 188.691C428.241 189.316 428.475 189.816 428.949 190.191C429.418 190.555 430.064 190.733 430.887 190.733Z" fill="#0F3460"/>
<path d="M459.107 174.337C461.607 174.337 463.617 175.087 465.149 176.587C466.675 178.076 467.44 180.316 467.44 183.316V194.878H460.357V184.483C460.357 181.722 459.253 180.337 457.044 180.337C455.836 180.337 454.862 180.743 454.128 181.545C453.388 182.337 453.024 183.524 453.024 185.108V194.878H445.94V174.67H452.69V176.878C453.482 176.061 454.425 175.436 455.524 175.003C456.617 174.561 457.815 174.337 459.107 174.337Z" fill="#0F3460"/>
<path d="M480.486 174.337C483.846 174.337 486.408 175.102 488.174 176.628C489.934 178.16 490.82 180.503 490.82 183.67V194.878H484.216V192.274C483.2 194.233 481.216 195.212 478.257 195.212C476.684 195.212 475.33 194.941 474.195 194.399C473.054 193.847 472.195 193.102 471.611 192.17C471.028 191.243 470.736 190.18 470.736 188.983C470.736 187.081 471.466 185.602 472.924 184.545C474.393 183.493 476.658 182.962 479.716 182.962H483.736C483.611 180.826 482.179 179.753 479.445 179.753C478.486 179.753 477.507 179.91 476.507 180.212C475.507 180.519 474.658 180.951 473.966 181.503L471.591 176.691C472.7 175.941 474.054 175.368 475.653 174.962C477.262 174.545 478.872 174.337 480.486 174.337ZM480.236 190.733C481.054 190.733 481.768 190.54 482.382 190.149C483.007 189.748 483.455 189.165 483.736 188.399V186.649H480.674C478.617 186.649 477.591 187.331 477.591 188.691C477.591 189.316 477.825 189.816 478.299 190.191C478.768 190.555 479.413 190.733 480.236 190.733Z" fill="#0F3460"/>
<path d="M521.602 174.337C524.087 174.337 526.066 175.087 527.54 176.587C529.024 178.076 529.769 180.316 529.769 183.316V194.878H522.686V184.483C522.686 183.066 522.415 182.024 521.873 181.358C521.342 180.68 520.592 180.337 519.623 180.337C518.55 180.337 517.691 180.712 517.04 181.462C516.399 182.212 516.081 183.347 516.081 184.858V194.878H508.998V184.483C508.998 181.722 507.982 180.337 505.956 180.337C504.857 180.337 503.982 180.712 503.331 181.462C502.691 182.212 502.373 183.347 502.373 184.858V194.878H495.29V174.67H502.04V176.795C502.79 175.977 503.675 175.368 504.706 174.962C505.732 174.545 506.857 174.337 508.081 174.337C509.498 174.337 510.758 174.602 511.873 175.128C512.998 175.644 513.904 176.436 514.602 177.503C515.394 176.493 516.394 175.712 517.602 175.17C518.821 174.618 520.154 174.337 521.602 174.337Z" fill="#0F3460"/>
<path d="M533.386 168.795H541.802L540.386 185.378H534.761L533.386 168.795ZM537.594 195.212C536.355 195.212 535.334 194.837 534.532 194.087C533.74 193.326 533.344 192.394 533.344 191.295C533.344 190.186 533.74 189.269 534.532 188.545C535.334 187.826 536.355 187.462 537.594 187.462C538.844 187.462 539.855 187.826 540.636 188.545C541.412 189.269 541.802 190.186 541.802 191.295C541.802 192.394 541.407 193.326 540.615 194.087C539.823 194.837 538.813 195.212 537.594 195.212Z" fill="#0F3460"/>
</g>
<defs>
<clipPath id="clip0_1_726">
<rect width="800" height="450" fill="white"/>
</clipPath>
</defs>
</svg>
