<svg xmlns="http://www.w3.org/2000/svg" xmlns:xlink="http://www.w3.org/1999/xlink" width="800" zoomAndPan="magnify" viewBox="0 0 600 337.499995" height="450" preserveAspectRatio="xMidYMid meet" version="1.0"><defs><filter x="0%" y="0%" width="100%" height="100%" id="86fcb52396"><feColorMatrix values="0 0 0 0 1 0 0 0 0 1 0 0 0 0 1 0 0 0 1 0" color-interpolation-filters="sRGB"/></filter><clipPath id="88d139cc4c"><path d="M 0.445312 0 L 599.554688 0 L 599.554688 337 L 0.445312 337 Z M 0.445312 0 " clip-rule="nonzero"/></clipPath><clipPath id="4b27db5ecc"><path d="M 180 0 L 599.554688 0 L 599.554688 337 L 180 337 Z M 180 0 " clip-rule="nonzero"/></clipPath><mask id="ddf528502d"><g filter="url(#86fcb52396)"><rect x="-60" width="720" fill="#000000" y="-33.75" height="404.999994" fill-opacity="0.298"/></g></mask><clipPath id="61ad964a51"><path d="M 276 255 L 370 255 L 370 336.660156 L 276 336.660156 Z M 276 255 " clip-rule="nonzero"/></clipPath><clipPath id="5ff33722f3"><path d="M 344 136 L 419.554688 136 L 419.554688 218 L 344 218 Z M 344 136 " clip-rule="nonzero"/></clipPath><clipPath id="4ced5576d3"><path d="M 69 0 L 164 0 L 164 59 L 69 59 Z M 69 0 " clip-rule="nonzero"/></clipPath><clipPath id="f4dcefe75a"><rect x="0" width="420" y="0" height="337"/></clipPath><clipPath id="fdbd900d2a"><path d="M 204.101562 142 L 395.953125 142 L 395.953125 272 L 204.101562 272 Z M 204.101562 142 " clip-rule="nonzero"/></clipPath><clipPath id="0f83c25b6b"><path d="M 259.234375 169.058594 L 340.226562 169.058594 L 340.226562 250.046875 L 259.234375 250.046875 Z M 259.234375 169.058594 " clip-rule="nonzero"/></clipPath><clipPath id="7c1f2d7d0d"><path d="M 270 188 L 328 188 L 328 238 L 270 238 Z M 270 188 " clip-rule="nonzero"/></clipPath><clipPath id="2a65cf123c"><path d="M 263.738281 195.359375 L 317.402344 171.847656 L 340.222656 223.9375 L 286.554688 247.445312 Z M 263.738281 195.359375 " clip-rule="nonzero"/></clipPath><clipPath id="e727d825d2"><path d="M 263.738281 195.359375 L 317.402344 171.847656 L 340.222656 223.9375 L 286.554688 247.445312 Z M 263.738281 195.359375 " clip-rule="nonzero"/></clipPath><clipPath id="6351ee39ee"><path d="M 263.738281 195.359375 L 317.402344 171.847656 L 340.222656 223.9375 L 286.554688 247.445312 Z M 263.738281 195.359375 " clip-rule="nonzero"/></clipPath><clipPath id="0dbc8e7d1f"><path d="M 272 194 L 327 194 L 327 237 L 272 237 Z M 272 194 " clip-rule="nonzero"/></clipPath><clipPath id="af4543b773"><path d="M 263.738281 195.359375 L 317.402344 171.847656 L 340.222656 223.9375 L 286.554688 247.445312 Z M 263.738281 195.359375 " clip-rule="nonzero"/></clipPath><clipPath id="289d002bf1"><path d="M 263.738281 195.359375 L 317.402344 171.847656 L 340.222656 223.9375 L 286.554688 247.445312 Z M 263.738281 195.359375 " clip-rule="nonzero"/></clipPath><clipPath id="b2c4f82904"><path d="M 263.738281 195.359375 L 317.402344 171.847656 L 340.222656 223.9375 L 286.554688 247.445312 Z M 263.738281 195.359375 " clip-rule="nonzero"/></clipPath><clipPath id="bad90d8624"><path d="M 273 190 L 324 190 L 324 198 L 273 198 Z M 273 190 " clip-rule="nonzero"/></clipPath><clipPath id="871fa618e8"><path d="M 263.738281 195.359375 L 317.402344 171.847656 L 340.222656 223.9375 L 286.554688 247.445312 Z M 263.738281 195.359375 " clip-rule="nonzero"/></clipPath><clipPath id="aa2216903f"><path d="M 263.738281 195.359375 L 317.402344 171.847656 L 340.222656 223.9375 L 286.554688 247.445312 Z M 263.738281 195.359375 " clip-rule="nonzero"/></clipPath><clipPath id="b61d0dea6c"><path d="M 263.738281 195.359375 L 317.402344 171.847656 L 340.222656 223.9375 L 286.554688 247.445312 Z M 263.738281 195.359375 " clip-rule="nonzero"/></clipPath><clipPath id="3d918f3f0f"><path d="M 312 204 L 326 204 L 326 219 L 312 219 Z M 312 204 " clip-rule="nonzero"/></clipPath><clipPath id="d2123a1e25"><path d="M 263.738281 195.359375 L 317.402344 171.847656 L 340.222656 223.9375 L 286.554688 247.445312 Z M 263.738281 195.359375 " clip-rule="nonzero"/></clipPath><clipPath id="5c1a85edf6"><path d="M 263.738281 195.359375 L 317.402344 171.847656 L 340.222656 223.9375 L 286.554688 247.445312 Z M 263.738281 195.359375 " clip-rule="nonzero"/></clipPath><clipPath id="fdb4a7a3f4"><path d="M 263.738281 195.359375 L 317.402344 171.847656 L 340.222656 223.9375 L 286.554688 247.445312 Z M 263.738281 195.359375 " clip-rule="nonzero"/></clipPath><clipPath id="b636e3e363"><path d="M 273 203 L 287 203 L 287 221 L 273 221 Z M 273 203 " clip-rule="nonzero"/></clipPath><clipPath id="9cf3ad127f"><path d="M 263.738281 195.359375 L 317.402344 171.847656 L 340.222656 223.9375 L 286.554688 247.445312 Z M 263.738281 195.359375 " clip-rule="nonzero"/></clipPath><clipPath id="d4d035c65f"><path d="M 263.738281 195.359375 L 317.402344 171.847656 L 340.222656 223.9375 L 286.554688 247.445312 Z M 263.738281 195.359375 " clip-rule="nonzero"/></clipPath><clipPath id="48eb494abf"><path d="M 263.738281 195.359375 L 317.402344 171.847656 L 340.222656 223.9375 L 286.554688 247.445312 Z M 263.738281 195.359375 " clip-rule="nonzero"/></clipPath><clipPath id="053f1b517c"><path d="M 309 217 L 323 217 L 323 236 L 309 236 Z M 309 217 " clip-rule="nonzero"/></clipPath><clipPath id="30feecfd9e"><path d="M 263.738281 195.359375 L 317.402344 171.847656 L 340.222656 223.9375 L 286.554688 247.445312 Z M 263.738281 195.359375 " clip-rule="nonzero"/></clipPath><clipPath id="1079e20210"><path d="M 263.738281 195.359375 L 317.402344 171.847656 L 340.222656 223.9375 L 286.554688 247.445312 Z M 263.738281 195.359375 " clip-rule="nonzero"/></clipPath><clipPath id="9992f3c319"><path d="M 263.738281 195.359375 L 317.402344 171.847656 L 340.222656 223.9375 L 286.554688 247.445312 Z M 263.738281 195.359375 " clip-rule="nonzero"/></clipPath><clipPath id="2103d91177"><path d="M 277 219 L 289 219 L 289 234 L 277 234 Z M 277 219 " clip-rule="nonzero"/></clipPath><clipPath id="218b7e88dc"><path d="M 263.738281 195.359375 L 317.402344 171.847656 L 340.222656 223.9375 L 286.554688 247.445312 Z M 263.738281 195.359375 " clip-rule="nonzero"/></clipPath><clipPath id="bd51c0e113"><path d="M 263.738281 195.359375 L 317.402344 171.847656 L 340.222656 223.9375 L 286.554688 247.445312 Z M 263.738281 195.359375 " clip-rule="nonzero"/></clipPath><clipPath id="d4eac6f62a"><path d="M 263.738281 195.359375 L 317.402344 171.847656 L 340.222656 223.9375 L 286.554688 247.445312 Z M 263.738281 195.359375 " clip-rule="nonzero"/></clipPath><clipPath id="73c8ef1192"><path d="M 291 210 L 308 210 L 308 224 L 291 224 Z M 291 210 " clip-rule="nonzero"/></clipPath><clipPath id="31ad95ab9e"><path d="M 263.738281 195.359375 L 317.402344 171.847656 L 340.222656 223.9375 L 286.554688 247.445312 Z M 263.738281 195.359375 " clip-rule="nonzero"/></clipPath><clipPath id="c565fb4957"><path d="M 263.738281 195.359375 L 317.402344 171.847656 L 340.222656 223.9375 L 286.554688 247.445312 Z M 263.738281 195.359375 " clip-rule="nonzero"/></clipPath><clipPath id="c1501db1dc"><path d="M 263.738281 195.359375 L 317.402344 171.847656 L 340.222656 223.9375 L 286.554688 247.445312 Z M 263.738281 195.359375 " clip-rule="nonzero"/></clipPath><clipPath id="b2f01d3bf7"><path d="M 289 222 L 296 222 L 296 232 L 289 232 Z M 289 222 " clip-rule="nonzero"/></clipPath><clipPath id="74818b1d1d"><path d="M 263.738281 195.359375 L 317.402344 171.847656 L 340.222656 223.9375 L 286.554688 247.445312 Z M 263.738281 195.359375 " clip-rule="nonzero"/></clipPath><clipPath id="265f8bd6c2"><path d="M 263.738281 195.359375 L 317.402344 171.847656 L 340.222656 223.9375 L 286.554688 247.445312 Z M 263.738281 195.359375 " clip-rule="nonzero"/></clipPath><clipPath id="a0b19d73c9"><path d="M 263.738281 195.359375 L 317.402344 171.847656 L 340.222656 223.9375 L 286.554688 247.445312 Z M 263.738281 195.359375 " clip-rule="nonzero"/></clipPath><clipPath id="77aab53188"><path d="M 293 232 L 296 232 L 296 235 L 293 235 Z M 293 232 " clip-rule="nonzero"/></clipPath><clipPath id="9bad573327"><path d="M 263.738281 195.359375 L 317.402344 171.847656 L 340.222656 223.9375 L 286.554688 247.445312 Z M 263.738281 195.359375 " clip-rule="nonzero"/></clipPath><clipPath id="1e755a57b6"><path d="M 263.738281 195.359375 L 317.402344 171.847656 L 340.222656 223.9375 L 286.554688 247.445312 Z M 263.738281 195.359375 " clip-rule="nonzero"/></clipPath><clipPath id="67f7d49473"><path d="M 263.738281 195.359375 L 317.402344 171.847656 L 340.222656 223.9375 L 286.554688 247.445312 Z M 263.738281 195.359375 " clip-rule="nonzero"/></clipPath><clipPath id="c2691f1c86"><path d="M 278 207 L 285 207 L 285 212 L 278 212 Z M 278 207 " clip-rule="nonzero"/></clipPath><clipPath id="f9666bcd50"><path d="M 263.738281 195.359375 L 317.402344 171.847656 L 340.222656 223.9375 L 286.554688 247.445312 Z M 263.738281 195.359375 " clip-rule="nonzero"/></clipPath><clipPath id="8ad630a0e3"><path d="M 263.738281 195.359375 L 317.402344 171.847656 L 340.222656 223.9375 L 286.554688 247.445312 Z M 263.738281 195.359375 " clip-rule="nonzero"/></clipPath><clipPath id="d8d6f6ab79"><path d="M 263.738281 195.359375 L 317.402344 171.847656 L 340.222656 223.9375 L 286.554688 247.445312 Z M 263.738281 195.359375 " clip-rule="nonzero"/></clipPath><clipPath id="ff73e357ed"><path d="M 284 211 L 286 211 L 286 213 L 284 213 Z M 284 211 " clip-rule="nonzero"/></clipPath><clipPath id="fbd11cfef7"><path d="M 263.738281 195.359375 L 317.402344 171.847656 L 340.222656 223.9375 L 286.554688 247.445312 Z M 263.738281 195.359375 " clip-rule="nonzero"/></clipPath><clipPath id="181c8eb0a5"><path d="M 263.738281 195.359375 L 317.402344 171.847656 L 340.222656 223.9375 L 286.554688 247.445312 Z M 263.738281 195.359375 " clip-rule="nonzero"/></clipPath><clipPath id="825ba1b906"><path d="M 263.738281 195.359375 L 317.402344 171.847656 L 340.222656 223.9375 L 286.554688 247.445312 Z M 263.738281 195.359375 " clip-rule="nonzero"/></clipPath><clipPath id="1137f392d4"><path d="M 292 211 L 307 211 L 307 223 L 292 223 Z M 292 211 " clip-rule="nonzero"/></clipPath><clipPath id="fea6adc243"><path d="M 263.738281 195.359375 L 317.402344 171.847656 L 340.222656 223.9375 L 286.554688 247.445312 Z M 263.738281 195.359375 " clip-rule="nonzero"/></clipPath><clipPath id="29251e221d"><path d="M 263.738281 195.359375 L 317.402344 171.847656 L 340.222656 223.9375 L 286.554688 247.445312 Z M 263.738281 195.359375 " clip-rule="nonzero"/></clipPath><clipPath id="e3b289bd91"><path d="M 263.738281 195.359375 L 317.402344 171.847656 L 340.222656 223.9375 L 286.554688 247.445312 Z M 263.738281 195.359375 " clip-rule="nonzero"/></clipPath></defs><g clip-path="url(#88d139cc4c)"><path fill="#ffffff" d="M 0.445312 0 L 599.554688 0 L 599.554688 344.488281 L 0.445312 344.488281 Z M 0.445312 0 " fill-opacity="1" fill-rule="nonzero"/><path fill="#ffffff" d="M 0.445312 0 L 599.554688 0 L 599.554688 337 L 0.445312 337 Z M 0.445312 0 " fill-opacity="1" fill-rule="nonzero"/><path fill="#ced89e" d="M 0.445312 0 L 599.554688 0 L 599.554688 337 L 0.445312 337 Z M 0.445312 0 " fill-opacity="1" fill-rule="nonzero"/></g><g clip-path="url(#4b27db5ecc)"><g mask="url(#ddf528502d)"><g transform="matrix(1, 0, 0, 1, 180, 0)"><g clip-path="url(#f4dcefe75a)"><path fill="#e2e2e2" d="M 231.878906 294.910156 L 276.460938 294.910156 L 298.753906 256.359375 L 276.460938 217.808594 L 231.878906 217.808594 L 209.585938 256.359375 L 231.878906 294.910156 M 277.699219 297.054688 L 230.640625 297.054688 L 207.113281 256.359375 L 230.640625 215.667969 L 277.699219 215.667969 L 301.226562 256.359375 L 277.699219 297.054688 " fill-opacity="1" fill-rule="nonzero"/><g clip-path="url(#61ad964a51)"><path fill="#f6f6f6" d="M 346.121094 336.675781 L 299.066406 336.675781 L 276.15625 297.054688 L 277.699219 297.054688 L 278.164062 296.246094 L 300.304688 334.535156 L 344.882812 334.535156 L 367.179688 295.984375 L 344.882812 257.429688 L 300.605469 257.429688 L 301.226562 256.359375 L 300.605469 255.292969 L 346.121094 255.292969 L 369.648438 295.984375 L 346.121094 336.675781 M 276.460938 294.910156 L 276.15625 294.910156 L 298.601562 256.101562 L 298.753906 256.359375 L 276.460938 294.910156 " fill-opacity="1" fill-rule="nonzero"/></g><path fill="#e2e2e2" d="M 277.699219 297.054688 L 276.15625 297.054688 L 275.535156 295.984375 L 276.15625 294.910156 L 276.460938 294.910156 L 298.753906 256.359375 L 298.601562 256.101562 L 299.066406 255.292969 L 300.605469 255.292969 L 301.226562 256.359375 L 300.605469 257.429688 L 300.304688 257.429688 L 278.007812 295.984375 L 278.164062 296.246094 L 277.699219 297.054688 " fill-opacity="1" fill-rule="nonzero"/><path fill="#ebebeb" d="M 278.316406 216.738281 L 277.699219 215.667969 L 276.460938 215.667969 L 298.601562 177.378906 L 299.066406 178.1875 L 300.605469 178.1875 L 278.316406 216.738281 M 231.878906 215.667969 L 231.648438 215.667969 L 209.359375 177.117188 L 231.648438 138.5625 L 231.878906 138.5625 L 209.585938 177.117188 L 231.878906 215.667969 M 300.605469 176.046875 L 300.304688 176.046875 L 278.164062 137.753906 L 278.316406 137.496094 L 300.605469 176.046875 " fill-opacity="1" fill-rule="nonzero"/><path fill="#e2e2e2" d="M 277.699219 217.808594 L 231.648438 217.808594 L 232.269531 216.738281 L 231.648438 215.667969 L 277.699219 215.667969 L 278.316406 216.738281 L 277.699219 217.808594 " fill-opacity="1" fill-rule="nonzero"/><path fill="#f1f1f1" d="M 138.773438 138.5625 L 93.34375 138.5625 L 69.816406 97.871094 L 92.726562 58.25 L 93.34375 59.320312 L 94.582031 59.320312 L 72.289062 97.871094 L 94.582031 136.425781 L 138.773438 136.425781 L 138.15625 137.496094 L 138.773438 138.5625 M 140.824219 137.832031 L 140.628906 137.496094 L 162.921875 98.945312 L 163.308594 98.945312 L 140.824219 137.832031 M 161.261719 97.535156 L 139.164062 59.320312 L 140.402344 59.320312 L 141.019531 58.25 L 163.308594 96.800781 L 161.683594 96.800781 L 161.261719 97.535156 " fill-opacity="1" fill-rule="nonzero"/><path fill="#e2e2e2" d="M 231.878906 136.425781 L 276.460938 136.425781 L 298.753906 97.871094 L 276.460938 59.320312 L 231.878906 59.320312 L 209.585938 97.871094 L 231.878906 136.425781 M 277.699219 138.5625 L 230.640625 138.5625 L 207.113281 97.871094 L 230.640625 57.179688 L 277.699219 57.179688 L 301.226562 97.871094 L 277.699219 138.5625 " fill-opacity="1" fill-rule="nonzero"/><path fill="#ebebeb" d="M 344.582031 178.1875 L 300.605469 178.1875 L 301.226562 177.117188 L 300.605469 176.046875 L 344.582031 176.046875 L 343.964844 177.117188 L 344.582031 178.1875 M 346.589844 177.378906 L 346.4375 177.117188 L 368.730469 138.5625 L 369.035156 138.5625 L 346.589844 177.378906 M 298.601562 177.378906 L 276.15625 138.5625 L 276.460938 138.5625 L 298.753906 177.117188 L 298.601562 177.378906 M 367.027344 137.234375 L 344.882812 98.945312 L 346.121094 98.945312 L 346.738281 97.871094 L 369.035156 136.425781 L 367.492188 136.425781 L 367.027344 137.234375 " fill-opacity="1" fill-rule="nonzero"/><path fill="#e5e5e5" d="M 300.605469 178.1875 L 299.066406 178.1875 L 298.601562 177.378906 L 298.753906 177.117188 L 276.460938 138.5625 L 277.699219 138.5625 L 278.164062 137.753906 L 300.304688 176.046875 L 300.605469 176.046875 L 301.226562 177.117188 L 300.605469 178.1875 " fill-opacity="1" fill-rule="nonzero"/><path fill="#ebebeb" d="M 276.460938 136.425781 L 276.15625 136.425781 L 298.445312 97.871094 L 298.601562 98.136719 L 276.460938 136.425781 " fill-opacity="1" fill-rule="nonzero"/><path fill="#e2e2e2" d="M 277.699219 138.5625 L 276.15625 138.5625 L 275.535156 137.496094 L 276.15625 136.425781 L 276.460938 136.425781 L 298.601562 98.136719 L 299.066406 98.945312 L 300.304688 98.945312 L 278.007812 137.496094 L 278.164062 137.753906 L 277.699219 138.5625 " fill-opacity="1" fill-rule="nonzero"/><path fill="#f6f6f6" d="M 346.738281 97.871094 L 346.121094 96.800781 L 344.882812 96.800781 L 367.179688 58.25 L 344.882812 19.695312 L 300.304688 19.695312 L 278.164062 57.992188 L 277.699219 57.179688 L 276.15625 57.179688 L 299.066406 17.558594 L 346.121094 17.558594 L 369.648438 58.25 L 346.738281 97.871094 M 298.445312 97.871094 L 276.15625 59.320312 L 276.460938 59.320312 L 298.601562 97.609375 L 298.445312 97.871094 " fill-opacity="1" fill-rule="nonzero"/><path fill="#e2e2e2" d="M 298.601562 97.609375 L 276.460938 59.320312 L 276.15625 59.320312 L 275.535156 58.25 L 276.15625 57.179688 L 277.699219 57.179688 L 278.164062 57.992188 L 278.007812 58.25 L 300.304688 96.800781 L 299.066406 96.800781 L 298.601562 97.609375 " fill-opacity="1" fill-rule="nonzero"/><path fill="#e8e8e8" d="M 346.121094 98.945312 L 300.605469 98.945312 L 301.226562 97.871094 L 300.605469 96.800781 L 346.121094 96.800781 L 346.738281 97.871094 L 346.121094 98.945312 M 298.601562 98.136719 L 298.445312 97.871094 L 298.601562 97.609375 L 298.753906 97.871094 L 298.601562 98.136719 " fill-opacity="1" fill-rule="nonzero"/><path fill="#e2e2e2" d="M 300.605469 98.945312 L 299.066406 98.945312 L 298.601562 98.136719 L 298.753906 97.871094 L 298.601562 97.609375 L 299.066406 96.800781 L 300.605469 96.800781 L 301.226562 97.871094 L 300.605469 98.945312 " fill-opacity="1" fill-rule="nonzero"/><g clip-path="url(#5ff33722f3)"><path fill="#fcfcfc" d="M 414.550781 217.808594 L 367.492188 217.808594 L 344.582031 178.1875 L 346.121094 178.1875 L 346.589844 177.378906 L 368.730469 215.667969 L 413.3125 215.667969 L 435.605469 177.117188 L 413.3125 138.5625 L 369.035156 138.5625 L 369.648438 137.496094 L 369.035156 136.425781 L 414.550781 136.425781 L 438.078125 177.117188 L 414.550781 217.808594 M 344.882812 176.046875 L 344.582031 176.046875 L 367.027344 137.234375 L 367.179688 137.496094 L 344.882812 176.046875 " fill-opacity="1" fill-rule="nonzero"/></g><path fill="#eaeaea" d="M 346.121094 178.1875 L 344.582031 178.1875 L 343.964844 177.117188 L 344.582031 176.046875 L 344.882812 176.046875 L 367.179688 137.496094 L 367.027344 137.234375 L 367.492188 136.425781 L 369.035156 136.425781 L 369.648438 137.496094 L 369.035156 138.5625 L 368.730469 138.5625 L 346.4375 177.117188 L 346.589844 177.378906 L 346.121094 178.1875 " fill-opacity="1" fill-rule="nonzero"/><g clip-path="url(#4ced5576d3)"><path fill="#fcfcfc" d="M 141.019531 58.25 L 140.402344 57.179688 L 139.164062 57.179688 L 161.457031 18.628906 L 139.164062 -19.929688 L 94.582031 -19.929688 L 72.289062 18.628906 L 94.582031 57.179688 L 93.34375 57.179688 L 92.726562 58.25 L 69.816406 18.628906 L 93.34375 -22.0625 L 140.402344 -22.0625 L 163.929688 18.628906 L 141.019531 58.25 " fill-opacity="1" fill-rule="nonzero"/></g><path fill="#efefef" d="M 140.402344 59.320312 L 93.34375 59.320312 L 92.726562 58.25 L 93.34375 57.179688 L 140.402344 57.179688 L 141.019531 58.25 L 140.402344 59.320312 " fill-opacity="1" fill-rule="nonzero"/><path fill="#f1f1f1" d="M 207.730469 257.429688 L 161.683594 257.429688 L 161.222656 256.628906 L 162.457031 254.488281 L 162.921875 255.292969 L 207.503906 255.292969 L 229.796875 216.738281 L 207.503906 178.1875 L 207.730469 178.1875 L 230.023438 216.738281 L 207.113281 256.359375 L 207.730469 257.429688 M 159.984375 254.488281 L 138.15625 216.738281 L 138.328125 216.441406 L 160.152344 254.191406 L 159.984375 254.488281 " fill-opacity="1" fill-rule="nonzero"/><path fill="#e2e2e2" d="M 208.738281 257.429688 L 207.730469 257.429688 L 207.113281 256.359375 L 230.023438 216.738281 L 230.640625 217.808594 L 231.648438 217.808594 L 208.738281 257.429688 " fill-opacity="1" fill-rule="nonzero"/><path fill="#e6e6e6" d="M 230.023438 216.738281 L 207.730469 178.1875 L 208.738281 178.1875 L 209.359375 177.117188 L 231.648438 215.667969 L 230.640625 215.667969 L 230.023438 216.738281 " fill-opacity="1" fill-rule="nonzero"/><path fill="#e2e2e2" d="M 231.648438 217.808594 L 230.640625 217.808594 L 230.023438 216.738281 L 230.640625 215.667969 L 231.648438 215.667969 L 232.269531 216.738281 L 231.648438 217.808594 " fill-opacity="1" fill-rule="nonzero"/><path fill="#f1f1f1" d="M 140.800781 216.441406 L 139.566406 214.308594 L 161.066406 177.117188 L 161.683594 178.1875 L 162.921875 178.1875 L 140.800781 216.441406 " fill-opacity="1" fill-rule="nonzero"/><path fill="#f1f1f1" d="M 139.097656 294.882812 L 92.042969 294.882812 L 68.515625 254.191406 L 92.042969 213.507812 L 139.097656 213.507812 L 139.566406 214.308594 L 138.328125 216.441406 L 137.859375 215.640625 L 93.285156 215.640625 L 70.984375 254.191406 L 93.285156 292.75 L 137.859375 292.75 L 159.984375 254.488281 L 161.222656 256.628906 L 139.097656 294.882812 M 162.457031 254.488281 L 140.628906 216.738281 L 140.800781 216.441406 L 162.625 254.191406 L 162.457031 254.488281 " fill-opacity="1" fill-rule="nonzero"/><path fill="#e9e9e9" d="M 161.222656 256.628906 L 159.984375 254.488281 L 160.152344 254.191406 L 138.328125 216.441406 L 139.566406 214.308594 L 140.800781 216.441406 L 140.628906 216.738281 L 162.457031 254.488281 L 161.222656 256.628906 " fill-opacity="1" fill-rule="nonzero"/><path fill="#e2e2e2" d="M 25.800781 176.046875 L 70.386719 176.046875 L 92.675781 137.496094 L 70.386719 98.945312 L 25.800781 98.945312 L 3.511719 137.496094 Z M 71.621094 178.1875 L 24.566406 178.1875 L 1.039062 137.496094 L 24.566406 96.800781 L 71.621094 96.800781 L 95.148438 137.496094 L 71.621094 178.1875 " fill-opacity="1" fill-rule="nonzero"/><path fill="#e9e9e9" d="M 161.066406 177.117188 L 138.773438 138.5625 L 140.402344 138.5625 L 140.824219 137.832031 L 162.921875 176.046875 L 161.683594 176.046875 L 161.066406 177.117188 M 207.730469 176.046875 L 207.503906 176.046875 L 229.796875 137.496094 L 207.503906 98.945312 L 163.308594 98.945312 L 163.929688 97.871094 L 163.308594 96.800781 L 207.730469 96.800781 L 207.113281 97.871094 L 230.023438 137.496094 L 207.730469 176.046875 M 139.164062 136.425781 L 138.773438 136.425781 L 161.261719 97.535156 L 161.457031 97.871094 L 139.164062 136.425781 " fill-opacity="1" fill-rule="nonzero"/><path fill="#e4e4e4" d="M 209.359375 177.117188 L 208.738281 176.046875 L 207.730469 176.046875 L 230.023438 137.496094 L 230.640625 138.5625 L 231.648438 138.5625 L 209.359375 177.117188 " fill-opacity="1" fill-rule="nonzero"/><path fill="#e6e6e6" d="M 140.402344 138.5625 L 138.773438 138.5625 L 138.15625 137.496094 L 138.773438 136.425781 L 139.164062 136.425781 L 161.457031 97.871094 L 161.261719 97.535156 L 161.683594 96.800781 L 163.308594 96.800781 L 163.929688 97.871094 L 163.308594 98.945312 L 162.921875 98.945312 L 140.628906 137.496094 L 140.824219 137.832031 L 140.402344 138.5625 " fill-opacity="1" fill-rule="nonzero"/><path fill="#e2e2e2" d="M 231.648438 138.5625 L 230.640625 138.5625 L 230.023438 137.496094 L 207.113281 97.871094 L 207.730469 96.800781 L 208.738281 96.800781 L 232.269531 137.496094 L 231.648438 138.5625 " fill-opacity="1" fill-rule="nonzero"/><path fill="#e6e6e6" d="M 207.730469 178.1875 L 161.683594 178.1875 L 161.066406 177.117188 L 161.683594 176.046875 L 207.730469 176.046875 L 207.113281 177.117188 L 207.730469 178.1875 " fill-opacity="1" fill-rule="nonzero"/><path fill="#e3e3e3" d="M 208.738281 178.1875 L 207.730469 178.1875 L 207.113281 177.117188 L 207.730469 176.046875 L 208.738281 176.046875 L 209.359375 177.117188 L 208.738281 178.1875 " fill-opacity="1" fill-rule="nonzero"/></g></g></g></g><path fill="#a74e37" d="M 388.53125 249.875 C 390.347656 210.359375 385.414062 158.710938 381.824219 144.042969 L 218.230469 144.042969 C 214.640625 158.710938 209.707031 210.359375 211.523438 249.875 C 208.621094 251.726562 204.640625 257.875 206.714844 261.101562 C 208.734375 264.246094 213.222656 262.386719 216.136719 262.300781 C 235.097656 261.71875 254.269531 270.085938 300.027344 270.085938 C 345.785156 270.085938 364.957031 261.71875 383.917969 262.300781 C 386.832031 262.386719 391.320312 264.246094 393.339844 261.101562 C 395.410156 257.875 391.433594 251.726562 388.53125 249.875 " fill-opacity="1" fill-rule="nonzero"/><path fill="#faf3d5" d="M 341.777344 209.910156 C 341.777344 232.992188 323.082031 251.703125 300.023438 251.703125 C 276.964844 251.703125 258.273438 232.992188 258.273438 209.910156 C 258.273438 186.828125 276.964844 168.113281 300.023438 168.113281 C 323.082031 168.113281 341.777344 186.828125 341.777344 209.910156 " fill-opacity="1" fill-rule="nonzero"/><path fill="#714440" d="M 324.546875 243.734375 C 317.664062 248.75 309.1875 251.703125 300.023438 251.703125 C 292.121094 251.703125 284.726562 249.503906 278.425781 245.6875 C 278.425781 245.6875 284.320312 241.710938 287.003906 239.273438 C 289.6875 236.835938 292.269531 235.117188 294.84375 235.179688 C 297.417969 235.242188 297.113281 235.824219 299.476562 234.210938 C 302.566406 232.101562 307.476562 233 316.402344 239.527344 C 318.136719 240.796875 324.546875 243.734375 324.546875 243.734375 " fill-opacity="1" fill-rule="nonzero"/><path fill="#99ca21" d="M 295.8125 214.753906 C 295.847656 215.386719 295.507812 215.980469 294.945312 216.273438 C 292.984375 217.289062 287.976562 219.210938 282.5 216.070312 C 277.738281 213.335938 274.910156 207.625 273.710938 204.683594 C 273.316406 203.714844 273.921875 202.632812 274.953125 202.464844 C 278.121094 201.945312 284.578125 201.363281 289.351562 204.105469 C 294.828125 207.25 295.699219 212.550781 295.8125 214.753906 " fill-opacity="1" fill-rule="nonzero"/><path fill="#99ca21" d="M 304.242188 214.753906 C 304.207031 215.386719 304.546875 215.980469 305.109375 216.273438 C 307.070312 217.289062 312.078125 219.210938 317.554688 216.070312 C 322.3125 213.335938 325.144531 207.625 326.34375 204.683594 C 326.738281 203.714844 326.132812 202.632812 325.101562 202.464844 C 321.933594 201.945312 315.476562 201.363281 310.703125 204.105469 C 305.226562 207.25 304.355469 212.550781 304.242188 214.753906 " fill-opacity="1" fill-rule="nonzero"/><path fill="#99ca21" d="M 299.074219 200.148438 C 299.605469 200.492188 300.289062 200.496094 300.820312 200.152344 C 302.679688 198.960938 306.851562 195.585938 306.878906 189.269531 C 306.898438 183.777344 303.375 178.460938 301.433594 175.949219 C 300.792969 175.121094 299.558594 175.105469 298.894531 175.914062 C 296.859375 178.402344 293.125 183.703125 293.101562 189.214844 C 293.078125 195.535156 297.222656 198.941406 299.074219 200.148438 " fill-opacity="1" fill-rule="nonzero"/><g clip-path="url(#fdbd900d2a)"><path fill="#4a2a2d" d="M 391.800781 260.113281 C 390.988281 261.378906 389.214844 261.199219 386.597656 260.78125 C 385.679688 260.636719 384.8125 260.496094 383.972656 260.472656 C 375.980469 260.226562 368.140625 261.503906 358.21875 263.125 C 344.207031 265.410156 326.773438 268.253906 300.027344 268.253906 C 273.28125 268.253906 255.847656 265.410156 241.835938 263.125 C 232.734375 261.640625 225.386719 260.441406 218.066406 260.441406 C 217.40625 260.441406 216.742188 260.453125 216.082031 260.472656 C 215.242188 260.496094 214.375 260.636719 213.453125 260.78125 C 210.839844 261.199219 209.066406 261.378906 208.253906 260.113281 C 207.859375 259.5 207.945312 258.59375 208.089844 257.941406 C 208.644531 255.40625 210.863281 252.46875 212.507812 251.417969 C 212.5625 251.382812 212.617188 251.339844 212.667969 251.296875 C 212.675781 251.292969 212.683594 251.289062 212.691406 251.285156 C 212.710938 251.265625 214.816406 249.527344 216.867188 248.636719 C 217.792969 248.230469 218.214844 247.152344 217.8125 246.226562 C 217.410156 245.300781 216.332031 244.875 215.40625 245.28125 C 214.644531 245.613281 213.894531 246.027344 213.210938 246.445312 C 211.835938 208.105469 216.457031 160.859375 219.6875 145.875 L 380.367188 145.875 C 383.597656 160.859375 388.21875 208.105469 386.84375 246.445312 C 386.160156 246.027344 385.410156 245.613281 384.648438 245.28125 C 383.722656 244.875 382.644531 245.300781 382.242188 246.226562 C 381.839844 247.152344 382.261719 248.230469 383.1875 248.636719 C 385.238281 249.527344 387.34375 251.265625 387.363281 251.28125 C 387.367188 251.289062 387.375 251.292969 387.382812 251.296875 C 387.4375 251.339844 387.488281 251.382812 387.546875 251.417969 C 389.191406 252.46875 391.410156 255.40625 391.964844 257.941406 C 392.109375 258.59375 392.195312 259.5 391.800781 260.113281 Z M 395.535156 257.15625 C 394.839844 253.980469 392.53125 250.742188 390.402344 248.984375 C 392.167969 208.035156 387.027344 157.625 383.597656 143.609375 C 383.398438 142.789062 382.664062 142.214844 381.824219 142.214844 L 218.230469 142.214844 C 217.390625 142.214844 216.65625 142.789062 216.457031 143.609375 C 213.027344 157.625 207.886719 208.035156 209.652344 248.984375 C 207.523438 250.742188 205.214844 253.980469 204.519531 257.15625 C 204.101562 259.0625 204.328125 260.769531 205.179688 262.089844 C 207.34375 265.464844 211.207031 264.84375 214.03125 264.394531 C 214.832031 264.269531 215.585938 264.148438 216.191406 264.128906 C 223.832031 263.894531 231.519531 265.148438 241.25 266.738281 C 255.390625 269.042969 272.988281 271.914062 300.027344 271.914062 C 327.066406 271.914062 344.664062 269.042969 358.804688 266.738281 C 368.535156 265.148438 376.222656 263.894531 383.863281 264.128906 C 384.46875 264.148438 385.222656 264.269531 386.023438 264.394531 C 388.847656 264.84375 392.710938 265.460938 394.875 262.089844 C 395.722656 260.769531 395.953125 259.0625 395.535156 257.15625 " fill-opacity="1" fill-rule="nonzero"/></g><path fill="#4a2a2d" d="M 285.636719 211.640625 C 288.125 212.496094 290.253906 213.886719 292.074219 215.464844 C 289.9375 216.105469 286.769531 216.410156 283.40625 214.480469 C 279.160156 212.042969 276.523438 206.671875 275.5 204.230469 C 278.15625 203.816406 284.195312 203.253906 288.445312 205.695312 C 291.378906 207.378906 292.769531 209.796875 293.425781 211.828125 C 291.535156 210.351562 289.355469 209.050781 286.828125 208.179688 C 285.875 207.851562 284.832031 208.359375 284.503906 209.3125 C 284.175781 210.269531 284.683594 211.308594 285.636719 211.640625 Z M 315.550781 209.3125 C 315.222656 208.359375 314.183594 207.851562 313.226562 208.179688 C 310.695312 209.050781 308.519531 210.351562 306.628906 211.828125 C 307.285156 209.796875 308.675781 207.378906 311.609375 205.695312 C 315.859375 203.253906 321.898438 203.816406 324.554688 204.230469 C 323.53125 206.671875 320.894531 212.042969 316.644531 214.480469 C 313.285156 216.410156 310.117188 216.105469 307.980469 215.464844 C 309.800781 213.886719 311.929688 212.496094 314.417969 211.640625 C 315.371094 211.308594 315.878906 210.269531 315.550781 209.3125 Z M 324.328125 241.617188 C 322.195312 240.613281 318.582031 238.859375 317.480469 238.050781 C 310.707031 233.097656 305.703125 230.945312 301.851562 231.417969 L 301.851562 222.5625 C 302.738281 221.308594 303.824219 219.8125 305.140625 218.3125 C 306.550781 218.929688 308.703125 219.621094 311.265625 219.621094 C 313.441406 219.621094 315.910156 219.125 318.460938 217.65625 C 323.648438 214.679688 326.6875 208.683594 328.035156 205.371094 C 328.433594 204.394531 328.367188 203.304688 327.851562 202.382812 C 327.335938 201.457031 326.441406 200.832031 325.398438 200.660156 C 321.808594 200.070312 315.003906 199.527344 309.792969 202.519531 C 303.519531 206.121094 302.542969 212.207031 302.414062 214.65625 C 302.394531 215.023438 302.441406 215.382812 302.53125 215.726562 C 302.300781 215.992188 302.070312 216.257812 301.851562 216.519531 L 301.851562 201.664062 C 303.941406 200.316406 308.679688 196.460938 308.703125 189.277344 C 308.730469 183.292969 305.0625 177.65625 302.878906 174.832031 C 302.230469 173.992188 301.253906 173.507812 300.199219 173.492188 C 299.152344 173.484375 298.152344 173.9375 297.480469 174.757812 C 295.175781 177.570312 291.300781 183.191406 291.273438 189.207031 C 291.246094 196.445312 296.023438 200.34375 298.078125 201.679688 C 298.117188 201.703125 298.15625 201.722656 298.195312 201.746094 L 298.195312 216.515625 C 297.976562 216.253906 297.753906 215.992188 297.523438 215.726562 C 297.613281 215.382812 297.660156 215.023438 297.640625 214.65625 C 297.511719 212.207031 296.535156 206.121094 290.261719 202.519531 C 285.046875 199.527344 278.246094 200.070312 274.65625 200.660156 C 273.613281 200.832031 272.71875 201.457031 272.203125 202.382812 C 271.6875 203.304688 271.621094 204.394531 272.019531 205.371094 C 273.367188 208.683594 276.402344 214.679688 281.589844 217.65625 C 284.144531 219.125 286.613281 219.621094 288.789062 219.621094 C 291.347656 219.621094 293.503906 218.929688 294.914062 218.3125 C 296.226562 219.8125 297.3125 221.300781 298.195312 222.554688 L 298.195312 232.867188 C 297.21875 233.53125 297.167969 233.527344 296.503906 233.460938 C 296.125 233.421875 295.601562 233.367188 294.890625 233.351562 C 291.367188 233.257812 288.167969 235.746094 285.777344 237.917969 C 283.859375 239.65625 280.148438 242.28125 278.382812 243.5 C 266.910156 236.09375 260.097656 223.625 260.097656 209.910156 C 260.097656 187.871094 278.007812 169.941406 300.023438 169.941406 C 322.039062 169.941406 339.949219 187.871094 339.949219 209.910156 C 339.949219 222.300781 334.128906 234.074219 324.328125 241.617188 Z M 300.023438 188.035156 C 299.015625 188.035156 298.195312 188.855469 298.195312 189.863281 L 298.195312 197.089844 C 296.625 195.527344 294.914062 192.972656 294.929688 189.222656 C 294.949219 184.320312 298.460938 179.371094 300.144531 177.273438 C 301.746094 179.386719 305.070312 184.355469 305.050781 189.261719 C 305.035156 192.90625 303.398438 195.417969 301.851562 196.976562 L 301.851562 189.863281 C 301.851562 188.855469 301.035156 188.035156 300.023438 188.035156 Z M 300.023438 249.875 C 293.691406 249.875 287.472656 248.375 281.878906 245.519531 C 283.863281 244.117188 286.589844 242.121094 288.230469 240.628906 C 290.996094 238.117188 293.089844 236.972656 294.800781 237.007812 C 295.371094 237.023438 295.773438 237.0625 296.128906 237.101562 C 297.761719 237.269531 298.449219 237.125 300.503906 235.722656 C 303.144531 233.917969 307.992188 235.644531 315.324219 241.003906 C 316.390625 241.78125 318.847656 243.039062 320.851562 244.011719 C 314.601562 247.855469 307.460938 249.875 300.023438 249.875 Z M 300.023438 166.285156 C 275.992188 166.285156 256.441406 185.855469 256.441406 209.910156 C 256.441406 225.304688 264.304688 239.265625 277.480469 247.253906 C 284.265625 251.363281 292.058594 253.535156 300.023438 253.535156 C 309.296875 253.535156 318.148438 250.65625 325.625 245.214844 C 336.882812 237.023438 343.605469 223.824219 343.605469 209.910156 C 343.605469 185.855469 324.054688 166.285156 300.023438 166.285156 " fill-opacity="1" fill-rule="nonzero"/><path fill="#714440" d="M 358.59375 90.796875 C 356.136719 90.035156 353.890625 88.699219 352.078125 86.871094 C 344.890625 79.605469 337.832031 74.398438 319.316406 74.808594 C 316 74.882812 308.851562 69.441406 300.027344 68.546875 C 271.597656 66.824219 260.398438 83.304688 256.511719 83.863281 C 252.625 84.421875 243.308594 86.179688 238.09375 89.792969 C 235.011719 91.929688 232.289062 94.601562 227.347656 101.507812 C 272.769531 133.171875 321.917969 131.441406 374.132812 102.230469 C 372.78125 98.890625 369.246094 94.089844 358.59375 90.796875 " fill-opacity="1" fill-rule="nonzero"/><path fill="#cb6c41" d="M 383.605469 121.753906 C 385.394531 117.90625 387.070312 116.011719 386.234375 110.121094 C 385.621094 105.789062 379.804688 100.421875 374.132812 102.230469 C 338.609375 113.574219 272.613281 115.199219 227.347656 101.507812 C 223.632812 100.382812 215.917969 101.304688 215.015625 110.050781 C 214.609375 113.980469 216.140625 117.628906 218.132812 119.976562 C 219.046875 121.0625 219.460938 122.511719 218.980469 123.847656 C 217.808594 127.136719 212.710938 127.9375 212.710938 135.121094 C 212.710938 143.359375 218.78125 144.304688 222.578125 145.097656 C 282.832031 157.699219 340.089844 155.695312 381.824219 144.042969 C 385.011719 143.152344 386.191406 140.898438 386.160156 137.585938 C 386.089844 130.371094 379.789062 129.957031 383.605469 121.753906 " fill-opacity="1" fill-rule="nonzero"/><path fill="#4a2a2d" d="M 381.332031 142.28125 C 358.46875 148.664062 332.09375 151.863281 304.210938 151.863281 C 277.898438 151.863281 250.242188 149.011719 222.953125 143.308594 L 222.527344 143.21875 C 218.785156 142.445312 214.539062 141.574219 214.539062 135.121094 C 214.539062 131.285156 216.167969 129.761719 217.894531 128.148438 C 218.949219 127.160156 220.035156 126.132812 220.625 124.65625 C 232.410156 131.925781 262.699219 134.953125 266.554688 135.316406 C 266.613281 135.320312 266.671875 135.324219 266.726562 135.324219 C 267.660156 135.324219 268.457031 134.609375 268.546875 133.664062 C 268.640625 132.65625 267.902344 131.765625 266.894531 131.671875 C 266.789062 131.664062 256.304688 130.667969 245.210938 128.570312 C 226.210938 124.976562 221.203125 121.21875 219.910156 119.296875 C 219.910156 119.296875 219.90625 119.296875 219.90625 119.296875 C 219.789062 119.125 219.664062 118.957031 219.527344 118.792969 C 217.527344 116.4375 216.519531 113.238281 216.832031 110.238281 C 217.117188 107.472656 218.191406 105.449219 220.019531 104.230469 C 221.398438 103.3125 223.078125 102.953125 224.570312 102.953125 C 225.40625 102.953125 226.183594 103.066406 226.820312 103.257812 C 249.648438 110.164062 276.738281 113.109375 302.523438 113.109375 C 330.515625 113.109375 356.964844 109.632812 374.6875 103.972656 C 377.097656 103.203125 379.292969 104.238281 380.382812 104.925781 C 382.496094 106.253906 384.15625 108.496094 384.425781 110.378906 C 385.046875 114.757812 384.207031 116.429688 382.816406 119.203125 C 382.535156 119.761719 382.25 120.339844 381.949219 120.980469 C 381.941406 120.996094 381.9375 121.011719 381.925781 121.027344 C 378.675781 128.566406 349.789062 130.847656 332.335938 130.515625 C 331.328125 130.5 330.492188 131.300781 330.472656 132.308594 C 330.453125 133.320312 331.257812 134.15625 332.265625 134.175781 C 332.296875 134.175781 333.101562 134.1875 334.496094 134.1875 C 338.480469 134.1875 347.253906 134.070312 356.277344 133.175781 C 367.777344 132.03125 375.828125 130.082031 380.601562 127.261719 C 380.804688 129.230469 381.671875 130.695312 382.484375 132.0625 C 383.421875 133.644531 384.308594 135.136719 384.332031 137.605469 C 384.363281 140.78125 383.15625 141.773438 381.332031 142.28125 Z M 239.136719 91.296875 C 243.277344 88.425781 250.960938 86.507812 256.769531 85.671875 C 258.199219 85.46875 259.679688 84.3125 261.921875 82.554688 C 267.921875 77.859375 279.089844 69.121094 299.882812 70.371094 C 304.71875 70.871094 309.078125 72.839844 312.582031 74.425781 C 315.363281 75.683594 317.558594 76.683594 319.359375 76.636719 C 337.496094 76.230469 344.078125 81.382812 350.78125 88.15625 C 352.777344 90.171875 355.289062 91.6875 358.054688 92.542969 C 364.722656 94.609375 369.230469 97.488281 371.511719 101.121094 C 338.042969 111.113281 276.132812 113.582031 230.359375 100.484375 C 234.308594 95.179688 236.636719 93.027344 239.136719 91.296875 Z M 385.261719 122.523438 C 385.539062 121.929688 385.816406 121.378906 386.082031 120.84375 C 387.554688 117.910156 388.828125 115.375 388.042969 109.867188 C 387.621094 106.898438 385.378906 103.742188 382.328125 101.828125 C 380.027344 100.382812 377.535156 99.800781 375.15625 100.132812 C 372.570312 95.269531 367.199219 91.542969 359.132812 89.046875 C 356.941406 88.371094 354.949219 87.171875 353.378906 85.582031 C 346.300781 78.429688 338.855469 72.550781 319.277344 72.980469 C 319.265625 72.980469 319.253906 72.980469 319.242188 72.980469 C 318.261719 72.980469 316.234375 72.0625 314.089844 71.09375 C 310.53125 69.484375 305.65625 67.28125 300.210938 66.730469 C 300.1875 66.726562 300.164062 66.722656 300.140625 66.722656 C 277.941406 65.375 266.054688 74.675781 259.667969 79.675781 C 258.308594 80.738281 256.769531 81.945312 256.253906 82.054688 C 253.234375 82.488281 242.925781 84.21875 237.054688 88.289062 C 234.066406 90.359375 231.347656 92.898438 226.574219 99.457031 C 224.128906 99.050781 220.820312 99.304688 217.996094 101.183594 C 216.082031 102.457031 213.699219 105 213.195312 109.863281 C 212.785156 113.832031 214.109375 118.058594 216.738281 121.160156 C 217.292969 121.816406 217.488281 122.589844 217.261719 123.230469 C 216.992188 123.984375 216.289062 124.640625 215.398438 125.476562 C 213.492188 127.257812 210.886719 129.699219 210.886719 135.121094 C 210.886719 144.554688 217.980469 146.015625 221.789062 146.800781 L 222.207031 146.886719 C 249.734375 152.644531 277.628906 155.515625 304.199219 155.515625 C 332.421875 155.515625 359.144531 152.273438 382.316406 145.804688 C 386.121094 144.742188 388.027344 141.972656 387.988281 137.570312 C 387.953125 134.113281 386.664062 131.941406 385.625 130.195312 C 384.296875 127.960938 383.421875 126.484375 385.261719 122.523438 " fill-opacity="1" fill-rule="nonzero"/><path fill="#4a2a2d" d="M 243.085938 95.683594 C 242.625 94.320312 242.90625 93.324219 244.273438 92.863281 C 245.636719 92.402344 247.136719 92.917969 247.597656 94.28125 C 248.058594 95.648438 247.757812 96.859375 246.394531 97.320312 C 245.027344 97.785156 243.546875 97.050781 243.085938 95.683594 " fill-opacity="1" fill-rule="nonzero"/><path fill="#4a2a2d" d="M 265.792969 87.273438 C 265.792969 88.625 265.316406 89.308594 263.96875 89.308594 C 262.617188 89.308594 261.28125 88.847656 261.28125 87.5 C 261.28125 86.148438 262.375 85.054688 263.722656 85.054688 C 265.074219 85.054688 265.792969 85.921875 265.792969 87.273438 " fill-opacity="1" fill-rule="nonzero"/><path fill="#4a2a2d" d="M 259.234375 94.011719 C 259.234375 95.460938 258.433594 95.855469 257.691406 95.96875 C 256.578125 96.136719 255.164062 95.460938 255.164062 94.011719 C 255.164062 92.5625 255.886719 92.058594 257.011719 92.058594 C 258.136719 92.058594 259.234375 92.5625 259.234375 94.011719 " fill-opacity="1" fill-rule="nonzero"/><path fill="#4a2a2d" d="M 268.371094 101.109375 C 268.371094 102.558594 267.570312 102.953125 266.828125 103.066406 C 265.714844 103.234375 264.300781 102.558594 264.300781 101.109375 C 264.300781 99.65625 265.023438 99.15625 266.148438 99.15625 C 267.273438 99.15625 268.371094 99.65625 268.371094 101.109375 " fill-opacity="1" fill-rule="nonzero"/><path fill="#4a2a2d" d="M 254.351562 101.109375 C 254.351562 102.558594 253.546875 102.953125 252.804688 103.066406 C 251.691406 103.234375 250.277344 102.558594 250.277344 101.109375 C 250.277344 99.65625 251.003906 99.15625 252.128906 99.15625 C 253.25 99.15625 254.351562 99.65625 254.351562 101.109375 " fill-opacity="1" fill-rule="nonzero"/><g clip-path="url(#0f83c25b6b)"><path fill="#fdf8e5" d="M 299.730469 169.058594 C 277.367188 169.058594 259.234375 187.1875 259.234375 209.554688 C 259.234375 231.917969 277.367188 250.046875 299.730469 250.046875 C 322.097656 250.046875 340.226562 231.917969 340.226562 209.554688 C 340.226562 187.1875 322.097656 169.058594 299.730469 169.058594 " fill-opacity="1" fill-rule="nonzero"/></g><g clip-path="url(#7c1f2d7d0d)"><g clip-path="url(#2a65cf123c)"><g clip-path="url(#e727d825d2)"><g clip-path="url(#6351ee39ee)"><path fill="#4d3926" d="M 288.824219 233.964844 C 288.875 233.917969 288.855469 233.867188 288.847656 233.820312 C 288.703125 232.929688 288.460938 232.070312 288.15625 231.222656 C 287.898438 230.507812 287.601562 229.808594 287.253906 229.132812 C 287.007812 228.660156 286.753906 228.191406 286.480469 227.734375 C 286.167969 227.21875 285.84375 226.714844 285.519531 226.207031 C 284.886719 225.21875 284.214844 224.257812 283.523438 223.308594 C 282.660156 222.128906 281.636719 221.117188 280.40625 220.3125 C 279.933594 220.003906 279.441406 219.738281 278.910156 219.546875 C 278.773438 219.496094 278.625 219.46875 278.484375 219.425781 C 278.382812 219.390625 278.316406 219.433594 278.261719 219.515625 C 278.191406 219.625 278.109375 219.722656 278.046875 219.832031 C 277.867188 220.140625 277.691406 220.449219 277.523438 220.761719 C 277.304688 221.160156 277.171875 221.597656 277.0625 222.035156 C 277.035156 222.136719 277.039062 222.226562 277.089844 222.320312 C 277.222656 222.585938 277.355469 222.847656 277.488281 223.113281 C 278.015625 224.140625 278.683594 225.0625 279.515625 225.859375 C 280.855469 227.144531 282.199219 228.417969 283.609375 229.617188 C 284.226562 230.144531 284.839844 230.671875 285.445312 231.203125 C 286.46875 232.101562 287.5 232.988281 288.589844 233.804688 C 288.664062 233.863281 288.730469 233.9375 288.824219 233.964844 Z M 309.855469 235.417969 C 310.128906 235.367188 310.402344 235.320312 310.667969 235.257812 C 310.859375 235.214844 311.042969 235.15625 311.199219 235.015625 C 311.292969 234.933594 311.417969 234.882812 311.527344 234.820312 C 311.957031 234.578125 312.402344 234.359375 312.789062 234.054688 C 313.136719 233.777344 313.480469 233.496094 313.8125 233.199219 C 314.660156 232.453125 315.484375 231.671875 316.296875 230.882812 C 316.855469 230.339844 317.382812 229.769531 317.851562 229.144531 C 318.300781 228.546875 318.753906 227.949219 319.195312 227.34375 C 319.441406 227.011719 319.679688 226.671875 319.894531 226.316406 C 320.976562 224.53125 321.859375 222.648438 322.566406 220.683594 C 322.652344 220.441406 322.742188 220.199219 322.832031 219.960938 C 322.863281 219.875 322.847656 219.820312 322.777344 219.753906 C 322.496094 219.492188 322.238281 219.207031 321.984375 218.917969 C 321.578125 218.460938 321.15625 218.019531 320.710938 217.597656 C 320.621094 217.511719 320.609375 217.511719 320.507812 217.566406 C 320.136719 217.773438 319.765625 217.976562 319.394531 218.183594 C 318.925781 218.441406 318.488281 218.746094 318.09375 219.101562 C 317.054688 220.046875 316.105469 221.070312 315.292969 222.21875 C 313.714844 224.445312 312.457031 226.839844 311.460938 229.375 C 311.125 230.238281 310.816406 231.117188 310.503906 231.988281 C 310.234375 232.753906 310.015625 233.53125 309.863281 234.328125 C 309.796875 234.675781 309.734375 235.027344 309.855469 235.417969 Z M 273.308594 203.765625 C 273.332031 203.96875 273.351562 204.183594 273.375 204.394531 C 273.628906 206.589844 273.933594 208.773438 274.242188 210.960938 C 274.464844 212.535156 274.722656 214.097656 275.117188 215.640625 C 275.265625 216.230469 275.425781 216.824219 275.558594 217.417969 C 275.746094 218.226562 275.972656 219.023438 276.199219 219.820312 C 276.21875 219.890625 276.226562 219.972656 276.289062 220.023438 C 276.367188 219.988281 276.378906 219.917969 276.414062 219.859375 C 276.558594 219.613281 276.695312 219.363281 276.839844 219.117188 C 277.144531 218.613281 277.523438 218.175781 277.980469 217.808594 C 278.5 217.386719 279.054688 217.007812 279.628906 216.660156 C 280.253906 216.277344 280.914062 215.964844 281.589844 215.695312 C 282.835938 215.195312 284.054688 214.628906 285.261719 214.050781 C 285.539062 213.917969 285.800781 213.765625 286.058594 213.597656 C 286.214844 213.496094 286.316406 213.359375 286.390625 213.195312 C 286.53125 212.871094 286.59375 212.535156 286.59375 212.1875 C 286.59375 211.433594 286.511719 210.691406 286.316406 209.960938 C 286.234375 209.648438 286.117188 209.339844 285.925781 209.070312 C 285.316406 208.207031 284.574219 207.484375 283.65625 206.949219 C 282.917969 206.523438 282.160156 206.148438 281.375 205.820312 C 280.03125 205.265625 278.648438 204.835938 277.242188 204.472656 C 276.019531 204.15625 274.792969 203.867188 273.53125 203.75 C 273.464844 203.742188 273.394531 203.710938 273.308594 203.765625 Z M 325.957031 204.011719 C 325.621094 204.046875 325.320312 204.085938 325.015625 204.117188 C 324.386719 204.175781 323.757812 204.179688 323.128906 204.203125 C 321.777344 204.253906 320.433594 204.339844 319.085938 204.417969 C 317.613281 204.503906 316.167969 204.738281 314.761719 205.179688 C 314.242188 205.339844 313.746094 205.558594 313.285156 205.855469 C 313.003906 206.039062 312.800781 206.28125 312.707031 206.609375 C 312.648438 206.808594 312.597656 207.011719 312.585938 207.21875 C 312.523438 208.183594 312.632812 209.128906 312.972656 210.039062 C 313.164062 210.542969 313.46875 210.953125 313.925781 211.25 C 314.566406 211.660156 315.214844 212.054688 315.90625 212.375 C 316.183594 212.503906 316.457031 212.644531 316.726562 212.789062 C 317.78125 213.351562 318.796875 213.972656 319.695312 214.773438 C 319.90625 214.964844 320.125 215.148438 320.335938 215.339844 C 321.316406 216.230469 322.285156 217.125 323.152344 218.128906 C 323.1875 218.171875 323.230469 218.214844 323.273438 218.257812 C 323.300781 218.285156 323.355469 218.269531 323.367188 218.230469 C 323.414062 218.082031 323.457031 217.929688 323.503906 217.777344 C 324.023438 216.109375 324.46875 214.421875 324.804688 212.707031 C 324.863281 212.414062 324.917969 212.125 324.984375 211.835938 C 325.492188 209.636719 325.707031 207.398438 325.914062 205.160156 C 325.945312 204.835938 325.945312 204.511719 325.957031 204.183594 C 325.960938 204.136719 325.957031 204.089844 325.957031 204.011719 Z M 274.292969 192.347656 C 274.09375 192.433594 273.890625 192.515625 273.699219 192.609375 C 273.511719 192.703125 273.339844 192.820312 273.199219 192.976562 C 273.089844 193.097656 273.09375 193.164062 273.210938 193.273438 C 273.390625 193.445312 273.59375 193.585938 273.808594 193.707031 C 274.199219 193.925781 274.605469 194.101562 275.023438 194.257812 C 275.726562 194.515625 276.445312 194.726562 277.171875 194.910156 C 278.992188 195.371094 280.839844 195.695312 282.695312 195.964844 C 285.652344 196.390625 288.628906 196.667969 291.609375 196.859375 C 295.792969 197.132812 299.980469 197.230469 304.171875 197.167969 C 306.960938 197.125 309.746094 197.007812 312.527344 196.777344 C 314.601562 196.605469 316.667969 196.375 318.714844 196.011719 C 320.027344 195.777344 321.324219 195.496094 322.582031 195.035156 C 322.933594 194.902344 323.269531 194.742188 323.589844 194.546875 C 323.707031 194.472656 323.8125 194.378906 323.910156 194.285156 C 324.023438 194.179688 324.019531 194.125 323.917969 194.011719 C 323.742188 193.816406 323.527344 193.675781 323.304688 193.550781 C 322.847656 193.289062 322.359375 193.101562 321.867188 192.925781 C 320.945312 192.59375 320 192.351562 319.046875 192.132812 C 317.167969 191.707031 315.269531 191.402344 313.363281 191.152344 C 310.4375 190.765625 307.5 190.511719 304.554688 190.339844 C 300.429688 190.101562 296.300781 190.023438 292.171875 190.109375 C 288.722656 190.183594 285.277344 190.359375 281.847656 190.753906 C 279.988281 190.96875 278.132812 191.238281 276.3125 191.6875 C 275.625 191.855469 274.941406 192.046875 274.292969 192.347656 Z M 319.503906 216.507812 C 319.480469 216.472656 319.476562 216.453125 319.464844 216.441406 C 318.71875 215.746094 317.9375 215.097656 317.054688 214.582031 C 316.449219 214.226562 315.839844 213.886719 315.203125 213.589844 C 314.46875 213.246094 313.777344 212.828125 313.101562 212.375 C 312.707031 212.109375 312.367188 211.785156 312.097656 211.386719 C 311.847656 211.011719 311.671875 210.605469 311.539062 210.179688 C 311.230469 209.203125 311.121094 208.195312 311.183594 207.171875 C 311.210938 206.742188 311.308594 206.332031 311.464844 205.933594 C 311.628906 205.511719 311.890625 205.160156 312.25 204.882812 C 312.613281 204.601562 313.003906 204.375 313.417969 204.191406 C 314.234375 203.828125 315.09375 203.605469 315.960938 203.421875 C 317.015625 203.199219 318.078125 203.074219 319.15625 203.011719 C 320.757812 202.917969 322.359375 202.816406 323.964844 202.78125 C 324.652344 202.765625 325.335938 202.667969 326.03125 202.601562 C 326.046875 202.296875 326.066406 202.003906 326.074219 201.707031 C 326.085938 201.175781 326.097656 200.644531 326.105469 200.113281 C 326.105469 200.101562 326.101562 200.09375 326.09375 200.085938 C 326.089844 200.078125 326.078125 200.078125 326.054688 200.070312 C 326.03125 200.085938 325.996094 200.101562 325.964844 200.125 C 325.394531 200.582031 324.742188 200.882812 324.058594 201.113281 C 323.214844 201.398438 322.347656 201.582031 321.46875 201.714844 C 320.417969 201.878906 319.355469 201.953125 318.292969 202.007812 C 316.777344 202.085938 315.261719 202.15625 313.746094 202.226562 C 313.617188 202.234375 313.492188 202.238281 313.367188 202.273438 C 313.085938 202.355469 312.835938 202.273438 312.617188 202.097656 C 312.273438 201.828125 312.269531 201.335938 312.589844 201.039062 C 312.738281 200.902344 312.917969 200.863281 313.109375 200.851562 C 313.738281 200.820312 314.367188 200.789062 314.996094 200.753906 C 316.257812 200.691406 317.515625 200.664062 318.777344 200.578125 C 319.957031 200.496094 321.132812 200.398438 322.292969 200.140625 C 322.871094 200.011719 323.445312 199.871094 323.992188 199.640625 C 324.28125 199.515625 324.570312 199.382812 324.835938 199.210938 C 325.382812 198.859375 325.800781 198.375 326.164062 197.839844 C 326.269531 197.683594 326.335938 197.507812 326.386719 197.328125 C 326.523438 196.851562 326.445312 196.386719 326.28125 195.933594 C 326.105469 195.4375 325.765625 195.054688 325.386719 194.699219 C 325.375 194.691406 325.351562 194.691406 325.332031 194.6875 C 325.320312 194.699219 325.300781 194.710938 325.292969 194.726562 C 325.085938 195.160156 324.746094 195.464844 324.351562 195.722656 C 324 195.949219 323.625 196.117188 323.242188 196.277344 C 322.492188 196.585938 321.710938 196.796875 320.925781 196.988281 C 319.589844 197.304688 318.238281 197.53125 316.882812 197.714844 C 314.304688 198.066406 311.710938 198.273438 309.113281 198.40625 C 304.097656 198.65625 299.085938 198.640625 294.070312 198.402344 C 290.355469 198.222656 286.652344 197.925781 282.96875 197.414062 C 281.042969 197.148438 279.128906 196.824219 277.238281 196.367188 C 276.191406 196.117188 275.15625 195.824219 274.15625 195.421875 C 273.640625 195.214844 273.144531 194.972656 272.6875 194.65625 C 272.652344 194.628906 272.613281 194.585938 272.542969 194.628906 C 272.34375 195.316406 272.15625 196.023438 272.054688 196.746094 C 271.972656 197.328125 272.082031 197.886719 272.351562 198.410156 C 272.390625 198.476562 272.421875 198.546875 272.492188 198.597656 C 273.144531 199.066406 273.839844 199.457031 274.628906 199.644531 C 274.886719 199.707031 275.148438 199.765625 275.410156 199.816406 C 275.933594 199.917969 276.457031 200.007812 276.980469 200.113281 C 277.988281 200.316406 279.003906 200.449219 280.023438 200.558594 C 281.316406 200.699219 282.617188 200.761719 283.917969 200.808594 C 284.214844 200.820312 284.507812 200.847656 284.800781 200.878906 C 285.050781 200.902344 285.289062 200.960938 285.515625 201.0625 C 285.585938 201.09375 285.660156 201.125 285.722656 201.175781 C 285.976562 201.367188 285.96875 201.71875 285.710938 201.90625 C 285.625 201.972656 285.523438 202.015625 285.421875 202.054688 C 285.066406 202.195312 284.695312 202.230469 284.320312 202.21875 C 283.355469 202.191406 282.386719 202.164062 281.425781 202.089844 C 280 201.976562 278.574219 201.839844 277.167969 201.574219 C 276.441406 201.4375 275.714844 201.300781 274.988281 201.164062 C 274.335938 201.039062 273.699219 200.859375 273.09375 200.585938 C 273.070312 200.574219 273.039062 200.574219 273.011719 200.570312 C 272.976562 200.628906 272.988281 200.6875 272.996094 200.746094 C 273.023438 201.109375 273.050781 201.472656 273.082031 201.835938 C 273.089844 201.945312 273.101562 202.050781 273.113281 202.160156 C 273.121094 202.222656 273.152344 202.269531 273.222656 202.277344 C 273.464844 202.316406 273.710938 202.355469 273.953125 202.390625 C 274.324219 202.445312 274.699219 202.480469 275.066406 202.550781 C 277.046875 202.929688 278.992188 203.4375 280.886719 204.132812 C 282.105469 204.578125 283.28125 205.101562 284.398438 205.761719 C 285.46875 206.398438 286.34375 207.238281 287.0625 208.25 C 287.285156 208.5625 287.445312 208.914062 287.570312 209.28125 C 287.726562 209.742188 287.820312 210.214844 287.886719 210.691406 C 287.960938 211.25 288.011719 211.808594 287.988281 212.375 C 287.964844 212.84375 287.867188 213.292969 287.6875 213.726562 C 287.515625 214.136719 287.261719 214.472656 286.886719 214.726562 C 286.488281 215 286.058594 215.222656 285.621094 215.433594 C 284.753906 215.851562 283.867188 216.242188 282.980469 216.625 C 282.453125 216.847656 281.925781 217.074219 281.402344 217.304688 C 280.84375 217.554688 280.3125 217.859375 279.808594 218.207031 C 279.765625 218.238281 279.703125 218.261719 279.707031 218.351562 C 279.765625 218.375 279.828125 218.402344 279.890625 218.429688 C 280.171875 218.550781 280.445312 218.6875 280.707031 218.847656 C 281.867188 219.570312 282.933594 220.410156 283.828125 221.457031 C 284.558594 222.3125 285.203125 223.234375 285.839844 224.160156 C 286.421875 225.003906 286.980469 225.863281 287.515625 226.742188 C 287.890625 227.355469 288.25 227.980469 288.566406 228.628906 C 288.933594 229.382812 289.269531 230.152344 289.539062 230.949219 C 289.808594 231.734375 290.042969 232.527344 290.183594 233.347656 C 290.28125 233.910156 290.414062 234.46875 290.375 235.046875 C 290.371094 235.09375 290.394531 235.125 290.429688 235.144531 C 290.75 235.335938 291.070312 235.535156 291.402344 235.707031 C 291.542969 235.78125 291.6875 235.839844 291.8125 235.933594 C 292.007812 236.078125 292.222656 236.167969 292.460938 236.214844 C 292.742188 236.269531 293.023438 236.324219 293.308594 236.351562 C 294.523438 236.46875 295.746094 236.527344 296.96875 236.542969 C 298.792969 236.566406 300.613281 236.476562 302.425781 236.289062 C 303.496094 236.175781 304.558594 236.039062 305.628906 235.929688 C 306.5 235.839844 307.375 235.769531 308.242188 235.648438 C 308.300781 235.644531 308.363281 235.644531 308.425781 235.589844 C 308.296875 234.957031 308.433594 234.328125 308.5625 233.703125 C 308.660156 233.226562 308.789062 232.761719 308.929688 232.296875 C 309.195312 231.441406 309.519531 230.601562 309.820312 229.753906 C 310.621094 227.507812 311.667969 225.375 312.886719 223.328125 C 313.945312 221.554688 315.179688 219.929688 316.675781 218.503906 C 317.257812 217.953125 317.871094 217.445312 318.566406 217.042969 C 318.875 216.867188 319.183594 216.691406 319.503906 216.507812 Z M 275.671875 222.605469 C 275.433594 222 275.183594 221.355469 274.996094 220.6875 C 274.832031 220.089844 274.648438 219.496094 274.484375 218.894531 C 274.359375 218.429688 274.253906 217.957031 274.132812 217.488281 C 273.890625 216.5625 273.671875 215.632812 273.460938 214.699219 C 273.234375 213.699219 273.078125 212.683594 272.929688 211.667969 C 272.671875 209.871094 272.414062 208.078125 272.191406 206.277344 C 272.027344 204.925781 271.867188 203.574219 271.714844 202.222656 C 271.65625 201.703125 271.628906 201.179688 271.585938 200.660156 C 271.5625 200.425781 271.582031 200.1875 271.503906 199.957031 C 271.488281 199.910156 271.492188 199.859375 271.5 199.808594 C 271.515625 199.714844 271.476562 199.644531 271.421875 199.566406 C 270.730469 198.578125 270.492188 197.488281 270.703125 196.304688 C 270.847656 195.507812 271.03125 194.71875 271.289062 193.949219 C 271.453125 193.464844 271.648438 192.988281 271.839844 192.511719 C 271.945312 192.242188 272.140625 192.03125 272.355469 191.839844 C 272.609375 191.617188 272.894531 191.4375 273.195312 191.285156 C 273.75 191.003906 274.332031 190.789062 274.929688 190.613281 C 276.777344 190.058594 278.671875 189.746094 280.578125 189.496094 C 283.558594 189.105469 286.554688 188.894531 289.558594 188.78125 C 295.710938 188.550781 301.855469 188.679688 307.988281 189.175781 C 310.929688 189.414062 313.859375 189.746094 316.765625 190.25 C 318.300781 190.519531 319.828125 190.835938 321.324219 191.277344 C 321.875 191.4375 322.417969 191.617188 322.949219 191.832031 C 323.40625 192.019531 323.851562 192.230469 324.269531 192.5 C 324.351562 192.554688 324.433594 192.59375 324.539062 192.601562 C 324.75 192.617188 324.941406 192.695312 325.125 192.796875 C 325.925781 193.246094 326.628906 193.820312 327.144531 194.585938 C 327.761719 195.503906 328.003906 196.503906 327.761719 197.601562 C 327.714844 197.8125 327.648438 198.019531 327.550781 198.214844 C 327.484375 198.34375 327.460938 198.472656 327.46875 198.613281 C 327.476562 198.839844 327.449219 199.066406 327.53125 199.285156 C 327.554688 199.355469 327.546875 199.441406 327.542969 199.519531 C 327.503906 200.644531 327.464844 201.769531 327.421875 202.890625 C 327.398438 203.460938 327.371094 204.035156 327.347656 204.605469 C 327.320312 205.277344 327.261719 205.945312 327.1875 206.609375 C 327.136719 207.03125 327.085938 207.453125 327.046875 207.875 C 326.914062 209.273438 326.667969 210.652344 326.375 212.023438 C 326.296875 212.390625 326.21875 212.753906 326.148438 213.125 C 325.835938 214.695312 325.433594 216.238281 324.96875 217.769531 C 324.832031 218.222656 324.699219 218.679688 324.5625 219.132812 C 323.980469 221.054688 323.257812 222.921875 322.371094 224.722656 C 321.949219 225.570312 321.488281 226.398438 320.992188 227.207031 C 320.785156 227.539062 320.554688 227.863281 320.324219 228.179688 C 319.886719 228.777344 319.4375 229.363281 318.996094 229.957031 C 318.472656 230.652344 317.886719 231.289062 317.265625 231.894531 C 316.410156 232.726562 315.542969 233.546875 314.648438 234.332031 C 314.3125 234.621094 313.96875 234.902344 313.625 235.179688 C 313.265625 235.460938 312.867188 235.679688 312.472656 235.898438 C 312.265625 236.011719 312.058594 236.125 311.867188 236.269531 C 311.667969 236.414062 311.441406 236.507812 311.195312 236.570312 C 310.585938 236.722656 309.960938 236.824219 309.339844 236.914062 C 308.199219 237.078125 307.050781 237.203125 305.902344 237.3125 C 304.894531 237.40625 303.886719 237.542969 302.878906 237.648438 C 300.75 237.875 298.617188 237.984375 296.476562 237.933594 C 295.511719 237.910156 294.546875 237.859375 293.585938 237.78125 C 293.09375 237.746094 292.605469 237.675781 292.121094 237.574219 C 291.679688 237.476562 291.28125 237.292969 290.925781 237.015625 C 290.839844 236.945312 290.75 236.894531 290.644531 236.859375 C 290.480469 236.8125 290.339844 236.722656 290.191406 236.640625 C 289.488281 236.238281 288.835938 235.761719 288.191406 235.269531 C 286.910156 234.296875 285.667969 233.277344 284.464844 232.207031 C 283.957031 231.753906 283.441406 231.3125 282.921875 230.875 C 281.445312 229.625 280.039062 228.296875 278.640625 226.964844 C 277.945312 226.300781 277.332031 225.570312 276.816406 224.753906 C 276.390625 224.078125 276.027344 223.367188 275.671875 222.605469 " fill-opacity="1" fill-rule="nonzero"/></g></g></g></g><g clip-path="url(#0dbc8e7d1f)"><g clip-path="url(#af4543b773)"><g clip-path="url(#289d002bf1)"><g clip-path="url(#b2c4f82904)"><path fill="#fdf8e5" d="M 294.117188 234.332031 C 294.1875 234.519531 294.304688 234.679688 294.464844 234.800781 C 294.714844 234.984375 295 234.945312 295.199219 234.707031 C 295.316406 234.566406 295.375 234.402344 295.398438 234.222656 C 295.414062 234.074219 295.410156 233.929688 295.382812 233.78125 C 295.316406 233.390625 295.210938 233.011719 295.082031 232.640625 C 294.921875 232.183594 294.355469 232.042969 293.988281 232.359375 C 293.765625 232.550781 293.695312 232.804688 293.761719 233.082031 C 293.855469 233.457031 293.964844 233.824219 294.066406 234.195312 C 294.078125 234.242188 294.097656 234.285156 294.117188 234.332031 Z M 294.097656 226.886719 C 293.902344 226.453125 293.652344 225.929688 293.359375 225.425781 C 292.84375 224.542969 292.199219 223.761719 291.476562 223.042969 C 291.125 222.6875 290.71875 222.414062 290.273438 222.191406 C 290.214844 222.160156 290.148438 222.132812 290.082031 222.113281 C 289.761719 222.023438 289.429688 222.164062 289.277344 222.453125 C 289.125 222.738281 289.1875 223.09375 289.445312 223.308594 C 289.535156 223.382812 289.640625 223.441406 289.746094 223.496094 C 290.066406 223.660156 290.34375 223.875 290.589844 224.136719 C 290.664062 224.214844 290.742188 224.292969 290.8125 224.371094 C 291.339844 224.933594 291.808594 225.539062 292.191406 226.210938 C 292.398438 226.574219 292.570312 226.949219 292.757812 227.320312 C 293.023438 227.828125 293.210938 228.367188 293.375 228.917969 C 293.523438 229.417969 293.628906 229.929688 293.734375 230.441406 C 293.769531 230.609375 293.828125 230.761719 293.910156 230.914062 C 293.980469 231.046875 294.082031 231.152344 294.210938 231.230469 C 294.425781 231.355469 294.652344 231.324219 294.832031 231.148438 C 294.996094 230.984375 295.0625 230.78125 295.085938 230.5625 C 295.109375 230.335938 295.089844 230.109375 295.046875 229.886719 C 294.855469 228.886719 294.582031 227.910156 294.097656 226.886719 Z M 300.003906 213.074219 C 299.953125 213.015625 299.898438 212.960938 299.84375 212.902344 C 299.519531 212.53125 299.175781 212.179688 298.808594 211.847656 C 298.1875 211.289062 297.507812 210.820312 296.738281 210.492188 C 296.242188 210.28125 295.734375 210.128906 295.203125 210.058594 C 294.574219 209.976562 293.957031 210.027344 293.371094 210.261719 C 292.222656 210.726562 291.488281 211.566406 291.191406 212.769531 C 291.046875 213.351562 291.042969 213.941406 291.128906 214.535156 C 291.257812 215.414062 291.574219 216.226562 292.023438 216.992188 C 292.625 218.011719 293.363281 218.917969 294.242188 219.710938 C 295.527344 220.867188 296.910156 221.898438 298.308594 222.910156 C 298.648438 223.152344 299.023438 223.332031 299.410156 223.484375 C 299.546875 223.539062 299.6875 223.585938 299.832031 223.613281 C 300.113281 223.664062 300.382812 223.625 300.625 223.457031 C 300.753906 223.367188 300.886719 223.28125 301.007812 223.179688 C 301.53125 222.734375 302.058594 222.289062 302.574219 221.832031 C 303.351562 221.148438 304.066406 220.398438 304.816406 219.683594 C 305.820312 218.726562 306.636719 217.617188 307.316406 216.402344 C 307.429688 216.195312 307.539062 215.984375 307.625 215.765625 C 307.828125 215.261719 307.910156 214.738281 307.886719 214.199219 C 307.863281 213.59375 307.703125 213.027344 307.359375 212.527344 C 306.730469 211.625 305.902344 210.980469 304.839844 210.664062 C 304.398438 210.53125 303.949219 210.503906 303.496094 210.589844 C 302.882812 210.707031 302.328125 210.949219 301.820312 211.300781 C 301.1875 211.734375 300.652344 212.265625 300.183594 212.871094 C 300.132812 212.941406 300.09375 213.027344 300.003906 213.074219 Z M 319.503906 216.507812 C 319.183594 216.691406 318.875 216.867188 318.566406 217.042969 C 317.871094 217.445312 317.257812 217.953125 316.675781 218.503906 C 315.179688 219.929688 313.945312 221.554688 312.886719 223.328125 C 311.667969 225.375 310.621094 227.507812 309.820312 229.753906 C 309.519531 230.601562 309.195312 231.441406 308.929688 232.296875 C 308.789062 232.761719 308.660156 233.226562 308.5625 233.703125 C 308.433594 234.328125 308.296875 234.957031 308.425781 235.589844 C 308.363281 235.644531 308.300781 235.644531 308.242188 235.648438 C 307.375 235.769531 306.5 235.839844 305.628906 235.929688 C 304.558594 236.039062 303.496094 236.175781 302.425781 236.289062 C 300.613281 236.476562 298.792969 236.566406 296.96875 236.542969 C 295.746094 236.527344 294.523438 236.46875 293.308594 236.351562 C 293.023438 236.324219 292.742188 236.269531 292.460938 236.214844 C 292.222656 236.167969 292.007812 236.078125 291.8125 235.933594 C 291.6875 235.839844 291.542969 235.78125 291.402344 235.707031 C 291.070312 235.535156 290.75 235.335938 290.429688 235.144531 C 290.394531 235.125 290.371094 235.09375 290.375 235.046875 C 290.414062 234.46875 290.28125 233.910156 290.183594 233.347656 C 290.042969 232.527344 289.808594 231.734375 289.539062 230.949219 C 289.269531 230.152344 288.933594 229.382812 288.566406 228.628906 C 288.25 227.980469 287.890625 227.355469 287.515625 226.742188 C 286.980469 225.863281 286.421875 225.003906 285.839844 224.160156 C 285.203125 223.234375 284.558594 222.3125 283.828125 221.457031 C 282.933594 220.410156 281.867188 219.570312 280.707031 218.847656 C 280.445312 218.6875 280.171875 218.550781 279.890625 218.429688 C 279.828125 218.402344 279.765625 218.375 279.707031 218.351562 C 279.703125 218.261719 279.765625 218.238281 279.808594 218.207031 C 280.3125 217.859375 280.84375 217.554688 281.402344 217.304688 C 281.925781 217.074219 282.453125 216.847656 282.980469 216.625 C 283.867188 216.242188 284.753906 215.851562 285.621094 215.433594 C 286.058594 215.222656 286.488281 215 286.886719 214.726562 C 287.261719 214.472656 287.515625 214.136719 287.6875 213.726562 C 287.867188 213.292969 287.964844 212.84375 287.988281 212.375 C 288.011719 211.808594 287.960938 211.25 287.886719 210.691406 C 287.820312 210.214844 287.726562 209.742188 287.570312 209.28125 C 287.445312 208.914062 287.285156 208.5625 287.0625 208.25 C 286.34375 207.238281 285.46875 206.398438 284.398438 205.761719 C 283.28125 205.101562 282.105469 204.578125 280.886719 204.132812 C 278.992188 203.4375 277.046875 202.929688 275.066406 202.550781 C 274.699219 202.480469 274.324219 202.445312 273.953125 202.390625 C 273.710938 202.355469 273.464844 202.316406 273.222656 202.277344 C 273.152344 202.269531 273.121094 202.222656 273.113281 202.160156 C 273.101562 202.050781 273.089844 201.945312 273.082031 201.835938 C 273.050781 201.472656 273.023438 201.109375 272.996094 200.746094 C 272.988281 200.6875 272.976562 200.628906 273.011719 200.570312 C 273.039062 200.574219 273.070312 200.574219 273.09375 200.585938 C 273.699219 200.859375 274.335938 201.039062 274.988281 201.164062 C 275.714844 201.300781 276.441406 201.4375 277.167969 201.574219 C 278.574219 201.839844 280 201.976562 281.425781 202.089844 C 282.386719 202.164062 283.355469 202.191406 284.320312 202.21875 C 284.695312 202.230469 285.066406 202.195312 285.421875 202.054688 C 285.523438 202.015625 285.625 201.972656 285.710938 201.90625 C 285.96875 201.71875 285.976562 201.367188 285.722656 201.175781 C 285.660156 201.125 285.585938 201.09375 285.515625 201.0625 C 285.289062 200.960938 285.050781 200.902344 284.800781 200.878906 C 284.507812 200.847656 284.214844 200.820312 283.917969 200.808594 C 282.617188 200.761719 281.316406 200.699219 280.023438 200.558594 C 279.003906 200.449219 277.988281 200.316406 276.980469 200.113281 C 276.457031 200.007812 275.933594 199.917969 275.410156 199.816406 C 275.148438 199.765625 274.886719 199.707031 274.628906 199.644531 C 273.839844 199.457031 273.144531 199.066406 272.492188 198.597656 C 272.421875 198.546875 272.390625 198.476562 272.351562 198.410156 C 272.082031 197.886719 271.972656 197.328125 272.054688 196.746094 C 272.15625 196.023438 272.34375 195.316406 272.542969 194.628906 C 272.613281 194.585938 272.652344 194.628906 272.6875 194.65625 C 273.144531 194.972656 273.640625 195.214844 274.15625 195.421875 C 275.15625 195.824219 276.191406 196.117188 277.238281 196.367188 C 279.128906 196.824219 281.042969 197.148438 282.96875 197.414062 C 286.652344 197.925781 290.355469 198.222656 294.070312 198.402344 C 299.085938 198.640625 304.097656 198.65625 309.113281 198.40625 C 311.710938 198.273438 314.304688 198.066406 316.882812 197.714844 C 318.238281 197.53125 319.589844 197.304688 320.925781 196.988281 C 321.710938 196.796875 322.492188 196.585938 323.242188 196.277344 C 323.625 196.117188 324 195.949219 324.351562 195.722656 C 324.746094 195.464844 325.085938 195.160156 325.292969 194.726562 C 325.300781 194.710938 325.320312 194.699219 325.332031 194.6875 C 325.351562 194.691406 325.375 194.691406 325.386719 194.699219 C 325.765625 195.054688 326.105469 195.4375 326.28125 195.933594 C 326.445312 196.386719 326.523438 196.851562 326.386719 197.328125 C 326.335938 197.507812 326.269531 197.683594 326.164062 197.839844 C 325.800781 198.375 325.382812 198.859375 324.835938 199.210938 C 324.570312 199.382812 324.28125 199.515625 323.992188 199.640625 C 323.445312 199.871094 322.871094 200.011719 322.292969 200.140625 C 321.132812 200.398438 319.957031 200.496094 318.777344 200.578125 C 317.515625 200.664062 316.257812 200.691406 314.996094 200.753906 C 314.367188 200.789062 313.738281 200.820312 313.109375 200.851562 C 312.917969 200.863281 312.738281 200.902344 312.589844 201.039062 C 312.269531 201.335938 312.273438 201.828125 312.617188 202.097656 C 312.835938 202.273438 313.085938 202.355469 313.367188 202.273438 C 313.492188 202.238281 313.617188 202.234375 313.746094 202.226562 C 315.261719 202.15625 316.777344 202.085938 318.292969 202.007812 C 319.355469 201.953125 320.417969 201.878906 321.46875 201.714844 C 322.347656 201.582031 323.214844 201.398438 324.058594 201.113281 C 324.742188 200.882812 325.394531 200.582031 325.964844 200.125 C 325.996094 200.101562 326.03125 200.085938 326.054688 200.070312 C 326.078125 200.078125 326.089844 200.078125 326.09375 200.085938 C 326.101562 200.09375 326.105469 200.101562 326.105469 200.113281 C 326.097656 200.644531 326.085938 201.175781 326.074219 201.707031 C 326.066406 202.003906 326.046875 202.296875 326.03125 202.601562 C 325.335938 202.667969 324.652344 202.765625 323.964844 202.78125 C 322.359375 202.816406 320.757812 202.917969 319.15625 203.011719 C 318.078125 203.074219 317.015625 203.199219 315.960938 203.421875 C 315.09375 203.605469 314.234375 203.828125 313.417969 204.191406 C 313.003906 204.375 312.613281 204.601562 312.25 204.882812 C 311.890625 205.160156 311.628906 205.511719 311.464844 205.933594 C 311.308594 206.332031 311.210938 206.742188 311.183594 207.171875 C 311.121094 208.195312 311.230469 209.203125 311.539062 210.179688 C 311.671875 210.605469 311.847656 211.011719 312.097656 211.386719 C 312.367188 211.785156 312.707031 212.109375 313.101562 212.375 C 313.777344 212.828125 314.46875 213.246094 315.203125 213.589844 C 315.839844 213.886719 316.449219 214.226562 317.054688 214.582031 C 317.9375 215.097656 318.71875 215.746094 319.464844 216.441406 C 319.476562 216.453125 319.480469 216.472656 319.503906 216.507812 " fill-opacity="1" fill-rule="nonzero"/></g></g></g></g><g clip-path="url(#bad90d8624)"><g clip-path="url(#871fa618e8)"><g clip-path="url(#aa2216903f)"><g clip-path="url(#b61d0dea6c)"><path fill="#e8daac" d="M 274.292969 192.347656 C 274.941406 192.046875 275.625 191.855469 276.3125 191.6875 C 278.132812 191.238281 279.988281 190.96875 281.847656 190.753906 C 285.277344 190.359375 288.722656 190.183594 292.171875 190.109375 C 296.300781 190.023438 300.429688 190.101562 304.554688 190.339844 C 307.5 190.511719 310.4375 190.765625 313.363281 191.152344 C 315.269531 191.402344 317.167969 191.707031 319.046875 192.132812 C 320 192.351562 320.945312 192.59375 321.867188 192.925781 C 322.359375 193.101562 322.847656 193.289062 323.304688 193.550781 C 323.527344 193.675781 323.742188 193.816406 323.917969 194.011719 C 324.019531 194.125 324.023438 194.179688 323.910156 194.285156 C 323.8125 194.378906 323.707031 194.472656 323.589844 194.546875 C 323.269531 194.742188 322.933594 194.902344 322.582031 195.035156 C 321.324219 195.496094 320.027344 195.777344 318.714844 196.011719 C 316.667969 196.375 314.601562 196.605469 312.527344 196.777344 C 309.746094 197.007812 306.960938 197.125 304.171875 197.167969 C 299.980469 197.230469 295.792969 197.132812 291.609375 196.859375 C 288.628906 196.667969 285.652344 196.390625 282.695312 195.964844 C 280.839844 195.695312 278.992188 195.371094 277.171875 194.910156 C 276.445312 194.726562 275.726562 194.515625 275.023438 194.257812 C 274.605469 194.101562 274.199219 193.925781 273.808594 193.707031 C 273.59375 193.585938 273.390625 193.445312 273.210938 193.273438 C 273.09375 193.164062 273.089844 193.097656 273.199219 192.976562 C 273.339844 192.820312 273.511719 192.703125 273.699219 192.609375 C 273.890625 192.515625 274.09375 192.433594 274.292969 192.347656 " fill-opacity="1" fill-rule="nonzero"/></g></g></g></g><g clip-path="url(#3d918f3f0f)"><g clip-path="url(#d2123a1e25)"><g clip-path="url(#5c1a85edf6)"><g clip-path="url(#fdb4a7a3f4)"><path fill="#fdf8e5" d="M 325.957031 204.011719 C 325.957031 204.089844 325.960938 204.136719 325.957031 204.183594 C 325.945312 204.511719 325.945312 204.835938 325.914062 205.160156 C 325.707031 207.398438 325.492188 209.636719 324.984375 211.835938 C 324.917969 212.125 324.863281 212.414062 324.804688 212.707031 C 324.46875 214.421875 324.023438 216.109375 323.503906 217.777344 C 323.457031 217.929688 323.414062 218.082031 323.367188 218.230469 C 323.355469 218.269531 323.300781 218.285156 323.273438 218.257812 C 323.230469 218.214844 323.1875 218.171875 323.152344 218.128906 C 322.285156 217.125 321.316406 216.230469 320.335938 215.339844 C 320.125 215.148438 319.90625 214.964844 319.695312 214.773438 C 318.796875 213.972656 317.78125 213.351562 316.726562 212.789062 C 316.457031 212.644531 316.183594 212.503906 315.90625 212.375 C 315.214844 212.054688 314.566406 211.660156 313.925781 211.25 C 313.46875 210.953125 313.164062 210.542969 312.972656 210.039062 C 312.632812 209.128906 312.523438 208.183594 312.585938 207.21875 C 312.597656 207.011719 312.648438 206.808594 312.707031 206.609375 C 312.800781 206.28125 313.003906 206.039062 313.285156 205.855469 C 313.746094 205.558594 314.242188 205.339844 314.761719 205.179688 C 316.167969 204.738281 317.613281 204.503906 319.085938 204.417969 C 320.433594 204.339844 321.777344 204.253906 323.128906 204.203125 C 323.757812 204.179688 324.386719 204.175781 325.015625 204.117188 C 325.320312 204.085938 325.621094 204.046875 325.957031 204.011719 " fill-opacity="1" fill-rule="nonzero"/></g></g></g></g><g clip-path="url(#b636e3e363)"><g clip-path="url(#9cf3ad127f)"><g clip-path="url(#d4d035c65f)"><g clip-path="url(#48eb494abf)"><path fill="#fdf8e5" d="M 284.199219 212.265625 C 284.195312 212.265625 284.195312 212.265625 284.195312 212.265625 C 284.230469 212.347656 284.261719 212.429688 284.300781 212.507812 C 284.363281 212.644531 284.453125 212.761719 284.570312 212.855469 C 284.828125 213.058594 285.140625 213.035156 285.371094 212.800781 C 285.550781 212.621094 285.621094 212.402344 285.601562 212.15625 C 285.574219 211.84375 285.457031 211.5625 285.269531 211.3125 C 285.167969 211.171875 285.023438 211.09375 284.851562 211.054688 C 284.417969 210.964844 283.898438 211.359375 284.070312 211.964844 C 284.101562 212.070312 284.15625 212.164062 284.199219 212.265625 Z M 284.367188 210.046875 C 284.339844 210.007812 284.304688 209.949219 284.269531 209.890625 C 283.957031 209.433594 283.554688 209.082031 283.078125 208.808594 C 282.582031 208.523438 282.078125 208.25 281.566406 208 C 281.300781 207.871094 281.03125 207.746094 280.75 207.65625 C 280.480469 207.5625 280.203125 207.496094 279.949219 207.351562 C 279.917969 207.332031 279.878906 207.324219 279.839844 207.3125 C 279.34375 207.1875 278.902344 207.605469 278.988281 208.109375 C 279.027344 208.328125 279.15625 208.484375 279.335938 208.601562 C 279.535156 208.726562 279.753906 208.820312 279.984375 208.882812 C 280.394531 208.992188 280.78125 209.167969 281.15625 209.363281 C 281.480469 209.527344 281.796875 209.710938 282.121094 209.875 C 282.53125 210.085938 282.886719 210.355469 283.164062 210.726562 C 283.222656 210.804688 283.296875 210.871094 283.371094 210.9375 C 283.453125 211.007812 283.550781 211.058594 283.65625 211.085938 C 284.023438 211.1875 284.359375 210.988281 284.441406 210.617188 C 284.484375 210.425781 284.445312 210.246094 284.367188 210.046875 Z M 273.308594 203.765625 C 273.394531 203.710938 273.464844 203.742188 273.53125 203.75 C 274.792969 203.867188 276.019531 204.15625 277.242188 204.472656 C 278.648438 204.835938 280.03125 205.265625 281.375 205.820312 C 282.160156 206.148438 282.917969 206.523438 283.65625 206.949219 C 284.574219 207.484375 285.316406 208.207031 285.925781 209.070312 C 286.117188 209.339844 286.234375 209.648438 286.316406 209.960938 C 286.511719 210.691406 286.59375 211.433594 286.59375 212.1875 C 286.59375 212.535156 286.53125 212.871094 286.390625 213.195312 C 286.316406 213.359375 286.214844 213.496094 286.058594 213.597656 C 285.800781 213.765625 285.539062 213.917969 285.261719 214.050781 C 284.054688 214.628906 282.835938 215.195312 281.589844 215.695312 C 280.914062 215.964844 280.253906 216.277344 279.628906 216.660156 C 279.054688 217.007812 278.5 217.386719 277.980469 217.808594 C 277.523438 218.175781 277.144531 218.613281 276.839844 219.117188 C 276.695312 219.363281 276.558594 219.613281 276.414062 219.859375 C 276.378906 219.917969 276.367188 219.988281 276.289062 220.023438 C 276.226562 219.972656 276.21875 219.890625 276.199219 219.820312 C 275.972656 219.023438 275.746094 218.226562 275.558594 217.417969 C 275.425781 216.824219 275.265625 216.230469 275.117188 215.640625 C 274.722656 214.097656 274.464844 212.535156 274.242188 210.960938 C 273.933594 208.773438 273.628906 206.589844 273.375 204.394531 C 273.351562 204.183594 273.332031 203.96875 273.308594 203.765625 " fill-opacity="1" fill-rule="nonzero"/></g></g></g></g><g clip-path="url(#053f1b517c)"><g clip-path="url(#30feecfd9e)"><g clip-path="url(#1079e20210)"><g clip-path="url(#9992f3c319)"><path fill="#fdf8e5" d="M 309.855469 235.417969 C 309.734375 235.027344 309.796875 234.675781 309.863281 234.328125 C 310.015625 233.53125 310.234375 232.753906 310.503906 231.988281 C 310.816406 231.117188 311.125 230.238281 311.460938 229.375 C 312.457031 226.839844 313.714844 224.445312 315.292969 222.21875 C 316.105469 221.070312 317.054688 220.046875 318.09375 219.101562 C 318.488281 218.746094 318.925781 218.441406 319.394531 218.183594 C 319.765625 217.976562 320.136719 217.773438 320.507812 217.566406 C 320.609375 217.511719 320.621094 217.511719 320.710938 217.597656 C 321.15625 218.019531 321.578125 218.460938 321.984375 218.917969 C 322.238281 219.207031 322.496094 219.492188 322.777344 219.753906 C 322.847656 219.820312 322.863281 219.875 322.832031 219.960938 C 322.742188 220.199219 322.652344 220.441406 322.566406 220.683594 C 321.859375 222.648438 320.976562 224.53125 319.894531 226.316406 C 319.679688 226.671875 319.441406 227.011719 319.195312 227.34375 C 318.753906 227.949219 318.300781 228.546875 317.851562 229.144531 C 317.382812 229.769531 316.855469 230.339844 316.296875 230.882812 C 315.484375 231.671875 314.660156 232.453125 313.8125 233.199219 C 313.480469 233.496094 313.136719 233.777344 312.789062 234.054688 C 312.402344 234.359375 311.957031 234.578125 311.527344 234.820312 C 311.417969 234.882812 311.292969 234.933594 311.199219 235.015625 C 311.042969 235.15625 310.859375 235.214844 310.667969 235.257812 C 310.402344 235.320312 310.128906 235.367188 309.855469 235.417969 " fill-opacity="1" fill-rule="nonzero"/></g></g></g></g><g clip-path="url(#2103d91177)"><g clip-path="url(#218b7e88dc)"><g clip-path="url(#bd51c0e113)"><g clip-path="url(#d4eac6f62a)"><path fill="#fdf8e5" d="M 288.824219 233.964844 C 288.730469 233.9375 288.664062 233.863281 288.589844 233.804688 C 287.5 232.988281 286.46875 232.101562 285.445312 231.203125 C 284.839844 230.671875 284.226562 230.144531 283.609375 229.617188 C 282.199219 228.417969 280.855469 227.144531 279.515625 225.859375 C 278.683594 225.0625 278.015625 224.140625 277.488281 223.113281 C 277.355469 222.847656 277.222656 222.585938 277.089844 222.320312 C 277.039062 222.226562 277.035156 222.136719 277.0625 222.035156 C 277.171875 221.597656 277.304688 221.160156 277.523438 220.761719 C 277.691406 220.449219 277.867188 220.140625 278.046875 219.832031 C 278.109375 219.722656 278.191406 219.625 278.261719 219.515625 C 278.316406 219.433594 278.382812 219.390625 278.484375 219.425781 C 278.625 219.46875 278.773438 219.496094 278.910156 219.546875 C 279.441406 219.738281 279.933594 220.003906 280.40625 220.3125 C 281.636719 221.117188 282.660156 222.128906 283.523438 223.308594 C 284.214844 224.257812 284.886719 225.21875 285.519531 226.207031 C 285.84375 226.714844 286.167969 227.21875 286.480469 227.734375 C 286.753906 228.191406 287.007812 228.660156 287.253906 229.132812 C 287.601562 229.808594 287.898438 230.507812 288.15625 231.222656 C 288.460938 232.070312 288.703125 232.929688 288.847656 233.820312 C 288.855469 233.867188 288.875 233.917969 288.824219 233.964844 " fill-opacity="1" fill-rule="nonzero"/></g></g></g></g><g clip-path="url(#73c8ef1192)"><g clip-path="url(#31ad95ab9e)"><g clip-path="url(#c565fb4957)"><g clip-path="url(#c1501db1dc)"><path fill="#4d3926" d="M 292.890625 215.621094 C 292.984375 215.847656 293.109375 216.0625 293.234375 216.273438 C 293.59375 216.890625 294 217.472656 294.488281 217.992188 C 294.859375 218.386719 295.261719 218.753906 295.671875 219.105469 C 296.441406 219.769531 297.242188 220.398438 298.066406 220.996094 C 298.382812 221.226562 298.699219 221.464844 299.015625 221.695312 C 299.273438 221.882812 299.554688 222.027344 299.84375 222.15625 C 299.949219 222.203125 300.03125 222.1875 300.109375 222.109375 C 300.128906 222.089844 300.15625 222.074219 300.179688 222.054688 C 300.753906 221.574219 301.328125 221.09375 301.875 220.582031 C 302.480469 220.015625 303.070312 219.433594 303.667969 218.863281 C 304.699219 217.882812 305.550781 216.765625 306.210938 215.503906 C 306.414062 215.121094 306.503906 214.710938 306.488281 214.277344 C 306.476562 213.960938 306.421875 213.648438 306.238281 213.378906 C 305.792969 212.71875 305.207031 212.246094 304.433594 212.011719 C 304.203125 211.941406 303.96875 211.933594 303.734375 211.980469 C 303.261719 212.078125 302.839844 212.285156 302.460938 212.578125 C 301.804688 213.085938 301.25 213.675781 300.875 214.425781 C 300.816406 214.539062 300.769531 214.660156 300.71875 214.777344 C 300.589844 215.066406 300.320312 215.222656 300.003906 215.191406 C 299.746094 215.164062 299.574219 215.015625 299.453125 214.792969 C 299.316406 214.542969 299.175781 214.292969 298.996094 214.070312 C 298.476562 213.445312 297.902344 212.875 297.25 212.394531 C 296.742188 212.019531 296.183594 211.757812 295.585938 211.574219 C 295.269531 211.476562 294.949219 211.425781 294.621094 211.441406 C 293.785156 211.472656 293.15625 211.847656 292.746094 212.582031 C 292.585938 212.875 292.519531 213.191406 292.492188 213.519531 C 292.433594 214.253906 292.605469 214.949219 292.890625 215.621094 Z M 300.003906 213.074219 C 300.09375 213.027344 300.132812 212.941406 300.183594 212.871094 C 300.652344 212.265625 301.1875 211.734375 301.820312 211.300781 C 302.328125 210.949219 302.882812 210.707031 303.496094 210.589844 C 303.949219 210.503906 304.398438 210.53125 304.839844 210.664062 C 305.902344 210.980469 306.730469 211.625 307.359375 212.527344 C 307.703125 213.027344 307.863281 213.59375 307.886719 214.199219 C 307.910156 214.738281 307.828125 215.261719 307.625 215.765625 C 307.539062 215.984375 307.429688 216.195312 307.316406 216.402344 C 306.636719 217.617188 305.820312 218.726562 304.816406 219.683594 C 304.066406 220.398438 303.351562 221.148438 302.574219 221.832031 C 302.058594 222.289062 301.53125 222.734375 301.007812 223.179688 C 300.886719 223.28125 300.753906 223.367188 300.625 223.457031 C 300.382812 223.625 300.113281 223.664062 299.832031 223.613281 C 299.6875 223.585938 299.546875 223.539062 299.410156 223.484375 C 299.023438 223.332031 298.648438 223.152344 298.308594 222.910156 C 296.910156 221.898438 295.527344 220.867188 294.242188 219.710938 C 293.363281 218.917969 292.625 218.011719 292.023438 216.992188 C 291.574219 216.226562 291.257812 215.414062 291.128906 214.535156 C 291.042969 213.941406 291.046875 213.351562 291.191406 212.769531 C 291.488281 211.566406 292.222656 210.726562 293.371094 210.261719 C 293.957031 210.027344 294.574219 209.976562 295.203125 210.058594 C 295.734375 210.128906 296.242188 210.28125 296.738281 210.492188 C 297.507812 210.820312 298.1875 211.289062 298.808594 211.847656 C 299.175781 212.179688 299.519531 212.53125 299.84375 212.902344 C 299.898438 212.960938 299.953125 213.015625 300.003906 213.074219 " fill-opacity="1" fill-rule="nonzero"/></g></g></g></g><g clip-path="url(#b2f01d3bf7)"><g clip-path="url(#74818b1d1d)"><g clip-path="url(#265f8bd6c2)"><g clip-path="url(#a0b19d73c9)"><path fill="#4d3926" d="M 294.097656 226.886719 C 294.582031 227.910156 294.855469 228.886719 295.046875 229.886719 C 295.089844 230.109375 295.109375 230.335938 295.085938 230.5625 C 295.0625 230.78125 294.996094 230.984375 294.832031 231.148438 C 294.652344 231.324219 294.425781 231.355469 294.210938 231.230469 C 294.082031 231.152344 293.980469 231.046875 293.910156 230.914062 C 293.828125 230.761719 293.769531 230.609375 293.734375 230.441406 C 293.628906 229.929688 293.523438 229.417969 293.375 228.917969 C 293.210938 228.367188 293.023438 227.828125 292.757812 227.320312 C 292.570312 226.949219 292.398438 226.574219 292.191406 226.210938 C 291.808594 225.539062 291.339844 224.933594 290.8125 224.371094 C 290.742188 224.292969 290.664062 224.214844 290.589844 224.136719 C 290.34375 223.875 290.066406 223.660156 289.746094 223.496094 C 289.640625 223.441406 289.535156 223.382812 289.445312 223.308594 C 289.1875 223.09375 289.125 222.738281 289.277344 222.453125 C 289.429688 222.164062 289.761719 222.023438 290.082031 222.113281 C 290.148438 222.132812 290.214844 222.160156 290.273438 222.191406 C 290.71875 222.414062 291.125 222.6875 291.476562 223.042969 C 292.199219 223.761719 292.84375 224.542969 293.359375 225.425781 C 293.652344 225.929688 293.902344 226.453125 294.097656 226.886719 " fill-opacity="1" fill-rule="nonzero"/></g></g></g></g><g clip-path="url(#77aab53188)"><g clip-path="url(#9bad573327)"><g clip-path="url(#1e755a57b6)"><g clip-path="url(#67f7d49473)"><path fill="#4d3926" d="M 294.117188 234.332031 C 294.097656 234.285156 294.078125 234.242188 294.066406 234.195312 C 293.964844 233.824219 293.855469 233.457031 293.761719 233.082031 C 293.695312 232.804688 293.765625 232.550781 293.988281 232.359375 C 294.355469 232.042969 294.921875 232.183594 295.082031 232.640625 C 295.210938 233.011719 295.316406 233.390625 295.382812 233.78125 C 295.410156 233.929688 295.414062 234.074219 295.398438 234.222656 C 295.375 234.402344 295.316406 234.566406 295.199219 234.707031 C 295 234.945312 294.714844 234.984375 294.464844 234.800781 C 294.304688 234.679688 294.1875 234.519531 294.117188 234.332031 " fill-opacity="1" fill-rule="nonzero"/></g></g></g></g><g clip-path="url(#c2691f1c86)"><g clip-path="url(#f9666bcd50)"><g clip-path="url(#8ad630a0e3)"><g clip-path="url(#d8d6f6ab79)"><path fill="#4d3926" d="M 284.367188 210.046875 C 284.445312 210.246094 284.484375 210.425781 284.441406 210.617188 C 284.359375 210.988281 284.023438 211.1875 283.65625 211.085938 C 283.550781 211.058594 283.453125 211.007812 283.371094 210.9375 C 283.296875 210.871094 283.222656 210.804688 283.164062 210.726562 C 282.886719 210.355469 282.53125 210.085938 282.121094 209.875 C 281.796875 209.710938 281.480469 209.527344 281.15625 209.363281 C 280.78125 209.167969 280.394531 208.992188 279.984375 208.882812 C 279.753906 208.820312 279.535156 208.726562 279.335938 208.601562 C 279.15625 208.484375 279.027344 208.328125 278.988281 208.109375 C 278.902344 207.605469 279.34375 207.1875 279.839844 207.3125 C 279.878906 207.324219 279.917969 207.332031 279.949219 207.351562 C 280.203125 207.496094 280.480469 207.5625 280.75 207.65625 C 281.03125 207.746094 281.300781 207.871094 281.566406 208 C 282.078125 208.25 282.582031 208.523438 283.078125 208.808594 C 283.554688 209.082031 283.957031 209.433594 284.269531 209.890625 C 284.304688 209.949219 284.339844 210.007812 284.367188 210.046875 " fill-opacity="1" fill-rule="nonzero"/></g></g></g></g><g clip-path="url(#ff73e357ed)"><g clip-path="url(#fbd11cfef7)"><g clip-path="url(#181c8eb0a5)"><g clip-path="url(#825ba1b906)"><path fill="#4d3926" d="M 284.199219 212.265625 C 284.15625 212.164062 284.101562 212.070312 284.070312 211.964844 C 283.898438 211.359375 284.417969 210.964844 284.851562 211.054688 C 285.023438 211.09375 285.167969 211.171875 285.269531 211.3125 C 285.457031 211.5625 285.574219 211.84375 285.601562 212.15625 C 285.621094 212.402344 285.550781 212.621094 285.371094 212.800781 C 285.140625 213.035156 284.828125 213.058594 284.570312 212.855469 C 284.453125 212.761719 284.363281 212.644531 284.300781 212.507812 C 284.261719 212.429688 284.230469 212.347656 284.195312 212.265625 C 284.195312 212.265625 284.195312 212.265625 284.199219 212.265625 " fill-opacity="1" fill-rule="nonzero"/></g></g></g></g><g clip-path="url(#1137f392d4)"><g clip-path="url(#fea6adc243)"><g clip-path="url(#29251e221d)"><g clip-path="url(#e3b289bd91)"><path fill="#ef6f80" d="M 292.890625 215.621094 C 292.605469 214.949219 292.433594 214.253906 292.492188 213.519531 C 292.519531 213.191406 292.585938 212.875 292.746094 212.582031 C 293.15625 211.847656 293.785156 211.472656 294.621094 211.441406 C 294.949219 211.425781 295.269531 211.476562 295.585938 211.574219 C 296.183594 211.757812 296.742188 212.019531 297.25 212.394531 C 297.902344 212.875 298.476562 213.445312 298.996094 214.070312 C 299.175781 214.292969 299.316406 214.542969 299.453125 214.792969 C 299.574219 215.015625 299.746094 215.164062 300.003906 215.191406 C 300.320312 215.222656 300.589844 215.066406 300.71875 214.777344 C 300.769531 214.660156 300.816406 214.539062 300.875 214.425781 C 301.25 213.675781 301.804688 213.085938 302.460938 212.578125 C 302.839844 212.285156 303.261719 212.078125 303.734375 211.980469 C 303.96875 211.933594 304.203125 211.941406 304.433594 212.011719 C 305.207031 212.246094 305.792969 212.71875 306.238281 213.378906 C 306.421875 213.648438 306.476562 213.960938 306.488281 214.277344 C 306.503906 214.710938 306.414062 215.121094 306.210938 215.503906 C 305.550781 216.765625 304.699219 217.882812 303.667969 218.863281 C 303.070312 219.433594 302.480469 220.015625 301.875 220.582031 C 301.328125 221.09375 300.753906 221.574219 300.179688 222.054688 C 300.15625 222.074219 300.128906 222.089844 300.109375 222.109375 C 300.03125 222.1875 299.949219 222.203125 299.84375 222.15625 C 299.554688 222.027344 299.273438 221.882812 299.015625 221.695312 C 298.699219 221.464844 298.382812 221.226562 298.066406 220.996094 C 297.242188 220.398438 296.441406 219.769531 295.671875 219.105469 C 295.261719 218.753906 294.859375 218.386719 294.488281 217.992188 C 294 217.472656 293.59375 216.890625 293.234375 216.273438 C 293.109375 216.0625 292.984375 215.847656 292.890625 215.621094 " fill-opacity="1" fill-rule="nonzero"/></g></g></g></g></svg>