<svg xmlns="http://www.w3.org/2000/svg" xmlns:xlink="http://www.w3.org/1999/xlink" width="800" zoomAndPan="magnify" viewBox="0 0 600 337.499995" height="450" preserveAspectRatio="xMidYMid meet" version="1.0"><defs><filter x="0%" y="0%" width="100%" height="100%" id="4fd810edca"><feColorMatrix values="0 0 0 0 1 0 0 0 0 1 0 0 0 0 1 0 0 0 1 0" color-interpolation-filters="sRGB"/></filter><clipPath id="64e454ff4c"><path d="M 0.445312 0 L 599.554688 0 L 599.554688 337 L 0.445312 337 Z M 0.445312 0 " clip-rule="nonzero"/></clipPath><clipPath id="765e4c98c5"><path d="M 264 0 L 599.554688 0 L 599.554688 337 L 264 337 Z M 264 0 " clip-rule="nonzero"/></clipPath><mask id="684714eaf1"><g filter="url(#4fd810edca)"><rect x="-60" width="720" fill="#000000" y="-33.75" height="404.999994" fill-opacity="0.2667"/></g></mask><clipPath id="266ec64934"><path d="M 0.621094 0 L 335.554688 0 L 335.554688 337 L 0.621094 337 Z M 0.621094 0 " clip-rule="nonzero"/></clipPath><clipPath id="274d13c594"><rect x="0" width="336" y="0" height="337"/></clipPath><clipPath id="b563beb616"><path d="M 264 80.167969 L 390.917969 80.167969 L 390.917969 96 L 264 96 Z M 264 80.167969 " clip-rule="nonzero"/></clipPath><clipPath id="51da979cd0"><path d="M 264 241 L 390.917969 241 L 390.917969 256.90625 L 264 256.90625 Z M 264 241 " clip-rule="nonzero"/></clipPath><clipPath id="5c48d2b681"><path d="M 264 80.167969 L 293 80.167969 L 293 96 L 264 96 Z M 264 80.167969 " clip-rule="nonzero"/></clipPath><clipPath id="170ecde5ab"><path d="M 214 196 L 332 196 L 332 256.90625 L 214 256.90625 Z M 214 196 " clip-rule="nonzero"/></clipPath><clipPath id="b798458599"><path d="M 214 196 L 306 196 L 306 256.90625 L 214 256.90625 Z M 214 196 " clip-rule="nonzero"/></clipPath></defs><g clip-path="url(#64e454ff4c)"><path fill="#ffffff" d="M 0.445312 0 L 599.554688 0 L 599.554688 344.488281 L 0.445312 344.488281 Z M 0.445312 0 " fill-opacity="1" fill-rule="nonzero"/><path fill="#ffffff" d="M 0.445312 0 L 599.554688 0 L 599.554688 337 L 0.445312 337 Z M 0.445312 0 " fill-opacity="1" fill-rule="nonzero"/><path fill="#ced89e" d="M 0.445312 0 L 599.554688 0 L 599.554688 337 L 0.445312 337 Z M 0.445312 0 " fill-opacity="1" fill-rule="nonzero"/></g><g clip-path="url(#765e4c98c5)"><g mask="url(#684714eaf1)"><g transform="matrix(1, 0, 0, 1, 264, 0)"><g clip-path="url(#274d13c594)"><g clip-path="url(#266ec64934)"><path fill="#ffffff" d="M 336 155.542969 C 336.007812 155.417969 335.984375 155.300781 335.945312 155.191406 C 335.941406 155.183594 335.945312 155.175781 335.941406 155.171875 L 302.507812 67.289062 C 302.503906 67.273438 302.492188 67.269531 302.488281 67.257812 C 302.429688 67.128906 302.355469 67.003906 302.238281 66.914062 L 228.710938 8.371094 C 228.597656 8.277344 228.457031 8.210938 228.300781 8.183594 C 228.289062 8.179688 228.277344 8.179688 228.269531 8.179688 L 168.253906 0.0078125 C 168.136719 -0.00390625 168.011719 0.00390625 167.894531 0.0351562 L 139.289062 8.171875 L 138.476562 8.171875 C 138.3125 8.171875 138.160156 8.214844 138.023438 8.296875 C 138.023438 8.296875 138.023438 8.296875 138.019531 8.296875 L 137.292969 8.738281 L 66.890625 28.765625 C 66.867188 28.773438 66.851562 28.792969 66.832031 28.800781 C 66.738281 28.835938 66.652344 28.886719 66.574219 28.953125 C 66.542969 28.980469 66.507812 29 66.480469 29.03125 C 66.464844 29.050781 66.445312 29.054688 66.433594 29.074219 L 4.777344 109.1875 C 4.757812 109.210938 4.753906 109.238281 4.738281 109.265625 C 4.714844 109.300781 4.691406 109.332031 4.675781 109.371094 C 4.664062 109.394531 4.660156 109.421875 4.652344 109.445312 C 4.636719 109.496094 4.625 109.542969 4.621094 109.589844 C 4.613281 109.621094 4.601562 109.644531 4.597656 109.675781 L 0.714844 180.128906 C 0.710938 180.191406 0.714844 180.253906 0.726562 180.316406 L 6.410156 215.949219 C 6.417969 215.996094 6.441406 216.035156 6.457031 216.082031 C 6.464844 216.113281 6.460938 216.144531 6.476562 216.171875 C 6.476562 216.179688 6.484375 216.183594 6.488281 216.191406 C 6.492188 216.203125 6.492188 216.210938 6.496094 216.222656 L 35.203125 270.945312 C 35.25 271.039062 35.316406 271.125 35.398438 271.195312 L 69.066406 300.988281 C 69.117188 301.050781 69.179688 301.101562 69.246094 301.148438 L 108.175781 327.410156 C 108.285156 327.480469 108.40625 327.527344 108.535156 327.550781 L 169.609375 337.054688 L 169.621094 337.058594 C 169.625 337.058594 169.625 337.058594 169.632812 337.058594 C 169.675781 337.066406 169.722656 337.070312 169.765625 337.070312 C 169.765625 337.070312 169.765625 337.070312 169.769531 337.070312 C 169.828125 337.070312 169.890625 337.0625 169.949219 337.050781 C 169.949219 337.050781 169.949219 337.050781 169.953125 337.046875 C 169.953125 337.046875 169.957031 337.046875 169.957031 337.046875 C 169.957031 337.046875 169.960938 337.046875 169.960938 337.046875 C 169.964844 337.042969 169.972656 337.042969 169.976562 337.042969 C 169.980469 337.042969 169.984375 337.042969 169.980469 337.042969 C 169.980469 337.042969 169.984375 337.042969 169.984375 337.042969 L 169.988281 337.039062 C 169.992188 337.039062 169.992188 337.039062 169.992188 337.039062 C 169.992188 337.039062 169.992188 337.039062 169.996094 337.039062 C 169.996094 337.039062 169.996094 337.035156 170 337.035156 C 170.003906 337.035156 170.003906 337.035156 170.007812 337.03125 L 269.8125 307.835938 C 269.851562 307.828125 269.871094 307.789062 269.90625 307.773438 C 270.003906 307.730469 270.078125 307.675781 270.152344 307.601562 C 270.1875 307.570312 270.238281 307.5625 270.265625 307.523438 L 330.984375 227.371094 C 331.082031 227.242188 331.125 227.097656 331.144531 226.945312 C 331.144531 226.929688 331.160156 226.917969 331.164062 226.898438 Z M 329.453125 226.140625 L 303.195312 232.789062 L 333.894531 160.621094 Z M 222.894531 215.917969 L 126.128906 181.835938 L 199.109375 129.230469 Z M 199.113281 126.390625 L 126.339844 78.742188 L 220.960938 51.644531 Z M 198.074219 127.8125 L 125.128906 180.390625 L 125.128906 80.054688 Z M 123.371094 180.695312 L 40.585938 140.023438 L 123.371094 80.148438 Z M 141.300781 278.199219 L 62.382812 233.9375 L 123.660156 183.730469 Z M 125.394531 183.445312 L 222.363281 217.597656 L 143.113281 278.320312 Z M 223.425781 219 L 228.539062 291.609375 L 144.695312 279.320312 Z M 224.554688 215.308594 L 200.8125 128.78125 L 281.546875 136.855469 Z M 282.671875 138.296875 L 300.578125 232.933594 L 225.691406 216.734375 Z M 302.011719 231.066406 L 284.3125 137.503906 L 333.949219 155.988281 Z M 282.796875 134.105469 L 224.285156 51.703125 L 300.601562 68.269531 Z M 281.324219 135.066406 L 200.769531 127.007812 L 222.589844 52.347656 Z M 125.402344 77.179688 L 139.109375 10.34375 L 219.824219 50.140625 Z M 123.589844 77.277344 L 61.675781 56.554688 L 137.210938 10.84375 Z M 122.347656 78.714844 L 40.320312 138.046875 L 60.214844 57.921875 Z M 38.390625 138.523438 L 6.753906 109.703125 L 57.992188 59.582031 Z M 58.808594 56.324219 L 13.796875 100.355469 L 65.078125 33.722656 Z M 37.835938 140.402344 L 8.082031 211.597656 L 6.390625 111.746094 Z M 38.648438 143.015625 L 59.613281 232.730469 L 8.449219 215.28125 Z M 40.164062 141.777344 L 122.632812 182.292969 L 61.363281 232.5 Z M 140.226562 279.617188 L 70.460938 299.285156 L 61.9375 235.707031 Z M 142.039062 280.933594 L 168.035156 334.636719 L 72.613281 300.507812 Z M 170.097656 334.855469 L 144.023438 281 L 227.230469 293.199219 Z M 230.25 290.890625 L 225.148438 218.414062 L 299.714844 234.546875 Z M 299.417969 237.050781 L 269.097656 305.886719 L 231.257812 292.339844 Z M 302.320312 234.824219 L 328.074219 228.308594 L 273.398438 300.484375 Z M 284.21875 135.589844 L 301.832031 70.445312 L 333.609375 153.980469 Z M 228.804688 10.695312 L 298.191406 65.941406 L 223.238281 49.671875 Z M 168.199219 1.777344 L 215.167969 8.171875 L 145.722656 8.171875 Z M 227.140625 9.929688 L 221.554688 49.035156 L 142.25 9.929688 Z M 61.03125 54.886719 L 67.847656 30.324219 L 131.585938 12.191406 Z M 2.472656 180.132812 L 5.007812 134.132812 L 6.183594 203.398438 Z M 36.683594 269.984375 L 13.390625 225.574219 L 64.070312 294.226562 Z M 9.652344 217.550781 L 60.03125 234.730469 L 68.398438 297.128906 Z M 75.996094 303.585938 L 160.730469 333.890625 L 108.992188 325.835938 Z M 229.632812 293.625 L 266.722656 306.910156 L 174.355469 333.929688 Z M 229.632812 293.625 " fill-opacity="1" fill-rule="nonzero"/></g></g></g></g></g><path fill="#ffc34c" d="M 269.441406 95.367188 L 384.761719 95.367188 L 384.761719 241.625 L 269.441406 241.625 Z M 269.441406 95.367188 " fill-opacity="1" fill-rule="nonzero"/><path fill="#ffd551" d="M 377.84375 237.003906 C 376.570312 237.003906 375.539062 235.972656 375.539062 234.695312 L 375.539062 188.722656 C 375.539062 187.445312 376.570312 186.414062 377.84375 186.414062 C 379.117188 186.414062 380.152344 187.445312 380.152344 188.722656 L 380.152344 234.695312 C 380.152344 235.972656 379.117188 237.003906 377.84375 237.003906 Z M 377.84375 237.003906 " fill-opacity="1" fill-rule="nonzero"/><path fill="#f9bb32" d="M 269.441406 95.367188 L 292.503906 95.367188 L 292.503906 241.625 L 269.441406 241.625 Z M 269.441406 95.367188 " fill-opacity="1" fill-rule="nonzero"/><path fill="#ffdf74" d="M 373.230469 165.03125 C 373.230469 166.546875 373.15625 168.054688 373.007812 169.558594 C 372.859375 171.066406 372.640625 172.558594 372.34375 174.042969 C 372.050781 175.527344 371.683594 176.992188 371.246094 178.441406 C 370.804688 179.886719 370.296875 181.308594 369.71875 182.707031 C 369.140625 184.105469 368.496094 185.46875 367.785156 186.804688 C 367.070312 188.136719 366.296875 189.433594 365.457031 190.691406 C 364.617188 191.949219 363.71875 193.164062 362.761719 194.332031 C 361.800781 195.5 360.789062 196.621094 359.71875 197.691406 C 358.652344 198.761719 357.535156 199.773438 356.367188 200.734375 C 355.199219 201.695312 353.984375 202.59375 352.730469 203.433594 C 351.472656 204.273438 350.179688 205.050781 348.847656 205.765625 C 347.515625 206.476562 346.152344 207.125 344.753906 207.703125 C 343.359375 208.28125 341.9375 208.789062 340.492188 209.230469 C 339.046875 209.667969 337.582031 210.035156 336.101562 210.332031 C 334.621094 210.625 333.128906 210.847656 331.625 210.996094 C 330.121094 211.144531 328.613281 211.21875 327.101562 211.21875 C 325.589844 211.21875 324.085938 211.144531 322.582031 210.996094 C 321.078125 210.847656 319.585938 210.625 318.101562 210.332031 C 316.621094 210.035156 315.15625 209.667969 313.710938 209.230469 C 312.265625 208.789062 310.84375 208.28125 309.449219 207.703125 C 308.054688 207.125 306.691406 206.476562 305.355469 205.765625 C 304.023438 205.050781 302.730469 204.273438 301.472656 203.433594 C 300.21875 202.59375 299.007812 201.695312 297.839844 200.734375 C 296.671875 199.773438 295.550781 198.761719 294.484375 197.691406 C 293.414062 196.621094 292.402344 195.5 291.445312 194.332031 C 290.484375 193.164062 289.585938 191.949219 288.746094 190.691406 C 287.90625 189.433594 287.132812 188.136719 286.421875 186.804688 C 285.707031 185.46875 285.0625 184.105469 284.484375 182.707031 C 283.90625 181.308594 283.398438 179.886719 282.960938 178.441406 C 282.519531 176.992188 282.15625 175.527344 281.859375 174.042969 C 281.566406 172.558594 281.34375 171.066406 281.195312 169.558594 C 281.046875 168.054688 280.972656 166.546875 280.972656 165.03125 C 280.972656 163.519531 281.046875 162.011719 281.195312 160.503906 C 281.34375 159 281.566406 157.503906 281.859375 156.023438 C 282.15625 154.539062 282.519531 153.074219 282.960938 151.625 C 283.398438 150.179688 283.90625 148.753906 284.484375 147.359375 C 285.0625 145.960938 285.707031 144.59375 286.421875 143.261719 C 287.132812 141.925781 287.90625 140.628906 288.746094 139.371094 C 289.585938 138.113281 290.484375 136.902344 291.445312 135.730469 C 292.402344 134.5625 293.414062 133.445312 294.484375 132.375 C 295.550781 131.304688 296.671875 130.289062 297.839844 129.332031 C 299.007812 128.371094 300.21875 127.46875 301.472656 126.628906 C 302.730469 125.789062 304.023438 125.011719 305.355469 124.300781 C 306.691406 123.585938 308.054688 122.941406 309.449219 122.363281 C 310.84375 121.785156 312.265625 121.273438 313.710938 120.835938 C 315.15625 120.394531 316.621094 120.027344 318.101562 119.734375 C 319.585938 119.4375 321.078125 119.21875 322.582031 119.070312 C 324.085938 118.921875 325.589844 118.847656 327.101562 118.847656 C 328.613281 118.847656 330.121094 118.921875 331.625 119.070312 C 333.128906 119.21875 334.621094 119.4375 336.101562 119.734375 C 337.582031 120.027344 339.046875 120.394531 340.492188 120.835938 C 341.9375 121.273438 343.359375 121.785156 344.753906 122.363281 C 346.152344 122.941406 347.515625 123.585938 348.847656 124.300781 C 350.179688 125.011719 351.472656 125.789062 352.730469 126.628906 C 353.984375 127.46875 355.199219 128.371094 356.367188 129.332031 C 357.535156 130.289062 358.652344 131.304688 359.71875 132.375 C 360.789062 133.445312 361.800781 134.5625 362.761719 135.730469 C 363.71875 136.902344 364.617188 138.113281 365.457031 139.371094 C 366.296875 140.628906 367.070312 141.925781 367.785156 143.261719 C 368.496094 144.59375 369.140625 145.960938 369.71875 147.359375 C 370.296875 148.753906 370.804688 150.179688 371.246094 151.625 C 371.683594 153.074219 372.050781 154.539062 372.34375 156.023438 C 372.640625 157.503906 372.859375 159 373.007812 160.503906 C 373.15625 162.011719 373.230469 163.519531 373.230469 165.03125 Z M 373.230469 165.03125 " fill-opacity="1" fill-rule="nonzero"/><path fill="#ffd551" d="M 292.503906 134.488281 C 285.328125 142.628906 280.972656 153.320312 280.972656 165.03125 C 280.972656 176.742188 285.328125 187.4375 292.503906 195.578125 Z M 292.503906 134.488281 " fill-opacity="1" fill-rule="nonzero"/><g clip-path="url(#b563beb616)"><path fill="#db9c2e" d="M 386.195312 80.171875 L 268.007812 80.171875 C 265.140625 80.171875 263.285156 83.199219 264.578125 85.757812 L 269.441406 95.367188 L 384.761719 95.367188 L 389.625 85.757812 C 390.917969 83.199219 389.0625 80.171875 386.195312 80.171875 Z M 386.195312 80.171875 " fill-opacity="1" fill-rule="nonzero"/></g><g clip-path="url(#51da979cd0)"><path fill="#db9c2e" d="M 268.007812 256.820312 L 386.195312 256.820312 C 389.0625 256.820312 390.917969 253.792969 389.625 251.230469 L 384.761719 241.625 L 269.441406 241.625 L 264.578125 251.230469 C 263.285156 253.792969 265.140625 256.820312 268.007812 256.820312 Z M 268.007812 256.820312 " fill-opacity="1" fill-rule="nonzero"/></g><path fill="#ccc033" d="M 253.347656 158.527344 L 260.183594 158.527344 L 260.183594 240.253906 L 253.347656 240.253906 Z M 253.347656 158.527344 " fill-opacity="1" fill-rule="nonzero"/><path fill="#99af17" d="M 253.347656 158.527344 L 257.695312 158.527344 L 257.695312 240.253906 L 253.347656 240.253906 Z M 253.347656 158.527344 " fill-opacity="1" fill-rule="nonzero"/><path fill="#ccc033" d="M 260.132812 180.367188 C 297.8125 176.964844 294.675781 147.960938 292.75 138.902344 C 292.425781 137.371094 290.445312 136.734375 288.382812 137.496094 C 275.929688 142.089844 237.253906 158.511719 256.273438 179.171875 C 257.105469 180.074219 258.523438 180.511719 260.132812 180.367188 Z M 260.132812 180.367188 " fill-opacity="1" fill-rule="nonzero"/><path fill="#99af17" d="M 293.195312 141.320312 C 293.054688 140.410156 292.898438 139.597656 292.75 138.902344 C 292.425781 137.371094 290.445312 136.734375 288.382812 137.496094 C 282.726562 139.582031 271.660156 144.109375 263.046875 150.367188 C 262.890625 150.480469 262.734375 150.59375 262.582031 150.710938 C 262.558594 150.726562 262.539062 150.742188 262.519531 150.757812 C 262.382812 150.855469 262.25 150.957031 262.117188 151.058594 C 262.089844 151.078125 262.058594 151.101562 262.03125 151.121094 C 261.90625 151.21875 261.785156 151.3125 261.660156 151.40625 C 261.625 151.433594 261.59375 151.460938 261.558594 151.488281 C 261.441406 151.578125 261.324219 151.671875 261.207031 151.761719 C 261.171875 151.792969 261.136719 151.820312 261.101562 151.847656 C 260.984375 151.941406 260.867188 152.035156 260.753906 152.125 C 260.71875 152.152344 260.6875 152.183594 260.652344 152.207031 C 260.535156 152.304688 260.417969 152.402344 260.304688 152.496094 C 260.273438 152.519531 260.242188 152.546875 260.214844 152.570312 C 260.089844 152.675781 259.96875 152.777344 259.851562 152.878906 C 259.828125 152.898438 259.804688 152.917969 259.78125 152.9375 C 259.640625 153.054688 259.503906 153.175781 259.367188 153.296875 C 259.363281 153.296875 259.363281 153.300781 259.359375 153.304688 C 258.929688 153.679688 258.511719 154.0625 258.105469 154.453125 C 258.089844 154.46875 258.070312 154.484375 258.054688 154.5 C 257.941406 154.609375 257.828125 154.71875 257.714844 154.828125 C 257.6875 154.859375 257.65625 154.886719 257.628906 154.914062 C 257.527344 155.011719 257.429688 155.113281 257.332031 155.210938 C 257.296875 155.246094 257.265625 155.28125 257.230469 155.316406 C 257.136719 155.410156 257.046875 155.503906 256.957031 155.597656 C 256.921875 155.636719 256.882812 155.671875 256.847656 155.710938 C 256.761719 155.804688 256.675781 155.894531 256.589844 155.988281 C 256.550781 156.027344 256.515625 156.066406 256.476562 156.109375 C 256.394531 156.199219 256.3125 156.289062 256.230469 156.382812 C 256.195312 156.421875 256.15625 156.460938 256.121094 156.503906 C 256.039062 156.597656 255.957031 156.691406 255.875 156.785156 C 255.84375 156.824219 255.808594 156.863281 255.777344 156.902344 C 255.691406 157 255.609375 157.101562 255.527344 157.199219 C 255.496094 157.234375 255.46875 157.265625 255.441406 157.300781 C 255.347656 157.414062 255.253906 157.53125 255.160156 157.648438 C 255.148438 157.664062 255.132812 157.683594 255.121094 157.699219 C 254.902344 157.972656 254.691406 158.25 254.488281 158.53125 C 254.484375 158.535156 254.484375 158.539062 254.480469 158.542969 C 254.382812 158.671875 254.292969 158.804688 254.199219 158.9375 C 254.175781 158.96875 254.15625 159.003906 254.132812 159.035156 C 254.0625 159.140625 253.988281 159.242188 253.921875 159.347656 C 253.890625 159.390625 253.867188 159.433594 253.835938 159.476562 C 253.777344 159.570312 253.714844 159.667969 253.652344 159.761719 C 253.625 159.808594 253.59375 159.855469 253.566406 159.902344 C 253.507812 159.996094 253.449219 160.089844 253.398438 160.179688 C 253.367188 160.230469 253.335938 160.28125 253.308594 160.332031 C 253.253906 160.421875 253.203125 160.511719 253.152344 160.601562 C 253.121094 160.65625 253.09375 160.707031 253.066406 160.757812 C 253.015625 160.847656 252.964844 160.9375 252.917969 161.03125 C 252.890625 161.082031 252.863281 161.132812 252.835938 161.183594 C 252.789062 161.277344 252.742188 161.371094 252.695312 161.464844 C 252.671875 161.511719 252.644531 161.5625 252.621094 161.609375 C 252.574219 161.707031 252.527344 161.808594 252.484375 161.90625 C 252.460938 161.949219 252.441406 161.996094 252.417969 162.042969 C 252.371094 162.152344 252.320312 162.261719 252.273438 162.371094 C 252.261719 162.40625 252.246094 162.4375 252.230469 162.472656 C 252.109375 162.765625 251.996094 163.058594 251.890625 163.351562 C 251.882812 163.378906 251.875 163.410156 251.863281 163.4375 C 251.824219 163.554688 251.785156 163.671875 251.746094 163.789062 C 251.730469 163.835938 251.71875 163.882812 251.703125 163.929688 C 251.671875 164.03125 251.644531 164.132812 251.613281 164.234375 C 251.597656 164.285156 251.585938 164.339844 251.570312 164.394531 C 251.546875 164.488281 251.519531 164.582031 251.496094 164.675781 C 251.480469 164.734375 251.46875 164.792969 251.457031 164.851562 C 251.433594 164.941406 251.414062 165.03125 251.394531 165.125 C 251.378906 165.183594 251.371094 165.242188 251.355469 165.304688 C 251.339844 165.394531 251.324219 165.484375 251.304688 165.574219 C 251.296875 165.632812 251.285156 165.695312 251.273438 165.757812 C 251.261719 165.847656 251.246094 165.9375 251.234375 166.027344 C 251.226562 166.089844 251.21875 166.148438 251.207031 166.210938 C 251.195312 166.300781 251.1875 166.394531 251.175781 166.488281 C 251.171875 166.546875 251.164062 166.605469 251.160156 166.664062 C 251.148438 166.761719 251.144531 166.859375 251.136719 166.957031 C 251.132812 167.011719 251.128906 167.066406 251.125 167.125 C 251.117188 167.230469 251.117188 167.339844 251.113281 167.445312 C 251.109375 167.492188 251.109375 167.535156 251.105469 167.582031 C 251.101562 167.890625 251.105469 168.199219 251.125 168.511719 C 251.125 168.554688 251.128906 168.597656 251.132812 168.640625 C 251.140625 168.75 251.148438 168.863281 251.15625 168.976562 C 251.164062 169.03125 251.167969 169.089844 251.175781 169.148438 C 251.183594 169.246094 251.195312 169.34375 251.210938 169.441406 C 251.21875 169.507812 251.226562 169.570312 251.234375 169.632812 C 251.25 169.726562 251.261719 169.820312 251.277344 169.914062 C 251.289062 169.980469 251.300781 170.046875 251.3125 170.109375 C 251.332031 170.203125 251.347656 170.292969 251.367188 170.386719 C 251.378906 170.453125 251.394531 170.523438 251.410156 170.589844 C 251.429688 170.679688 251.449219 170.773438 251.472656 170.863281 C 251.488281 170.929688 251.507812 171 251.523438 171.066406 C 251.546875 171.160156 251.574219 171.25 251.597656 171.34375 C 251.617188 171.410156 251.636719 171.476562 251.65625 171.546875 C 251.683594 171.640625 251.710938 171.734375 251.742188 171.828125 C 251.765625 171.894531 251.785156 171.960938 251.808594 172.027344 C 251.839844 172.125 251.875 172.222656 251.910156 172.320312 C 251.929688 172.382812 251.953125 172.445312 251.976562 172.507812 C 252.015625 172.617188 252.058594 172.726562 252.101562 172.835938 C 252.125 172.886719 252.144531 172.9375 252.164062 172.992188 C 252.230469 173.148438 252.296875 173.304688 252.367188 173.464844 C 252.371094 173.46875 252.371094 173.472656 252.375 173.476562 C 252.449219 173.640625 252.523438 173.800781 252.605469 173.964844 C 252.628906 174.019531 252.660156 174.070312 252.683594 174.121094 C 252.738281 174.234375 252.796875 174.34375 252.855469 174.457031 C 252.890625 174.519531 252.925781 174.582031 252.960938 174.644531 C 253.015625 174.746094 253.070312 174.847656 253.125 174.945312 C 253.164062 175.015625 253.207031 175.082031 253.246094 175.152344 C 253.304688 175.246094 253.359375 175.34375 253.417969 175.441406 C 253.460938 175.511719 253.507812 175.582031 253.550781 175.652344 C 253.609375 175.75 253.671875 175.84375 253.734375 175.9375 C 253.78125 176.007812 253.828125 176.082031 253.875 176.152344 C 253.9375 176.246094 254.003906 176.34375 254.070312 176.4375 C 254.121094 176.507812 254.171875 176.582031 254.222656 176.652344 C 254.289062 176.75 254.359375 176.84375 254.429688 176.9375 C 254.480469 177.011719 254.535156 177.082031 254.585938 177.152344 C 254.660156 177.25 254.734375 177.347656 254.8125 177.445312 C 254.867188 177.515625 254.917969 177.585938 254.976562 177.65625 C 255.054688 177.757812 255.140625 177.859375 255.222656 177.960938 C 255.277344 178.027344 255.332031 178.09375 255.386719 178.160156 C 255.480469 178.273438 255.578125 178.386719 255.675781 178.496094 C 255.722656 178.550781 255.769531 178.609375 255.816406 178.664062 C 255.964844 178.832031 256.117188 179.003906 256.273438 179.171875 C 256.347656 179.25 256.425781 179.324219 256.507812 179.398438 C 256.546875 179.429688 256.585938 179.460938 256.625 179.492188 C 256.667969 179.527344 256.714844 179.558594 256.757812 179.589844 C 256.8125 179.628906 256.867188 179.667969 256.925781 179.703125 C 256.949219 179.71875 256.976562 179.734375 257 179.75 C 257.175781 179.851562 257.359375 179.949219 257.558594 180.03125 C 258.414062 180.117188 259.285156 180.191406 260.175781 180.253906 C 260.574219 180.28125 260.960938 180.273438 261.332031 180.242188 C 261.457031 180.230469 261.582031 180.21875 261.703125 180.203125 C 262.96875 180.035156 264.042969 179.527344 264.742188 178.734375 C 272.722656 169.703125 271.792969 161.507812 266.640625 154.480469 C 275.253906 148.226562 286.3125 143.699219 291.96875 141.613281 C 292.386719 141.460938 292.796875 141.363281 293.195312 141.320312 Z M 293.195312 141.320312 " fill-opacity="1" fill-rule="nonzero"/><path fill="#eacf32" d="M 253.4375 181.484375 C 208.992188 174.027344 215.34375 139.863281 218.453125 129.277344 C 218.976562 127.488281 221.386719 126.914062 223.765625 128.003906 C 238.140625 134.59375 282.589844 157.605469 258.132812 180.414062 C 257.0625 181.414062 255.339844 181.804688 253.4375 181.484375 Z M 253.4375 181.484375 " fill-opacity="1" fill-rule="nonzero"/><path fill="#ccc033" d="M 226.652344 129.359375 C 225.597656 128.851562 224.625 128.398438 223.765625 128.003906 C 221.386719 126.914062 218.976562 127.488281 218.453125 129.277344 C 215.34375 139.863281 208.992188 174.027344 253.4375 181.484375 C 255.339844 181.800781 257.0625 181.414062 258.132812 180.414062 C 259.152344 179.460938 260.050781 178.507812 260.839844 177.558594 C 222.484375 170.296875 223.777344 142.425781 226.652344 129.359375 Z M 226.652344 129.359375 " fill-opacity="1" fill-rule="nonzero"/><path fill="#fcda4f" d="M 257.203125 175.558594 C 256.542969 175.558594 255.890625 175.273438 255.433594 174.726562 L 243.746094 160.734375 C 242.929688 159.753906 243.058594 158.300781 244.035156 157.480469 C 245.015625 156.664062 246.46875 156.792969 247.285156 157.773438 L 258.972656 171.765625 C 259.789062 172.746094 259.660156 174.199219 258.679688 175.019531 C 258.25 175.378906 257.726562 175.558594 257.203125 175.558594 Z M 257.203125 175.558594 " fill-opacity="1" fill-rule="nonzero"/><path fill="#ccc033" d="M 325.511719 154.800781 L 329.613281 154.800781 L 329.613281 195.441406 L 325.511719 195.441406 Z M 325.511719 154.800781 " fill-opacity="1" fill-rule="nonzero"/><path fill="#99af17" d="M 325.511719 154.800781 L 328.117188 154.800781 L 328.117188 195.441406 L 325.511719 195.441406 Z M 325.511719 154.800781 " fill-opacity="1" fill-rule="nonzero"/><path fill="#ccc033" d="M 329.582031 167.90625 C 352.1875 165.863281 350.304688 148.460938 349.148438 143.027344 C 348.953125 142.105469 347.765625 141.726562 346.53125 142.183594 C 339.058594 144.9375 315.855469 154.792969 327.265625 167.1875 C 327.765625 167.730469 328.613281 167.992188 329.582031 167.90625 Z M 329.582031 167.90625 " fill-opacity="1" fill-rule="nonzero"/><path fill="#99af17" d="M 349.417969 144.476562 C 349.332031 143.929688 349.238281 143.441406 349.148438 143.027344 C 348.953125 142.105469 347.765625 141.726562 346.53125 142.183594 C 343.136719 143.433594 336.496094 146.152344 331.328125 149.90625 C 331.234375 149.972656 331.140625 150.042969 331.050781 150.109375 C 331.035156 150.121094 331.023438 150.128906 331.011719 150.136719 C 330.929688 150.199219 330.851562 150.257812 330.769531 150.320312 C 330.753906 150.332031 330.734375 150.34375 330.71875 150.359375 C 330.644531 150.414062 330.570312 150.472656 330.496094 150.527344 C 330.476562 150.546875 330.457031 150.5625 330.4375 150.578125 C 330.363281 150.632812 330.296875 150.6875 330.226562 150.742188 C 330.203125 150.757812 330.183594 150.777344 330.160156 150.792969 C 330.089844 150.847656 330.023438 150.902344 329.953125 150.960938 C 329.933594 150.976562 329.914062 150.992188 329.894531 151.007812 C 329.824219 151.066406 329.753906 151.125 329.683594 151.183594 C 329.664062 151.195312 329.648438 151.210938 329.628906 151.226562 C 329.554688 151.289062 329.484375 151.347656 329.410156 151.410156 C 329.398438 151.421875 329.382812 151.433594 329.371094 151.445312 C 329.285156 151.519531 329.203125 151.589844 329.121094 151.660156 C 329.121094 151.664062 329.117188 151.664062 329.117188 151.664062 C 328.859375 151.890625 328.609375 152.121094 328.363281 152.355469 C 328.355469 152.363281 328.34375 152.371094 328.335938 152.382812 C 328.265625 152.449219 328.199219 152.515625 328.128906 152.582031 C 328.113281 152.597656 328.09375 152.617188 328.078125 152.632812 C 328.019531 152.691406 327.957031 152.75 327.898438 152.808594 C 327.878906 152.832031 327.859375 152.851562 327.835938 152.871094 C 327.785156 152.929688 327.730469 152.984375 327.675781 153.042969 C 327.652344 153.0625 327.632812 153.085938 327.609375 153.109375 C 327.558594 153.164062 327.503906 153.21875 327.453125 153.273438 C 327.433594 153.300781 327.410156 153.324219 327.386719 153.347656 C 327.335938 153.402344 327.289062 153.457031 327.238281 153.511719 C 327.214844 153.535156 327.195312 153.5625 327.175781 153.585938 C 327.125 153.640625 327.074219 153.699219 327.027344 153.753906 C 327.007812 153.777344 326.984375 153.800781 326.96875 153.824219 C 326.917969 153.882812 326.867188 153.941406 326.816406 154.003906 C 326.800781 154.023438 326.78125 154.042969 326.765625 154.0625 C 326.710938 154.132812 326.652344 154.203125 326.597656 154.269531 C 326.589844 154.28125 326.582031 154.292969 326.574219 154.300781 C 326.441406 154.464844 326.316406 154.632812 326.195312 154.800781 C 326.191406 154.804688 326.191406 154.804688 326.1875 154.808594 C 326.132812 154.886719 326.074219 154.964844 326.019531 155.046875 C 326.007812 155.066406 325.996094 155.082031 325.980469 155.101562 C 325.9375 155.164062 325.894531 155.230469 325.851562 155.292969 C 325.835938 155.316406 325.820312 155.34375 325.804688 155.367188 C 325.765625 155.425781 325.730469 155.484375 325.691406 155.539062 C 325.675781 155.566406 325.65625 155.597656 325.640625 155.625 C 325.605469 155.679688 325.570312 155.734375 325.539062 155.792969 C 325.519531 155.820312 325.503906 155.851562 325.484375 155.882812 C 325.453125 155.933594 325.421875 155.988281 325.390625 156.042969 C 325.375 156.074219 325.355469 156.105469 325.339844 156.136719 C 325.308594 156.191406 325.28125 156.246094 325.25 156.300781 C 325.234375 156.332031 325.21875 156.363281 325.203125 156.394531 C 325.175781 156.449219 325.144531 156.503906 325.117188 156.558594 C 325.101562 156.589844 325.089844 156.621094 325.074219 156.648438 C 325.046875 156.707031 325.019531 156.765625 324.988281 156.824219 C 324.976562 156.851562 324.964844 156.878906 324.953125 156.90625 C 324.921875 156.972656 324.894531 157.039062 324.867188 157.105469 C 324.855469 157.125 324.847656 157.144531 324.839844 157.164062 C 324.765625 157.339844 324.699219 157.515625 324.636719 157.695312 C 324.628906 157.710938 324.625 157.726562 324.617188 157.742188 C 324.59375 157.8125 324.570312 157.886719 324.546875 157.957031 C 324.539062 157.984375 324.53125 158.011719 324.523438 158.039062 C 324.503906 158.101562 324.484375 158.160156 324.46875 158.222656 C 324.460938 158.253906 324.453125 158.285156 324.441406 158.316406 C 324.425781 158.375 324.414062 158.429688 324.398438 158.488281 C 324.390625 158.519531 324.382812 158.554688 324.375 158.589844 C 324.359375 158.644531 324.347656 158.699219 324.335938 158.753906 C 324.328125 158.789062 324.324219 158.824219 324.316406 158.863281 C 324.304688 158.914062 324.292969 158.96875 324.285156 159.023438 C 324.277344 159.0625 324.269531 159.097656 324.265625 159.132812 C 324.257812 159.1875 324.25 159.242188 324.242188 159.296875 C 324.234375 159.332031 324.230469 159.371094 324.226562 159.40625 C 324.21875 159.460938 324.214844 159.515625 324.207031 159.574219 C 324.203125 159.609375 324.199219 159.644531 324.195312 159.679688 C 324.191406 159.738281 324.1875 159.796875 324.183594 159.851562 C 324.179688 159.886719 324.175781 159.921875 324.175781 159.953125 C 324.171875 160.019531 324.171875 160.082031 324.167969 160.148438 C 324.167969 160.175781 324.164062 160.203125 324.164062 160.230469 C 324.160156 160.414062 324.164062 160.597656 324.175781 160.785156 C 324.175781 160.8125 324.179688 160.839844 324.179688 160.863281 C 324.183594 160.929688 324.191406 161 324.195312 161.066406 C 324.199219 161.101562 324.203125 161.132812 324.207031 161.167969 C 324.210938 161.226562 324.21875 161.285156 324.226562 161.347656 C 324.230469 161.382812 324.238281 161.421875 324.242188 161.460938 C 324.25 161.515625 324.257812 161.570312 324.265625 161.628906 C 324.273438 161.667969 324.28125 161.707031 324.289062 161.746094 C 324.296875 161.800781 324.308594 161.855469 324.320312 161.910156 C 324.328125 161.953125 324.335938 161.992188 324.34375 162.03125 C 324.359375 162.085938 324.371094 162.144531 324.382812 162.199219 C 324.394531 162.238281 324.402344 162.277344 324.414062 162.320312 C 324.425781 162.375 324.441406 162.429688 324.457031 162.484375 C 324.46875 162.523438 324.480469 162.566406 324.492188 162.605469 C 324.507812 162.664062 324.527344 162.71875 324.542969 162.777344 C 324.558594 162.816406 324.570312 162.855469 324.582031 162.894531 C 324.601562 162.953125 324.625 163.011719 324.644531 163.070312 C 324.65625 163.109375 324.671875 163.148438 324.683594 163.183594 C 324.710938 163.25 324.734375 163.3125 324.761719 163.378906 C 324.773438 163.410156 324.785156 163.441406 324.796875 163.472656 C 324.835938 163.566406 324.878906 163.664062 324.921875 163.757812 C 324.921875 163.761719 324.921875 163.761719 324.925781 163.765625 C 324.96875 163.863281 325.015625 163.960938 325.0625 164.058594 C 325.078125 164.089844 325.09375 164.121094 325.109375 164.152344 C 325.144531 164.21875 325.179688 164.285156 325.214844 164.351562 C 325.234375 164.390625 325.253906 164.429688 325.277344 164.464844 C 325.308594 164.527344 325.339844 164.585938 325.375 164.648438 C 325.398438 164.6875 325.421875 164.730469 325.445312 164.769531 C 325.480469 164.828125 325.515625 164.886719 325.550781 164.945312 C 325.574219 164.984375 325.601562 165.03125 325.628906 165.070312 C 325.664062 165.128906 325.703125 165.183594 325.738281 165.242188 C 325.765625 165.285156 325.796875 165.328125 325.824219 165.371094 C 325.863281 165.429688 325.902344 165.484375 325.941406 165.542969 C 325.96875 165.585938 326 165.628906 326.03125 165.671875 C 326.070312 165.726562 326.113281 165.785156 326.15625 165.84375 C 326.1875 165.886719 326.21875 165.929688 326.25 165.972656 C 326.292969 166.03125 326.339844 166.089844 326.386719 166.144531 C 326.417969 166.1875 326.449219 166.230469 326.484375 166.273438 C 326.53125 166.335938 326.582031 166.394531 326.632812 166.457031 C 326.664062 166.496094 326.695312 166.535156 326.730469 166.574219 C 326.785156 166.644531 326.84375 166.710938 326.902344 166.777344 C 326.933594 166.8125 326.960938 166.84375 326.988281 166.878906 C 327.078125 166.980469 327.167969 167.082031 327.261719 167.183594 C 327.308594 167.230469 327.355469 167.277344 327.40625 167.320312 C 327.425781 167.335938 327.449219 167.355469 327.476562 167.375 C 327.5 167.394531 327.527344 167.414062 327.554688 167.433594 C 327.585938 167.457031 327.621094 167.480469 327.652344 167.503906 C 327.667969 167.511719 327.683594 167.519531 327.699219 167.53125 C 327.804688 167.59375 327.914062 167.648438 328.035156 167.699219 C 328.546875 167.75 329.070312 167.796875 329.605469 167.832031 C 329.84375 167.851562 330.074219 167.84375 330.300781 167.824219 C 330.375 167.816406 330.449219 167.8125 330.519531 167.804688 C 331.28125 167.703125 331.925781 167.398438 332.347656 166.921875 C 337.132812 161.503906 336.574219 156.585938 333.484375 152.367188 C 338.652344 148.617188 345.289062 145.902344 348.679688 144.648438 C 348.933594 144.558594 349.179688 144.503906 349.417969 144.476562 Z M 349.417969 144.476562 " fill-opacity="1" fill-rule="nonzero"/><path fill="#eacf32" d="M 325.5625 168.574219 C 298.894531 164.101562 302.707031 143.605469 304.570312 137.25 C 304.886719 136.179688 306.332031 135.832031 307.757812 136.488281 C 316.382812 140.4375 343.054688 154.246094 328.378906 167.933594 C 327.738281 168.53125 326.703125 168.765625 325.5625 168.574219 Z M 325.5625 168.574219 " fill-opacity="1" fill-rule="nonzero"/><path fill="#ccc033" d="M 309.492188 137.300781 C 308.859375 136.996094 308.277344 136.722656 307.761719 136.488281 C 306.332031 135.832031 304.886719 136.179688 304.574219 137.25 C 302.707031 143.605469 298.898438 164.101562 325.566406 168.578125 C 326.703125 168.769531 327.738281 168.535156 328.378906 167.933594 C 328.992188 167.363281 329.53125 166.792969 330.003906 166.21875 C 306.992188 161.863281 307.765625 145.140625 309.492188 137.300781 Z M 309.492188 137.300781 " fill-opacity="1" fill-rule="nonzero"/><path fill="#fcda4f" d="M 327.824219 165.941406 C 327.164062 165.941406 326.507812 165.660156 326.050781 165.113281 L 319.042969 156.71875 C 318.222656 155.738281 318.355469 154.285156 319.332031 153.464844 C 320.308594 152.648438 321.761719 152.777344 322.578125 153.757812 L 329.589844 162.152344 C 330.40625 163.132812 330.277344 164.585938 329.300781 165.40625 C 328.867188 165.765625 328.34375 165.941406 327.824219 165.941406 Z M 327.824219 165.941406 " fill-opacity="1" fill-rule="nonzero"/><path fill="#ff4b34" d="M 349.175781 180.742188 L 342.296875 169.582031 L 335.417969 180.742188 L 339.394531 180.742188 L 339.394531 195.914062 L 345.195312 195.914062 L 345.195312 180.742188 Z M 349.175781 180.742188 " fill-opacity="1" fill-rule="nonzero"/><g clip-path="url(#5c48d2b681)"><path fill="#bf6c0d" d="M 291.074219 80.171875 L 268.007812 80.171875 C 265.140625 80.171875 263.285156 83.199219 264.582031 85.757812 L 269.441406 95.367188 L 292.507812 95.367188 L 287.644531 85.757812 C 286.347656 83.199219 288.207031 80.171875 291.074219 80.171875 Z M 291.074219 80.171875 " fill-opacity="1" fill-rule="nonzero"/></g><g clip-path="url(#170ecde5ab)"><path fill="#bf6c0d" d="M 331.972656 247.746094 C 331.972656 243.753906 329.144531 240.359375 325.203125 239.105469 C 325.585938 237.917969 325.792969 236.65625 325.792969 235.339844 C 325.792969 229.398438 321.570312 224.449219 315.96875 223.328125 C 316.5 221.953125 316.792969 220.460938 316.792969 218.902344 C 316.792969 212.132812 311.316406 206.648438 304.554688 206.648438 C 303.957031 206.648438 303.371094 206.691406 302.796875 206.777344 C 302.039062 200.738281 296.894531 196.066406 290.660156 196.066406 C 285.707031 196.066406 281.449219 199.011719 279.519531 203.246094 C 277.59375 199.011719 273.332031 196.066406 268.382812 196.066406 C 263.359375 196.066406 259.050781 199.09375 257.164062 203.421875 C 255.585938 202.683594 253.832031 202.269531 251.976562 202.269531 C 245.21875 202.269531 239.738281 207.753906 239.738281 214.523438 C 239.738281 215.164062 239.789062 215.792969 239.882812 216.40625 C 239.492188 216.75 239.101562 217.097656 238.71875 217.453125 C 232.746094 218.261719 228.140625 223.386719 228.140625 229.589844 C 228.140625 230.246094 228.191406 230.886719 228.289062 231.511719 C 227.886719 232.34375 227.511719 233.191406 227.164062 234.050781 C 226.894531 234.03125 226.625 234.019531 226.351562 234.019531 C 219.59375 234.019531 214.117188 239.507812 214.117188 246.273438 C 214.117188 250.703125 216.464844 254.582031 219.980469 256.734375 L 319.890625 256.734375 C 320.523438 256.847656 321.179688 256.90625 321.847656 256.90625 C 322.519531 256.90625 323.171875 256.847656 323.808594 256.734375 L 324.15625 256.734375 C 324.160156 256.710938 324.160156 256.6875 324.164062 256.664062 C 328.640625 255.714844 331.972656 252.085938 331.972656 247.746094 Z M 331.972656 247.746094 " fill-opacity="1" fill-rule="nonzero"/></g><g clip-path="url(#b798458599)"><path fill="#a56021" d="M 219.980469 256.730469 L 231.503906 256.730469 C 231.503906 256.726562 231.503906 256.722656 231.503906 256.71875 C 231.503906 249.949219 236.984375 244.464844 243.742188 244.464844 C 244.015625 244.464844 244.285156 244.476562 244.550781 244.492188 C 244.902344 243.632812 245.277344 242.789062 245.679688 241.953125 C 245.582031 241.328125 245.527344 240.6875 245.527344 240.035156 C 245.527344 233.832031 250.132812 228.707031 256.109375 227.894531 C 256.492188 227.542969 256.878906 227.191406 257.273438 226.851562 C 257.179688 226.234375 257.128906 225.605469 257.128906 224.964844 C 257.128906 218.199219 262.609375 212.714844 269.367188 212.714844 C 271.222656 212.714844 272.976562 213.128906 274.554688 213.867188 C 276.441406 209.535156 280.75 206.507812 285.773438 206.507812 C 290.722656 206.507812 294.984375 209.453125 296.910156 213.6875 C 298.546875 210.097656 301.859375 207.441406 305.851562 206.714844 C 305.425781 206.671875 304.996094 206.648438 304.558594 206.648438 C 303.960938 206.648438 303.375 206.691406 302.800781 206.773438 C 302.042969 200.734375 296.898438 196.0625 290.660156 196.0625 C 285.710938 196.0625 281.449219 199.007812 279.523438 203.242188 C 277.597656 199.007812 273.335938 196.0625 268.382812 196.0625 C 263.363281 196.0625 259.054688 199.089844 257.164062 203.421875 C 255.589844 202.683594 253.835938 202.269531 251.980469 202.269531 C 245.222656 202.269531 239.742188 207.753906 239.742188 214.519531 C 239.742188 215.160156 239.792969 215.789062 239.886719 216.40625 C 239.492188 216.75 239.105469 217.097656 238.722656 217.449219 C 232.746094 218.261719 228.140625 223.386719 228.140625 229.589844 C 228.140625 230.242188 228.191406 230.882812 228.292969 231.507812 C 227.890625 232.34375 227.515625 233.191406 227.164062 234.046875 C 226.898438 234.03125 226.628906 234.019531 226.355469 234.019531 C 219.597656 234.019531 214.117188 239.503906 214.117188 246.273438 C 214.117188 250.699219 216.464844 254.582031 219.980469 256.730469 Z M 219.980469 256.730469 " fill-opacity="1" fill-rule="nonzero"/></g><path fill="#a56021" d="M 268.253906 238.589844 C 268.253906 239.03125 268.210938 239.46875 268.125 239.902344 C 268.039062 240.335938 267.910156 240.757812 267.742188 241.167969 C 267.574219 241.574219 267.367188 241.964844 267.121094 242.332031 C 266.875 242.699219 266.597656 243.039062 266.285156 243.351562 C 265.972656 243.664062 265.632812 243.945312 265.265625 244.1875 C 264.898438 244.433594 264.511719 244.640625 264.101562 244.8125 C 263.695312 244.980469 263.273438 245.109375 262.839844 245.195312 C 262.40625 245.28125 261.96875 245.324219 261.527344 245.324219 C 261.085938 245.324219 260.648438 245.28125 260.214844 245.195312 C 259.78125 245.109375 259.359375 244.980469 258.953125 244.8125 C 258.546875 244.640625 258.15625 244.433594 257.789062 244.1875 C 257.421875 243.945312 257.082031 243.664062 256.769531 243.351562 C 256.457031 243.039062 256.179688 242.699219 255.933594 242.332031 C 255.6875 241.964844 255.480469 241.574219 255.3125 241.167969 C 255.144531 240.757812 255.015625 240.335938 254.929688 239.902344 C 254.84375 239.46875 254.800781 239.03125 254.800781 238.589844 C 254.800781 238.148438 254.84375 237.707031 254.929688 237.273438 C 255.015625 236.839844 255.144531 236.421875 255.3125 236.011719 C 255.480469 235.601562 255.6875 235.214844 255.933594 234.847656 C 256.179688 234.480469 256.457031 234.140625 256.769531 233.828125 C 257.082031 233.511719 257.421875 233.234375 257.789062 232.988281 C 258.15625 232.742188 258.546875 232.535156 258.953125 232.367188 C 259.359375 232.195312 259.78125 232.070312 260.214844 231.984375 C 260.648438 231.898438 261.085938 231.851562 261.527344 231.851562 C 261.96875 231.851562 262.40625 231.898438 262.839844 231.984375 C 263.273438 232.070312 263.695312 232.195312 264.101562 232.367188 C 264.511719 232.535156 264.898438 232.742188 265.265625 232.988281 C 265.632812 233.234375 265.972656 233.511719 266.285156 233.828125 C 266.597656 234.140625 266.875 234.480469 267.121094 234.847656 C 267.367188 235.214844 267.574219 235.601562 267.742188 236.011719 C 267.910156 236.421875 268.039062 236.839844 268.125 237.273438 C 268.210938 237.707031 268.253906 238.148438 268.253906 238.589844 Z M 268.253906 238.589844 " fill-opacity="1" fill-rule="nonzero"/><path fill="#a56021" d="M 280.941406 224.734375 C 280.941406 225.175781 280.898438 225.613281 280.8125 226.046875 C 280.726562 226.480469 280.597656 226.902344 280.429688 227.3125 C 280.257812 227.71875 280.050781 228.105469 279.804688 228.476562 C 279.5625 228.84375 279.28125 229.183594 278.96875 229.496094 C 278.65625 229.808594 278.316406 230.085938 277.949219 230.332031 C 277.582031 230.578125 277.195312 230.785156 276.789062 230.957031 C 276.378906 231.125 275.957031 231.253906 275.527344 231.339844 C 275.09375 231.425781 274.65625 231.46875 274.214844 231.46875 C 273.769531 231.46875 273.332031 231.425781 272.902344 231.339844 C 272.46875 231.253906 272.046875 231.125 271.636719 230.957031 C 271.230469 230.785156 270.84375 230.578125 270.476562 230.332031 C 270.109375 230.085938 269.769531 229.808594 269.457031 229.496094 C 269.144531 229.183594 268.863281 228.84375 268.621094 228.476562 C 268.375 228.105469 268.167969 227.71875 267.996094 227.3125 C 267.828125 226.902344 267.703125 226.480469 267.613281 226.046875 C 267.527344 225.613281 267.484375 225.175781 267.484375 224.734375 C 267.484375 224.289062 267.527344 223.851562 267.613281 223.417969 C 267.703125 222.984375 267.828125 222.5625 267.996094 222.15625 C 268.167969 221.746094 268.375 221.359375 268.621094 220.992188 C 268.863281 220.625 269.144531 220.28125 269.457031 219.96875 C 269.769531 219.65625 270.109375 219.378906 270.476562 219.132812 C 270.84375 218.886719 271.230469 218.679688 271.636719 218.511719 C 272.046875 218.339844 272.46875 218.214844 272.902344 218.128906 C 273.332031 218.039062 273.769531 217.996094 274.214844 217.996094 C 274.65625 217.996094 275.09375 218.039062 275.527344 218.128906 C 275.957031 218.214844 276.378906 218.339844 276.789062 218.511719 C 277.195312 218.679688 277.582031 218.886719 277.949219 219.132812 C 278.316406 219.378906 278.65625 219.65625 278.96875 219.96875 C 279.28125 220.28125 279.5625 220.625 279.804688 220.992188 C 280.050781 221.359375 280.257812 221.746094 280.429688 222.15625 C 280.597656 222.5625 280.726562 222.984375 280.8125 223.417969 C 280.898438 223.851562 280.941406 224.289062 280.941406 224.734375 Z M 280.941406 224.734375 " fill-opacity="1" fill-rule="nonzero"/></svg>